<svg width="24" height="22" viewBox="0 0 24 22" fill="none" xmlns="http://www.w3.org/2000/svg">
<path d="M6.50562 22C6.32584 22 6.1573 21.9542 6 21.8625C5.8427 21.7708 5.7191 21.6448 5.62921 21.4844L2.79775 16.3281H5.19101L6.60674 19.0781H9.64045V18.0469H7.21348L5.79775 15.2969H2.25843L0.134831 11.5156C0.0898876 11.424 0.0561798 11.338 0.0337079 11.2578C0.011236 11.1776 0 11.0917 0 11C0 10.9542 0.0449438 10.7823 0.134831 10.4844L2.25843 6.70313H5.79775L7.21348 3.95313H9.64045V2.92188H6.60674L5.19101 5.67188H2.79775L5.62921 0.515625C5.7191 0.355208 5.8427 0.229167 6 0.1375C6.1573 0.0458333 6.32584 0 6.50562 0H10.4831C10.7753 0 11.0169 0.0973958 11.2079 0.292188C11.3989 0.486979 11.4944 0.733333 11.4944 1.03125V7.04688H8.62921L7.61798 8.07813H11.4944V12.5469H8.19101L6.8764 9.79688H3.57303L2.5618 10.8281H6.20225L7.55056 13.5781H11.4944V20.9688C11.4944 21.2667 11.3989 21.513 11.2079 21.7078C11.0169 21.9026 10.7753 22 10.4831 22H6.50562ZM13.5169 22C13.2247 22 12.9831 21.9026 12.7921 21.7078C12.6011 21.513 12.5056 21.2667 12.5056 20.9688V13.5781H16.4494L17.7978 10.8281H21.4382L20.427 9.79688H17.1236L15.809 12.5469H12.5056V8.07813H16.382L15.3708 7.04688H12.5056V1.03125C12.5056 0.733333 12.6011 0.486979 12.7921 0.292188C12.9831 0.0973958 13.2247 0 13.5169 0H17.4944C17.6742 0 17.8427 0.0458333 18 0.1375C18.1573 0.229167 18.2809 0.355208 18.3708 0.515625L21.2022 5.67188H18.809L17.3933 2.92188H14.3596V3.95313H16.7865L18.2022 6.70313H21.7416L23.8652 10.4844C23.9101 10.576 23.9438 10.662 23.9663 10.7422C23.9888 10.8224 24 10.9083 24 11C24 11.0458 23.9551 11.2177 23.8652 11.5156L21.7416 15.2969H18.2022L16.7865 18.0469H14.3596V19.0781H17.3933L18.809 16.3281H21.2022L18.3708 21.4844C18.2809 21.6448 18.1573 21.7708 18 21.8625C17.8427 21.9542 17.6742 22 17.4944 22H13.5169Z" fill="black"/>
</svg>
