<svg width="17" height="19" viewBox="0 0 17 19" fill="none" xmlns="http://www.w3.org/2000/svg">
<path d="M4.06586 5.59821C4.06586 5.93565 4.2018 6.25927 4.44379 6.49788C4.68577 6.73649 5.01397 6.87054 5.35618 6.87054C5.6984 6.87054 6.0266 6.73649 6.26858 6.49788C6.51056 6.25927 6.64651 5.93565 6.64651 5.59821C6.64651 5.26077 6.51056 4.93715 6.26858 4.69855C6.0266 4.45994 5.6984 4.32589 5.35618 4.32589C5.01397 4.32589 4.68577 4.45994 4.44379 4.69855C4.2018 4.93715 4.06586 5.26077 4.06586 5.59821ZM15.9368 0H1.31317C0.932527 0 0.625 0.303237 0.625 0.678571V14.6741C0.625 15.0494 0.932527 15.3527 1.31317 15.3527H15.9368C16.3175 15.3527 16.625 15.0494 16.625 14.6741V0.678571C16.625 0.303237 16.3175 0 15.9368 0ZM15.2487 13.9955H2.00134V1.35714H15.2487V13.9955ZM10.6035 5.59821C10.6035 5.93565 10.7394 6.25927 10.9814 6.49788C11.2234 6.73649 11.5516 6.87054 11.8938 6.87054C12.236 6.87054 12.5642 6.73649 12.8062 6.49788C13.0482 6.25927 13.1841 5.93565 13.1841 5.59821C13.1841 5.26077 13.0482 4.93715 12.8062 4.69855C12.5642 4.45994 12.236 4.32589 11.8938 4.32589C11.5516 4.32589 11.2234 4.45994 10.9814 4.69855C10.7394 4.93715 10.6035 5.26077 10.6035 5.59821ZM15.9841 17.3884H1.26586C0.911022 17.3884 0.625 17.6916 0.625 18.067V18.8304C0.625 18.9237 0.695968 19 0.78414 19H16.4637C16.5519 19 16.6228 18.9237 16.6228 18.8304V18.067C16.625 17.6916 16.339 17.3884 15.9841 17.3884ZM11.8938 9.41518H5.35618C5.26156 9.41518 5.18414 9.49152 5.18414 9.58482V10.8571C5.18414 10.9504 5.26156 11.0268 5.35618 11.0268H11.8938C11.9884 11.0268 12.0659 10.9504 12.0659 10.8571V9.58482C12.0659 9.49152 11.9884 9.41518 11.8938 9.41518Z" fill="#060606"/>
</svg>
