<svg width="157" height="157" viewBox="0 0 157 157" fill="none" xmlns="http://www.w3.org/2000/svg">
<g clip-path="url(#clip0_2086_998)">
<path d="M157 157H124.51V105.975C124.51 93.7636 124.51 78.0636 107.501 78.0636C90.4931 78.0636 87.8764 91.365 87.8764 104.884V156.782H55.3862V52.115H86.5681V66.5067H87.0042C90.057 61.0553 94.6362 56.6942 100.088 53.8595C105.539 51.0247 111.645 49.4984 117.75 49.7164C150.676 49.7164 156.782 71.522 156.782 99.6511V157.218L157 157ZM18.7529 37.7234C15.0459 37.7234 11.339 36.6331 8.28618 34.4525C5.23341 32.49 2.8348 29.4372 1.30841 25.9484C-1.52631 18.9706 7.47223e-05 10.9025 5.45146 5.45114C10.9029 -0.000253147 18.9709 -1.52664 26.1667 1.52614C29.6556 3.05252 32.4903 5.45114 34.6709 8.50391C39.6862 15.9178 38.5959 25.9484 32.2723 32.272C28.7834 35.7609 23.9862 37.7234 18.9709 37.7234H18.7529ZM35.107 157H2.61674V52.115H35.107V157Z" fill="#1A1E22"/>
</g>
<defs>
<clipPath id="clip0_2086_998">
<rect width="157" height="157" fill="white"/>
</clipPath>
</defs>
</svg>
