<svg width="241" height="240" viewBox="0 0 241 240" fill="none" xmlns="http://www.w3.org/2000/svg">
<g clip-path="url(#clip0_2134_1030)">
<path d="M120.32 0C186.594 0 240.32 53.7258 240.32 120C240.32 166.612 213.745 207.016 174.919 226.888V147.239C174.919 146.105 174.555 145.173 173.826 144.444C173.097 143.717 172.165 143.351 171.031 143.351H147.7C146.567 143.351 145.635 143.714 144.907 144.443C144.179 145.173 143.815 146.105 143.814 147.238V237.698C137.672 238.918 131.361 239.67 124.919 239.913V182.239C124.919 181.105 124.555 180.173 123.826 179.444C123.097 178.717 122.165 178.351 121.031 178.351H97.7002C96.5669 178.351 95.635 178.714 94.9072 179.443C94.1786 180.173 93.8145 181.105 93.8145 182.238V237.06C64.165 230.375 38.6734 212.716 21.832 188.573L128.88 93.626L146.942 113.99C148.019 115.204 149.502 115.458 151.384 114.761C153.218 114.004 154.345 112.675 154.774 110.781L168.704 40.9209C168.904 39.6613 168.627 38.609 167.874 37.7598C167.177 36.9741 166.19 36.6063 164.915 36.6543L94.2148 42.5098C92.3362 42.7688 90.9116 43.7616 89.9404 45.4893C88.9713 47.2165 89.0473 48.7188 90.1768 49.9922L108.239 70.3564L7.1543 160.015C2.7289 147.499 0.320312 134.031 0.320312 120C0.320312 53.7258 54.0461 0 120.32 0Z" fill="#2A2E45"/>
</g>
<defs>
<clipPath id="clip0_2134_1030">
<rect width="241" height="240" fill="white"/>
</clipPath>
</defs>
</svg>
