<svg width="240" height="240" viewBox="0 0 240 240" fill="none" xmlns="http://www.w3.org/2000/svg">
<path d="M120 0C53.88 0 0 53.88 0 120C0 186.12 53.88 240 120 240C186.12 240 240 186.12 240 120C240 53.88 186.12 0 120 0ZM177.36 92.4L109.32 160.44C107.64 162.12 105.36 163.08 102.96 163.08C100.56 163.08 98.28 162.12 96.6 160.44L62.64 126.48C59.16 123 59.16 117.24 62.64 113.76C66.12 110.28 71.88 110.28 75.36 113.76L102.96 141.36L164.64 79.68C168.12 76.2 173.88 76.2 177.36 79.68C180.84 83.16 180.84 88.8 177.36 92.4Z" fill="#2A2E45"/>
</svg>
