<svg width="240" height="240" viewBox="0 0 240 240" fill="none" xmlns="http://www.w3.org/2000/svg">
<g clip-path="url(#clip0_2165_343)">
<path d="M120 0C186.274 0 240 53.7258 240 120C240 186.274 186.274 240 120 240C53.7258 240 0 186.274 0 120C0 53.7258 53.7258 0 120 0ZM119.6 61C80.3079 61.0002 46.8681 86.0799 36 119.52C46.868 152.959 80.3078 178.04 119.6 178.04C158.892 178.04 192.332 152.96 203.2 119.52C192.332 86.0797 158.891 61 119.6 61ZM119.6 77.7197C143.007 77.7197 161.4 96.1118 161.4 119.52C161.4 142.928 143.008 161.32 119.6 161.32C96.1918 161.32 77.7998 142.927 77.7998 119.52C77.8001 96.1119 96.192 77.7199 119.6 77.7197Z" fill="#35FDF3"/>
</g>
<defs>
<clipPath id="clip0_2165_343">
<rect width="240" height="240" fill="white"/>
</clipPath>
</defs>
</svg>
