<svg width="240" height="240" viewBox="0 0 240 240" fill="none" xmlns="http://www.w3.org/2000/svg">
<g clip-path="url(#clip0_2134_1032)">
<path d="M120 0C186.274 0 240 53.7258 240 120C240 186.274 186.274 240 120 240C53.7258 240 0 186.274 0 120C0 53.7258 53.7258 0 120 0ZM120.002 54.627C116.493 54.627 113.342 56.583 111.789 59.7314L97.96 87.7559C97.3717 88.9502 96.2312 89.7759 94.9141 89.9678L63.9873 94.4619C60.5115 94.9658 57.6769 97.3545 56.5898 100.697C55.5054 104.04 56.3931 107.637 58.9072 110.087L81.2842 131.898C82.2382 132.829 82.6753 134.17 82.4502 135.479L77.1719 166.278C76.7038 168.989 77.4144 171.627 79.1689 173.706C81.8953 176.946 86.6552 177.933 90.4609 175.934L118.12 161.391C119.276 160.785 120.731 160.79 121.885 161.391L149.546 175.934C150.891 176.642 152.326 177 153.807 177C156.51 177 159.073 175.798 160.835 173.706C162.592 171.627 163.3 168.984 162.832 166.278L157.551 135.479C157.326 134.168 157.763 132.829 158.717 131.898L181.094 110.084C183.608 107.634 184.495 104.038 183.411 100.695C182.324 97.3525 179.493 94.9654 176.015 94.459L145.088 89.9658C143.771 89.774 142.632 88.9474 142.044 87.7529L128.217 59.7314C126.664 56.5832 123.513 54.627 120.002 54.627Z" fill="#2A2E45"/>
</g>
<defs>
<clipPath id="clip0_2134_1032">
<rect width="240" height="240" fill="white"/>
</clipPath>
</defs>
</svg>
