<svg width="274" height="75" viewBox="0 0 274 75" fill="none" xmlns="http://www.w3.org/2000/svg">
<g clip-path="url(#clip0_2185_1050)">
<path d="M168.255 62L158.56 37.5H162.06L171.93 62H168.255ZM148.515 62L158.385 37.5H161.885L152.19 62H148.515ZM153.17 55.455V52.375H167.275V55.455H153.17ZM174.293 62V37.5H177.723V62H174.293ZM202.136 55.315L190.796 38.62L192.266 37.99L194.051 37.5L203.851 52.025L202.136 55.315ZM190.411 62V37.5H193.841V62H190.411ZM202.136 55.315L200.456 52.025L210.256 37.5L212.041 37.99L213.476 38.585L202.136 55.315ZM210.466 62V37.5H213.896V62H210.466ZM226.168 62.42C224.418 62.42 222.878 62.035 221.548 61.265C220.218 60.4717 219.168 59.3867 218.398 58.01C217.652 56.6333 217.278 55.0467 217.278 53.25C217.278 51.4533 217.652 49.8667 218.398 48.49C219.145 47.1133 220.183 46.04 221.513 45.27C222.843 44.4767 224.372 44.08 226.098 44.08C227.825 44.08 229.353 44.4767 230.683 45.27C232.013 46.04 233.052 47.1133 233.798 48.49C234.545 49.8667 234.918 51.4533 234.918 53.25C234.918 55.0467 234.545 56.6333 233.798 58.01C233.052 59.3867 232.013 60.4717 230.683 61.265C229.377 62.035 227.872 62.42 226.168 62.42ZM226.168 59.375C227.218 59.375 228.152 59.1183 228.968 58.605C229.785 58.0683 230.415 57.345 230.858 56.435C231.325 55.525 231.558 54.4633 231.558 53.25C231.558 52.0367 231.325 50.975 230.858 50.065C230.415 49.155 229.773 48.4433 228.933 47.93C228.093 47.3933 227.148 47.125 226.098 47.125C225.025 47.125 224.08 47.3933 223.263 47.93C222.447 48.4433 221.805 49.155 221.338 50.065C220.872 50.975 220.638 52.0367 220.638 53.25C220.638 54.4633 220.872 55.525 221.338 56.435C221.805 57.345 222.458 58.0683 223.298 58.605C224.138 59.1183 225.095 59.375 226.168 59.375ZM250.321 62L250.181 58.745V37.5H253.471V62H250.321ZM244.441 62.42C242.854 62.42 241.466 62.035 240.276 61.265C239.109 60.495 238.188 59.4217 237.511 58.045C236.858 56.6683 236.531 55.07 236.531 53.25C236.531 51.4067 236.858 49.8083 237.511 48.455C238.188 47.0783 239.109 46.005 240.276 45.235C241.466 44.465 242.854 44.08 244.441 44.08C245.911 44.08 247.183 44.465 248.256 45.235C249.353 46.005 250.193 47.0783 250.776 48.455C251.359 49.8083 251.651 51.4067 251.651 53.25C251.651 55.07 251.359 56.6683 250.776 58.045C250.193 59.4217 249.353 60.495 248.256 61.265C247.183 62.035 245.911 62.42 244.441 62.42ZM245.211 59.41C246.191 59.41 247.054 59.1533 247.801 58.64C248.548 58.1033 249.131 57.38 249.551 56.47C249.971 55.5367 250.181 54.4633 250.181 53.25C250.181 52.0367 249.971 50.975 249.551 50.065C249.131 49.1317 248.548 48.4083 247.801 47.895C247.054 47.3583 246.179 47.09 245.176 47.09C244.149 47.09 243.239 47.3583 242.446 47.895C241.653 48.4083 241.034 49.1317 240.591 50.065C240.148 50.975 239.926 52.0367 239.926 53.25C239.926 54.4633 240.148 55.5367 240.591 56.47C241.058 57.38 241.688 58.1033 242.481 58.64C243.274 59.1533 244.184 59.41 245.211 59.41ZM264.772 62.42C263.069 62.42 261.564 62.035 260.257 61.265C258.95 60.4717 257.924 59.3867 257.177 58.01C256.43 56.6333 256.057 55.0467 256.057 53.25C256.057 51.4533 256.43 49.8667 257.177 48.49C257.924 47.1133 258.95 46.04 260.257 45.27C261.587 44.4767 263.104 44.08 264.807 44.08C266.394 44.08 267.794 44.4883 269.007 45.305C270.244 46.0983 271.2 47.2417 271.877 48.735C272.577 50.205 272.927 51.9433 272.927 53.95H269.602C269.625 52.4567 269.439 51.1967 269.042 50.17C268.669 49.1433 268.109 48.3733 267.362 47.86C266.639 47.3233 265.764 47.055 264.737 47.055C263.64 47.055 262.695 47.3117 261.902 47.825C261.109 48.315 260.49 49.0267 260.047 49.96C259.627 50.87 259.417 51.99 259.417 53.32C259.417 54.5567 259.662 55.63 260.152 56.54C260.642 57.4267 261.307 58.1267 262.147 58.64C262.987 59.13 263.944 59.375 265.017 59.375C266.16 59.375 267.105 59.1067 267.852 58.57C268.622 58.0333 269.229 57.345 269.672 56.505L272.647 57.87C272.18 58.78 271.574 59.585 270.827 60.285C270.08 60.9617 269.194 61.4867 268.167 61.86C267.164 62.2333 266.032 62.42 264.772 62.42ZM258.227 53.95L258.262 51.22H271.072V53.95H258.227Z" fill="#1A1E22"/>
<path d="M60.7828 51.524C60.7828 58.2287 55.5378 63.1692 49.101 63.1692C42.6641 63.1692 37.4191 58.2287 37.4191 51.524C37.4191 44.7722 42.6641 39.8789 49.101 39.8789C55.5378 39.8789 60.7828 44.7722 60.7828 51.524ZM55.6691 51.524C55.6691 47.3343 52.6291 44.4677 49.101 44.4677C45.5728 44.4677 42.5328 47.3343 42.5328 51.524C42.5328 55.6718 45.5728 58.5804 49.101 58.5804C52.6291 58.5804 55.6691 55.6665 55.6691 51.524Z" fill="#1A1E22"/>
<path d="M85.9845 51.524C85.9845 58.2287 80.7395 63.1692 74.3026 63.1692C67.8658 63.1692 62.6207 58.2287 62.6207 51.524C62.6207 44.7774 67.8658 39.8789 74.3026 39.8789C80.7395 39.8789 85.9845 44.7722 85.9845 51.524ZM80.8707 51.524C80.8707 47.3343 77.8308 44.4677 74.3026 44.4677C70.7744 44.4677 67.7345 47.3343 67.7345 51.524C67.7345 55.6718 70.7744 58.5804 74.3026 58.5804C77.8308 58.5804 80.8707 55.6665 80.8707 51.524Z" fill="#1A1E22"/>
<path d="M110.136 40.5824V61.4891C110.136 70.0891 105.064 73.6015 99.0681 73.6015C93.4241 73.6015 90.0271 69.8265 88.7461 66.7394L93.1983 64.886C93.9911 66.7814 95.9337 69.018 99.0629 69.018C102.901 69.018 105.279 66.6501 105.279 62.1926V60.5178H105.101C103.956 61.9301 101.751 63.1639 98.9684 63.1639C93.1458 63.1639 87.8115 58.0921 87.8115 51.566C87.8115 44.9927 93.1458 39.8789 98.9684 39.8789C101.746 39.8789 103.951 41.1127 105.101 42.483H105.279V40.5877H110.136V40.5824ZM105.641 51.566C105.641 47.4656 102.906 44.4677 99.4252 44.4677C95.897 44.4677 92.9411 47.4656 92.9411 51.566C92.9411 55.6245 95.897 58.5804 99.4252 58.5804C102.906 58.5804 105.641 55.6245 105.641 51.566Z" fill="#1A1E22"/>
<path d="M118.142 28.3282V62.4551H113.155V28.3282H118.142Z" fill="#1A1E22"/>
<path d="M137.579 55.3569L141.548 58.003C140.267 59.8984 137.18 63.164 131.846 63.164C125.23 63.164 120.29 58.0503 120.29 51.5189C120.29 44.5938 125.272 39.8738 131.273 39.8738C137.316 39.8738 140.272 44.683 141.238 47.2819L141.769 48.605L126.202 55.0524C127.393 57.3887 129.247 58.5805 131.846 58.5805C134.45 58.5805 136.256 57.2995 137.579 55.3569ZM125.362 51.1671L135.768 46.8462C135.195 45.3918 133.473 44.3785 131.447 44.3785C128.848 44.3785 125.23 46.6729 125.362 51.1671Z" fill="#1A1E22"/>
<path d="M18.5392 48.4947V43.5542H35.1879C35.3506 44.4152 35.4346 45.4338 35.4346 46.5363C35.4346 50.243 34.4213 54.8265 31.1556 58.0922C27.9792 61.3999 23.9207 63.164 18.5444 63.164C8.57941 63.164 0.199951 55.047 0.199951 45.082C0.199951 35.1169 8.57941 27 18.5444 27C24.0572 27 27.9845 29.1631 30.9351 31.9825L27.4489 35.4687C25.3331 33.4841 22.4664 31.9405 18.5392 31.9405C11.2623 31.9405 5.57099 37.8051 5.57099 45.082C5.57099 52.3589 11.2623 58.2235 18.5392 58.2235C23.2592 58.2235 25.9474 56.3281 27.6694 54.606C29.066 53.2094 29.9848 51.2143 30.3471 48.4894L18.5392 48.4947Z" fill="#1A1E22"/>
</g>
<defs>
<clipPath id="clip0_2185_1050">
<rect width="274" height="75" fill="white"/>
</clipPath>
</defs>
</svg>
