<svg width="300" height="75" viewBox="0 0 300 75" fill="none" xmlns="http://www.w3.org/2000/svg">
<path d="M181.055 62L171.36 37.5H174.86L184.73 62H181.055ZM161.315 62L171.185 37.5H174.685L164.99 62H161.315ZM165.97 55.455V52.375H180.075V55.455H165.97ZM187.093 62V37.5H190.523V62H187.093ZM214.936 55.315L203.596 38.62L205.066 37.99L206.851 37.5L216.651 52.025L214.936 55.315ZM203.211 62V37.5H206.641V62H203.211ZM214.936 55.315L213.256 52.025L223.056 37.5L224.841 37.99L226.276 38.585L214.936 55.315ZM223.266 62V37.5H226.696V62H223.266ZM238.968 62.42C237.218 62.42 235.678 62.035 234.348 61.265C233.018 60.4717 231.968 59.3867 231.198 58.01C230.452 56.6333 230.078 55.0467 230.078 53.25C230.078 51.4533 230.452 49.8667 231.198 48.49C231.945 47.1133 232.983 46.04 234.313 45.27C235.643 44.4767 237.172 44.08 238.898 44.08C240.625 44.08 242.153 44.4767 243.483 45.27C244.813 46.04 245.852 47.1133 246.598 48.49C247.345 49.8667 247.718 51.4533 247.718 53.25C247.718 55.0467 247.345 56.6333 246.598 58.01C245.852 59.3867 244.813 60.4717 243.483 61.265C242.177 62.035 240.672 62.42 238.968 62.42ZM238.968 59.375C240.018 59.375 240.952 59.1183 241.768 58.605C242.585 58.0683 243.215 57.345 243.658 56.435C244.125 55.525 244.358 54.4633 244.358 53.25C244.358 52.0367 244.125 50.975 243.658 50.065C243.215 49.155 242.573 48.4433 241.733 47.93C240.893 47.3933 239.948 47.125 238.898 47.125C237.825 47.125 236.88 47.3933 236.063 47.93C235.247 48.4433 234.605 49.155 234.138 50.065C233.672 50.975 233.438 52.0367 233.438 53.25C233.438 54.4633 233.672 55.525 234.138 56.435C234.605 57.345 235.258 58.0683 236.098 58.605C236.938 59.1183 237.895 59.375 238.968 59.375ZM263.121 62L262.981 58.745V37.5H266.271V62H263.121ZM257.241 62.42C255.654 62.42 254.266 62.035 253.076 61.265C251.909 60.495 250.988 59.4217 250.311 58.045C249.658 56.6683 249.331 55.07 249.331 53.25C249.331 51.4067 249.658 49.8083 250.311 48.455C250.988 47.0783 251.909 46.005 253.076 45.235C254.266 44.465 255.654 44.08 257.241 44.08C258.711 44.08 259.983 44.465 261.056 45.235C262.153 46.005 262.993 47.0783 263.576 48.455C264.159 49.8083 264.451 51.4067 264.451 53.25C264.451 55.07 264.159 56.6683 263.576 58.045C262.993 59.4217 262.153 60.495 261.056 61.265C259.983 62.035 258.711 62.42 257.241 62.42ZM258.011 59.41C258.991 59.41 259.854 59.1533 260.601 58.64C261.348 58.1033 261.931 57.38 262.351 56.47C262.771 55.5367 262.981 54.4633 262.981 53.25C262.981 52.0367 262.771 50.975 262.351 50.065C261.931 49.1317 261.348 48.4083 260.601 47.895C259.854 47.3583 258.979 47.09 257.976 47.09C256.949 47.09 256.039 47.3583 255.246 47.895C254.453 48.4083 253.834 49.1317 253.391 50.065C252.948 50.975 252.726 52.0367 252.726 53.25C252.726 54.4633 252.948 55.5367 253.391 56.47C253.858 57.38 254.488 58.1033 255.281 58.64C256.074 59.1533 256.984 59.41 258.011 59.41ZM277.572 62.42C275.869 62.42 274.364 62.035 273.057 61.265C271.75 60.4717 270.724 59.3867 269.977 58.01C269.23 56.6333 268.857 55.0467 268.857 53.25C268.857 51.4533 269.23 49.8667 269.977 48.49C270.724 47.1133 271.75 46.04 273.057 45.27C274.387 44.4767 275.904 44.08 277.607 44.08C279.194 44.08 280.594 44.4883 281.807 45.305C283.044 46.0983 284 47.2417 284.677 48.735C285.377 50.205 285.727 51.9433 285.727 53.95H282.402C282.425 52.4567 282.239 51.1967 281.842 50.17C281.469 49.1433 280.909 48.3733 280.162 47.86C279.439 47.3233 278.564 47.055 277.537 47.055C276.44 47.055 275.495 47.3117 274.702 47.825C273.909 48.315 273.29 49.0267 272.847 49.96C272.427 50.87 272.217 51.99 272.217 53.32C272.217 54.5567 272.462 55.63 272.952 56.54C273.442 57.4267 274.107 58.1267 274.947 58.64C275.787 59.13 276.744 59.375 277.817 59.375C278.96 59.375 279.905 59.1067 280.652 58.57C281.422 58.0333 282.029 57.345 282.472 56.505L285.447 57.87C284.98 58.78 284.374 59.585 283.627 60.285C282.88 60.9617 281.994 61.4867 280.967 61.86C279.964 62.2333 278.832 62.42 277.572 62.42ZM271.027 53.95L271.062 51.22H283.872V53.95H271.027Z" fill="#1A1E22"/>
<path d="M73.5829 51.5241C73.5829 58.2287 68.3379 63.1692 61.901 63.1692C55.4641 63.1692 50.2191 58.2287 50.2191 51.5241C50.2191 44.7722 55.4641 39.8789 61.901 39.8789C68.3379 39.8789 73.5829 44.7722 73.5829 51.5241ZM68.4691 51.5241C68.4691 47.3343 65.4292 44.4677 61.901 44.4677C58.3728 44.4677 55.3329 47.3343 55.3329 51.5241C55.3329 55.6718 58.3728 58.5805 61.901 58.5805C65.4292 58.5805 68.4691 55.6665 68.4691 51.5241Z" fill="#1A1E22"/>
<path d="M98.7845 51.5241C98.7845 58.2287 93.5395 63.1692 87.1027 63.1692C80.6658 63.1692 75.4208 58.2287 75.4208 51.5241C75.4208 44.7775 80.6658 39.8789 87.1027 39.8789C93.5395 39.8789 98.7845 44.7722 98.7845 51.5241ZM93.6708 51.5241C93.6708 47.3343 90.6309 44.4677 87.1027 44.4677C83.5745 44.4677 80.5346 47.3343 80.5346 51.5241C80.5346 55.6718 83.5745 58.5805 87.1027 58.5805C90.6309 58.5805 93.6708 55.6665 93.6708 51.5241Z" fill="#1A1E22"/>
<path d="M122.936 40.5825V61.4891C122.936 70.0891 117.864 73.6015 111.868 73.6015C106.224 73.6015 102.827 69.8266 101.546 66.7394L105.998 64.886C106.791 66.7814 108.734 69.018 111.863 69.018C115.701 69.018 118.079 66.6501 118.079 62.1927V60.5178H117.901C116.756 61.9301 114.551 63.164 111.768 63.164C105.946 63.164 100.612 58.0922 100.612 51.5661C100.612 44.9927 105.946 39.8789 111.768 39.8789C114.546 39.8789 116.751 41.1128 117.901 42.4831H118.079V40.5877H122.936V40.5825ZM118.442 51.5661C118.442 47.4656 115.706 44.4677 112.225 44.4677C108.697 44.4677 105.741 47.4656 105.741 51.5661C105.741 55.6245 108.697 58.5805 112.225 58.5805C115.706 58.5805 118.442 55.6245 118.442 51.5661Z" fill="#1A1E22"/>
<path d="M130.942 28.3283V62.4552H125.955V28.3283H130.942Z" fill="#1A1E22"/>
<path d="M150.379 55.3568L154.348 58.003C153.067 59.8983 149.98 63.164 144.646 63.164C138.03 63.164 133.09 58.0502 133.09 51.5188C133.09 44.5937 138.072 39.8737 144.073 39.8737C150.117 39.8737 153.072 44.683 154.038 47.2819L154.569 48.6049L139.002 55.0523C140.193 57.3887 142.047 58.5805 144.646 58.5805C147.25 58.5805 149.056 57.2994 150.379 55.3568ZM138.162 51.1671L148.568 46.8461C147.995 45.3918 146.273 44.3785 144.247 44.3785C141.648 44.3785 138.03 46.6728 138.162 51.1671Z" fill="#1A1E22"/>
<path d="M31.3393 48.4947V43.5542H47.9879C48.1507 44.4152 48.2347 45.4338 48.2347 46.5363C48.2347 50.243 47.2214 54.8265 43.9557 58.0922C40.7793 61.3999 36.7208 63.164 31.3445 63.164C21.3795 63.164 13 55.047 13 45.082C13 35.1169 21.3795 27 31.3445 27C36.8573 27 40.7845 29.1631 43.7352 31.9825L40.249 35.4687C38.1331 33.4841 35.2665 31.9405 31.3393 31.9405C24.0624 31.9405 18.371 37.8051 18.371 45.082C18.371 52.3589 24.0624 58.2235 31.3393 58.2235C36.0593 58.2235 38.7474 56.3281 40.4695 54.606C41.8661 53.2094 42.7849 51.2143 43.1471 48.4894L31.3393 48.4947Z" fill="#1A1E22"/>
</svg>
