<svg width="274" height="75" viewBox="0 0 274 75" fill="none" xmlns="http://www.w3.org/2000/svg">
<g clip-path="url(#clip0_2185_1050)">
<path d="M168.255 63L158.56 38.5H162.06L171.93 63H168.255ZM148.515 63L158.385 38.5H161.885L152.19 63H148.515ZM153.17 56.455V53.375H167.275V56.455H153.17ZM174.293 63V38.5H177.723V63H174.293ZM202.136 56.315L190.796 39.62L192.266 38.99L194.051 38.5L203.851 53.025L202.136 56.315ZM190.411 63V38.5H193.841V63H190.411ZM202.136 56.315L200.456 53.025L210.256 38.5L212.041 38.99L213.476 39.585L202.136 56.315ZM210.466 63V38.5H213.896V63H210.466ZM226.168 63.42C224.418 63.42 222.878 63.035 221.548 62.265C220.218 61.4717 219.168 60.3867 218.398 59.01C217.652 57.6333 217.278 56.0467 217.278 54.25C217.278 52.4533 217.652 50.8667 218.398 49.49C219.145 48.1133 220.183 47.04 221.513 46.27C222.843 45.4767 224.372 45.08 226.098 45.08C227.825 45.08 229.353 45.4767 230.683 46.27C232.013 47.04 233.052 48.1133 233.798 49.49C234.545 50.8667 234.918 52.4533 234.918 54.25C234.918 56.0467 234.545 57.6333 233.798 59.01C233.052 60.3867 232.013 61.4717 230.683 62.265C229.377 63.035 227.872 63.42 226.168 63.42ZM226.168 60.375C227.218 60.375 228.152 60.1183 228.968 59.605C229.785 59.0683 230.415 58.345 230.858 57.435C231.325 56.525 231.558 55.4633 231.558 54.25C231.558 53.0367 231.325 51.975 230.858 51.065C230.415 50.155 229.773 49.4433 228.933 48.93C228.093 48.3933 227.148 48.125 226.098 48.125C225.025 48.125 224.08 48.3933 223.263 48.93C222.447 49.4433 221.805 50.155 221.338 51.065C220.872 51.975 220.638 53.0367 220.638 54.25C220.638 55.4633 220.872 56.525 221.338 57.435C221.805 58.345 222.458 59.0683 223.298 59.605C224.138 60.1183 225.095 60.375 226.168 60.375ZM250.321 63L250.181 59.745V38.5H253.471V63H250.321ZM244.441 63.42C242.854 63.42 241.466 63.035 240.276 62.265C239.109 61.495 238.188 60.4217 237.511 59.045C236.858 57.6683 236.531 56.07 236.531 54.25C236.531 52.4067 236.858 50.8083 237.511 49.455C238.188 48.0783 239.109 47.005 240.276 46.235C241.466 45.465 242.854 45.08 244.441 45.08C245.911 45.08 247.183 45.465 248.256 46.235C249.353 47.005 250.193 48.0783 250.776 49.455C251.359 50.8083 251.651 52.4067 251.651 54.25C251.651 56.07 251.359 57.6683 250.776 59.045C250.193 60.4217 249.353 61.495 248.256 62.265C247.183 63.035 245.911 63.42 244.441 63.42ZM245.211 60.41C246.191 60.41 247.054 60.1533 247.801 59.64C248.548 59.1033 249.131 58.38 249.551 57.47C249.971 56.5367 250.181 55.4633 250.181 54.25C250.181 53.0367 249.971 51.975 249.551 51.065C249.131 50.1317 248.548 49.4083 247.801 48.895C247.054 48.3583 246.179 48.09 245.176 48.09C244.149 48.09 243.239 48.3583 242.446 48.895C241.653 49.4083 241.034 50.1317 240.591 51.065C240.148 51.975 239.926 53.0367 239.926 54.25C239.926 55.4633 240.148 56.5367 240.591 57.47C241.058 58.38 241.688 59.1033 242.481 59.64C243.274 60.1533 244.184 60.41 245.211 60.41ZM264.772 63.42C263.069 63.42 261.564 63.035 260.257 62.265C258.95 61.4717 257.924 60.3867 257.177 59.01C256.43 57.6333 256.057 56.0467 256.057 54.25C256.057 52.4533 256.43 50.8667 257.177 49.49C257.924 48.1133 258.95 47.04 260.257 46.27C261.587 45.4767 263.104 45.08 264.807 45.08C266.394 45.08 267.794 45.4883 269.007 46.305C270.244 47.0983 271.2 48.2417 271.877 49.735C272.577 51.205 272.927 52.9433 272.927 54.95H269.602C269.625 53.4567 269.439 52.1967 269.042 51.17C268.669 50.1433 268.109 49.3733 267.362 48.86C266.639 48.3233 265.764 48.055 264.737 48.055C263.64 48.055 262.695 48.3117 261.902 48.825C261.109 49.315 260.49 50.0267 260.047 50.96C259.627 51.87 259.417 52.99 259.417 54.32C259.417 55.5567 259.662 56.63 260.152 57.54C260.642 58.4267 261.307 59.1267 262.147 59.64C262.987 60.13 263.944 60.375 265.017 60.375C266.16 60.375 267.105 60.1067 267.852 59.57C268.622 59.0333 269.229 58.345 269.672 57.505L272.647 58.87C272.18 59.78 271.574 60.585 270.827 61.285C270.08 61.9617 269.194 62.4867 268.167 62.86C267.164 63.2333 266.032 63.42 264.772 63.42ZM258.227 54.95L258.262 52.22H271.072V54.95H258.227Z" fill="#1A1E22"/>
<path d="M57.8862 52.3514C57.8862 58.7355 52.892 63.4398 46.7629 63.4398C40.6338 63.4398 35.6395 58.7355 35.6395 52.3514C35.6395 45.9224 40.6338 41.2631 46.7629 41.2631C52.892 41.2631 57.8862 45.9224 57.8862 52.3514ZM53.0169 52.3514C53.0169 48.362 50.1224 45.6324 46.7629 45.6324C43.4034 45.6324 40.5088 48.362 40.5088 52.3514C40.5088 56.3008 43.4034 59.0704 46.7629 59.0704C50.1224 59.0704 53.0169 56.2958 53.0169 52.3514Z" fill="#1A1E22"/>
<path d="M81.8829 52.3514C81.8829 58.7355 76.8887 63.4398 70.7596 63.4398C64.6305 63.4398 59.6362 58.7355 59.6362 52.3514C59.6362 45.9274 64.6305 41.2631 70.7596 41.2631C76.8887 41.2631 81.8829 45.9224 81.8829 52.3514ZM77.0137 52.3514C77.0137 48.362 74.1191 45.6324 70.7596 45.6324C67.4001 45.6324 64.5055 48.362 64.5055 52.3514C64.5055 56.3008 67.4001 59.0704 70.7596 59.0704C74.1191 59.0704 77.0137 56.2958 77.0137 52.3514Z" fill="#1A1E22"/>
<path d="M104.879 41.933V61.84C104.879 70.0288 100.05 73.3733 94.341 73.3733C88.9668 73.3733 85.7322 69.7788 84.5124 66.8393L88.7518 65.0745C89.5067 66.8793 91.3564 69.0089 94.336 69.0089C97.9904 69.0089 100.255 66.7543 100.255 62.5099V60.9151H100.085C98.9953 62.2599 96.8956 63.4348 94.246 63.4348C88.7018 63.4348 83.6226 58.6055 83.6226 52.3914C83.6226 46.1323 88.7018 41.2631 94.246 41.2631C96.8906 41.2631 98.9903 42.4379 100.085 43.7427H100.255V41.938H104.879V41.933ZM100.6 52.3914C100.6 48.487 97.9954 45.6324 94.6809 45.6324C91.3214 45.6324 88.5068 48.487 88.5068 52.3914C88.5068 56.2558 91.3214 59.0704 94.6809 59.0704C97.9954 59.0704 100.6 56.2558 100.6 52.3914Z" fill="#1A1E22"/>
<path d="M112.503 30.2648V62.76H107.754V30.2648H112.503Z" fill="#1A1E22"/>
<path d="M131.011 56.001L134.79 58.5206C133.57 60.3253 130.631 63.4349 125.551 63.4349C119.252 63.4349 114.548 58.5656 114.548 52.3465C114.548 45.7525 119.292 41.2582 125.006 41.2582C130.761 41.2582 133.575 45.8375 134.495 48.3121L135 49.5719L120.177 55.711C121.312 57.9357 123.077 59.0705 125.551 59.0705C128.031 59.0705 129.751 57.8507 131.011 56.001ZM119.377 52.0116L129.286 47.8972C128.741 46.5124 127.101 45.5475 125.171 45.5475C122.697 45.5475 119.252 47.7322 119.377 52.0116Z" fill="#1A1E22"/>
<path d="M17.6624 49.467V44.7627H33.515C33.67 45.5825 33.75 46.5524 33.75 47.6022C33.75 51.1317 32.7851 55.4961 29.6756 58.6056C26.651 61.7551 22.7866 63.4349 17.6674 63.4349C8.17877 63.4349 0.199951 55.706 0.199951 46.2174C0.199951 36.7289 8.17877 29 17.6674 29C22.9166 29 26.656 31.0597 29.4656 33.7443L26.1461 37.0638C24.1314 35.1741 21.4018 33.7043 17.6624 33.7043C10.7334 33.7043 5.31419 39.2885 5.31419 46.2174C5.31419 53.1464 10.7334 58.7306 17.6624 58.7306C22.1567 58.7306 24.7163 56.9259 26.3561 55.2861C27.6859 53.9563 28.5607 52.0566 28.9057 49.462L17.6624 49.467Z" fill="#1A1E22"/>
</g>
<defs>
<clipPath id="clip0_2185_1050">
<rect width="274" height="75" fill="white"/>
</clipPath>
</defs>
</svg>
