<svg width="240" height="48" viewBox="0 0 240 48" fill="none" xmlns="http://www.w3.org/2000/svg">
<path d="M138.438 27.2428H143.697V31.7851H138.438V40.5502C138.438 41.453 138.69 42.1306 139.195 42.5821C139.7 43.0334 140.483 43.2591 141.546 43.2591C141.944 43.2591 142.315 43.2186 142.66 43.139C143.006 43.0593 143.351 42.9663 143.697 42.8601V47.4024C143.351 47.5883 142.86 47.734 142.223 47.8402C141.612 47.9464 140.921 48 140.151 48C137.548 48 135.609 47.3761 134.334 46.1279C133.086 44.853 132.462 42.927 132.462 40.3507V31.7851H128.677V27.2428H132.462V22.5338H138.438V27.2428Z" fill="#1A1E22"/>
<path d="M196.196 27.2428H201.639V31.7851H196.259L196.38 40.5502C196.38 41.453 196.633 42.1306 197.137 42.5821C197.642 43.0335 198.426 43.2591 199.488 43.2591C199.886 43.2591 200.259 43.2187 200.604 43.139C200.949 43.0594 201.294 42.9663 201.639 42.8601V47.4024C201.294 47.5883 200.802 47.734 200.165 47.8402C199.554 47.9464 198.864 48 198.093 48C195.491 48 193.551 47.3762 192.276 46.1279C191.028 44.853 190.404 42.927 190.404 40.3507V31.7851H186.619V27.2428H190.404V22.5338H196.131L196.196 27.2428Z" fill="#1A1E22"/>
<path d="M70.8361 26.8447C72.6157 26.8447 74.21 27.1763 75.6177 27.8403C77.0519 28.4778 78.2207 29.3675 79.1237 30.5096C80.0533 31.6516 80.43 32.2301 80.6956 33.7706L75.0763 34.2819C74.7842 33.2994 74.316 32.8078 73.546 32.3033C72.8024 31.7987 71.9257 31.5459 70.9165 31.5459C69.9604 31.5459 69.1232 31.7845 68.4061 32.2626C67.7157 32.7406 67.1848 33.4182 66.8129 34.2945C66.4411 35.171 66.2551 36.2073 66.2551 37.4025C66.2551 38.5975 66.4412 39.6331 66.8129 40.5095C67.1847 41.3859 67.7157 42.0634 68.4061 42.5414C69.1233 43.0195 69.9604 43.2591 70.9165 43.2591C71.9257 43.2591 72.8024 43.0063 73.546 42.5017C74.3162 41.9971 75.2956 41.3933 75.5877 40.4107L80.6956 40.9221C80.4301 42.4622 80.053 43.1527 79.1237 44.2945C78.2207 45.4365 77.0519 46.3404 75.6177 47.0044C74.21 47.6418 72.6157 47.9603 70.8361 47.9603C68.7114 47.9602 66.8388 47.5083 65.2187 46.6053C63.5987 45.7023 62.3236 44.4536 61.3941 42.8601C60.4912 41.2666 60.0401 39.4474 60.0401 37.4025C60.0401 35.3573 60.491 33.5376 61.3941 31.9439C62.3236 30.3505 63.5988 29.1027 65.2187 28.1996C66.8388 27.2966 68.7114 26.8447 70.8361 26.8447Z" fill="#1A1E22"/>
<path fill-rule="evenodd" clip-rule="evenodd" d="M93.1314 26.8447C95.3888 26.8447 97.3545 27.2825 99.0277 28.159C100.728 29.0355 102.042 30.2578 102.972 31.8248C103.901 33.3919 104.366 35.2248 104.366 37.3231C104.366 39.4212 103.888 41.2807 102.932 42.9008C102.002 44.4941 100.688 45.7421 98.988 46.645C97.3148 47.5215 95.3623 47.9602 93.1314 47.9603C90.9003 47.9603 88.934 47.5215 87.2341 46.645C85.5611 45.7421 84.2464 44.4941 83.2903 42.9008C82.3607 41.2807 81.8957 39.4212 81.8956 37.3231C81.8956 35.2248 82.3607 33.3919 83.2903 31.8248C84.2464 30.2578 85.5609 29.0355 87.2341 28.159C88.934 27.2825 90.9003 26.8447 93.1314 26.8447ZM93.1314 31.5459C91.7237 31.5459 90.5277 32.0504 89.545 33.0597C88.5889 34.0689 88.1107 35.4766 88.1106 37.2824C88.1106 38.5306 88.3371 39.6065 88.7886 40.5095C89.2401 41.386 89.8376 42.0633 90.5813 42.5414C91.3515 43.0195 92.2018 43.2591 93.1314 43.2591C94.0608 43.259 94.8972 43.0194 95.6408 42.5414C96.411 42.0634 97.0217 41.3859 97.4732 40.5095C97.9247 39.6065 98.1512 38.5306 98.1512 37.2824C98.1511 35.45 97.6597 34.0423 96.6771 33.0597C95.721 32.0505 94.5389 31.546 93.1314 31.5459Z" fill="#1A1E22"/>
<path fill-rule="evenodd" clip-rule="evenodd" d="M155.542 26.8447C157.64 26.8447 159.46 27.2693 161 28.1193C162.541 28.9692 163.736 30.1512 164.586 31.665C165.436 33.1789 165.86 34.9593 165.86 37.0044C165.86 37.4292 165.847 37.8279 165.82 38.1996C165.794 38.5447 165.754 38.8766 165.701 39.1952H150.63C150.806 40.4449 151.194 41.4277 151.796 42.1434C152.673 43.1527 153.975 43.6572 155.701 43.6572C156.657 43.6571 157.481 43.4983 158.171 43.1797C158.862 42.861 159.379 42.3424 159.725 41.6252H165.342C164.678 43.5906 163.536 45.1446 161.916 46.2867C160.323 47.4022 158.264 47.9602 155.741 47.9603C153.484 47.9603 151.518 47.5215 149.845 46.645C148.172 45.742 146.869 44.4943 145.94 42.9008C145.037 41.3072 144.586 39.4742 144.586 37.4025C144.586 35.3042 145.037 33.4713 145.94 31.9042C146.869 30.3108 148.158 29.0761 149.804 28.1996C151.451 27.2966 153.364 26.8447 155.542 26.8447ZM155.462 31.1478C153.895 31.1478 152.673 31.6786 151.796 32.741C151.282 33.3835 150.925 34.2205 150.722 35.2514H159.816C159.713 33.9663 159.326 32.9968 158.65 32.343C157.879 31.5462 156.817 31.1479 155.462 31.1478Z" fill="#1A1E22"/>
<path d="M176.622 26.8447C179.305 26.8447 181.443 27.3887 183.037 28.4776C184.63 29.54 185.507 31.0282 185.666 32.9405H180.328C180.222 32.25 179.85 31.7314 179.212 31.3861C178.575 31.0143 177.672 30.8282 176.503 30.8282C175.441 30.8282 174.644 30.9881 174.113 31.3066C173.608 31.5987 173.356 32.0237 173.355 32.5812C173.355 33.0592 173.568 33.4445 173.993 33.7367C174.418 34.0022 175.122 34.2419 176.104 34.4543L179.77 35.2107C181.815 35.6357 183.356 36.4334 184.392 37.602C185.454 38.7439 185.985 40.0982 185.985 41.6649C185.985 43.6569 185.201 45.2109 183.634 46.3264C182.094 47.4153 179.903 47.9602 177.061 47.9603C174.086 47.9603 171.722 47.3628 169.969 46.1676C168.216 44.9724 167.26 43.3253 167.101 41.2272H172.439C172.572 42.13 173.023 42.8208 173.793 43.2988C174.59 43.7503 175.68 43.9758 177.061 43.9758C178.309 43.9758 179.212 43.8038 179.77 43.4586C180.354 43.0868 180.647 42.5682 180.647 41.9042C180.646 41.3996 180.474 41.0143 180.128 40.7487C179.81 40.4566 179.212 40.2179 178.336 40.032L175.069 39.355C172.652 38.8504 170.872 38.093 169.73 37.0838C168.588 36.048 168.017 34.7196 168.017 33.0994C168.017 31.1342 168.774 29.6072 170.287 28.5183C171.801 27.4028 173.913 26.8447 176.622 26.8447Z" fill="#1A1E22"/>
<path fill-rule="evenodd" clip-rule="evenodd" d="M228.723 26.8447C231.644 26.8447 233.876 27.4958 235.416 28.7972C236.956 30.0987 237.727 31.9712 237.727 34.4146V43.3782C237.727 44.0422 237.766 44.7197 237.846 45.4102C237.952 46.0742 238.112 46.792 238.325 47.5622H232.348C232.188 46.9779 232.069 46.3531 231.989 45.6891C231.955 45.2524 231.933 44.7698 231.921 44.2412C231.355 45.3337 230.595 46.1885 229.639 46.8048C228.444 47.575 226.983 47.9603 225.256 47.9603C223.238 47.9602 221.631 47.4556 220.436 46.4465C219.241 45.4107 218.643 44.0426 218.643 42.3429C218.643 40.4571 219.347 38.9427 220.755 37.8006C222.189 36.632 224.181 35.8756 226.73 35.5303L231.75 34.8224V33.7773C231.75 32.9541 231.472 32.316 230.914 31.8645C230.383 31.3864 229.586 31.1478 228.523 31.1478C227.514 31.1479 226.704 31.3198 226.093 31.665C225.509 32.0103 225.124 32.5158 224.938 33.1798H219.241C219.506 31.3472 220.449 29.8326 222.069 28.6374C223.689 27.4422 225.907 26.8447 228.723 26.8447ZM227.727 38.9163C226.665 39.0756 225.881 39.3679 225.376 39.7928C224.872 40.2177 224.619 40.8021 224.619 41.5458C224.619 42.2098 224.859 42.7143 225.337 43.0596C225.815 43.4048 226.452 43.5777 227.249 43.5778C228.497 43.5778 229.56 43.246 230.436 42.5821C231.312 41.8915 231.75 41.0939 231.75 40.1908V38.2993L227.727 38.9163Z" fill="#1A1E22"/>
<path d="M120.283 26.8447C122.54 26.8447 124.266 27.482 125.461 28.7565C126.657 30.0049 127.255 31.6922 127.255 33.817V47.5622H121.278V34.9725C121.278 33.8569 120.986 33.0199 120.402 32.4621C119.844 31.9044 119.021 31.6253 117.932 31.6253C117.003 31.6253 116.165 31.8376 115.422 32.2626C114.705 32.6875 114.133 33.2719 113.708 34.0156C113.31 34.7592 113.111 35.6359 113.111 36.6451V47.5622H107.135V27.2428H112.992V30.9541C113.625 29.8326 114.462 28.9146 115.502 28.1996C116.804 27.2966 118.397 26.8447 120.283 26.8447Z" fill="#1A1E22"/>
<path d="M216.696 26.8447C217.2 26.8447 217.572 26.8974 217.811 27.0035V32.5812C217.679 32.5282 217.492 32.5018 217.254 32.5018C217.015 32.4753 216.722 32.4621 216.377 32.4621C214.465 32.4621 213.057 32.8079 212.154 33.4984C211.251 34.1624 210.799 35.3173 210.799 36.9638V47.5622H204.824V27.2428H210.68V30.9696C211.155 29.8087 211.806 28.8855 212.633 28.1996C213.722 27.2967 215.076 26.8448 216.696 26.8447Z" fill="#1A1E22"/>
<path d="M37.8582 47.8292C37.8582 39.7719 45.7362 34.971 51.0902 34.971C45.7362 34.971 37.7053 29.5995 37.7053 21.5421C37.7053 29.5995 29.6742 34.971 24.3202 34.971C29.6742 34.971 37.8582 39.7719 37.8582 47.8292Z" fill="#1A1E22"/>
<path d="M41.461 0H25.5407L0 48H15.7145L41.461 0Z" fill="#FE299B"/>
<path d="M64 0H50.1797L39.9424 18.9663H53.7627L64 0Z" fill="#FE299B"/>
</svg>
