<svg width="233" height="48" viewBox="0 0 233 48" fill="none" xmlns="http://www.w3.org/2000/svg">
<path d="M226.453 46.5C226.297 45.928 226.18 45.317 226.102 44.667C226.05 44.017 226.024 43.263 226.024 42.405H225.868V33.006C225.868 32.2 225.595 31.576 225.049 31.134C224.529 30.666 223.749 30.432 222.709 30.432C221.721 30.432 220.928 30.601 220.33 30.939C219.758 31.277 219.381 31.771 219.199 32.421H213.622C213.882 30.627 214.805 29.145 216.391 27.975C217.977 26.805 220.148 26.22 222.904 26.22C225.764 26.22 227.948 26.857 229.456 28.131C230.964 29.405 231.718 31.238 231.718 33.63V42.405C231.718 43.055 231.757 43.718 231.835 44.394C231.939 45.044 232.095 45.746 232.303 46.5H226.453ZM219.511 46.89C217.535 46.89 215.962 46.396 214.792 45.408C213.622 44.394 213.037 43.055 213.037 41.391C213.037 39.545 213.726 38.063 215.104 36.945C216.508 35.801 218.458 35.06 220.954 34.722L226.765 33.903V37.296L221.929 38.037C220.889 38.193 220.122 38.479 219.628 38.895C219.134 39.311 218.887 39.883 218.887 40.611C218.887 41.261 219.121 41.755 219.589 42.093C220.057 42.431 220.681 42.6 221.461 42.6C222.683 42.6 223.723 42.275 224.581 41.625C225.439 40.949 225.868 40.169 225.868 39.285L226.414 42.405C225.842 43.887 224.971 45.005 223.801 45.759C222.631 46.513 221.201 46.89 219.511 46.89Z" fill="#1A1E22"/>
<path d="M199.509 46.5V26.61H205.242V31.29H205.359V46.5H199.509ZM205.359 36.126L204.852 31.407C205.32 29.717 206.087 28.43 207.153 27.546C208.219 26.662 209.545 26.22 211.131 26.22C211.625 26.22 211.989 26.272 212.223 26.376V31.836C212.093 31.784 211.911 31.758 211.677 31.758C211.443 31.732 211.157 31.719 210.819 31.719C208.947 31.719 207.569 32.057 206.685 32.733C205.801 33.383 205.359 34.514 205.359 36.126Z" fill="#1A1E22"/>
<path d="M192.921 46.929C190.373 46.929 188.475 46.318 187.227 45.096C186.005 43.848 185.394 41.963 185.394 39.441V22H191L191.244 39.636C191.244 40.52 191.491 41.183 191.985 41.625C192.479 42.067 193.246 42.288 194.286 42.288C194.676 42.288 195.04 42.249 195.378 42.171C195.716 42.093 196.054 42.002 196.392 41.898V46.344C196.054 46.526 195.573 46.669 194.949 46.773C194.351 46.877 193.675 46.929 192.921 46.929ZM181.689 31.056V26.61H196.392V31.056H181.689Z" fill="#1A1E22"/>
<path d="M172.332 46.89C169.42 46.89 167.106 46.305 165.39 45.135C163.674 43.965 162.738 42.353 162.582 40.299H167.808C167.938 41.183 168.38 41.859 169.134 42.327C169.914 42.769 170.98 42.99 172.332 42.99C173.554 42.99 174.438 42.821 174.984 42.483C175.556 42.119 175.842 41.612 175.842 40.962C175.842 40.468 175.673 40.091 175.335 39.831C175.023 39.545 174.438 39.311 173.58 39.129L170.382 38.466C168.016 37.972 166.274 37.231 165.156 36.243C164.038 35.229 163.479 33.929 163.479 32.343C163.479 30.419 164.22 28.924 165.702 27.858C167.184 26.766 169.251 26.22 171.903 26.22C174.529 26.22 176.622 26.753 178.182 27.819C179.742 28.859 180.6 30.315 180.756 32.187H175.53C175.426 31.511 175.062 31.004 174.438 30.666C173.814 30.302 172.93 30.12 171.786 30.12C170.746 30.12 169.966 30.276 169.446 30.588C168.952 30.874 168.705 31.29 168.705 31.836C168.705 32.304 168.913 32.681 169.329 32.967C169.745 33.227 170.434 33.461 171.396 33.669L174.984 34.41C176.986 34.826 178.494 35.606 179.508 36.75C180.548 37.868 181.068 39.194 181.068 40.728C181.068 42.678 180.301 44.199 178.767 45.291C177.259 46.357 175.114 46.89 172.332 46.89Z" fill="#1A1E22"/>
<path d="M151.462 46.89C149.252 46.89 147.328 46.461 145.69 45.603C144.052 44.719 142.778 43.497 141.868 41.937C140.984 40.377 140.542 38.583 140.542 36.555C140.542 34.501 140.984 32.707 141.868 31.173C142.778 29.613 144.039 28.404 145.651 27.546C147.263 26.662 149.135 26.22 151.267 26.22C153.321 26.22 155.102 26.636 156.61 27.468C158.118 28.3 159.288 29.457 160.12 30.939C160.952 32.421 161.368 34.163 161.368 36.165C161.368 36.581 161.355 36.971 161.329 37.335C161.303 37.673 161.264 37.998 161.212 38.31H143.974V34.449H156.493L155.479 35.151C155.479 33.539 155.089 32.356 154.309 31.602C153.555 30.822 152.515 30.432 151.189 30.432C149.655 30.432 148.459 30.952 147.601 31.992C146.769 33.032 146.353 34.592 146.353 36.672C146.353 38.7 146.769 40.208 147.601 41.196C148.459 42.184 149.733 42.678 151.423 42.678C152.359 42.678 153.165 42.522 153.841 42.21C154.517 41.898 155.024 41.391 155.362 40.689H160.861C160.211 42.613 159.093 44.134 157.507 45.252C155.947 46.344 153.932 46.89 151.462 46.89Z" fill="#1A1E22"/>
<path d="M136.201 46.929C133.653 46.929 131.755 46.318 130.507 45.096C129.285 43.848 128.674 41.963 128.674 39.441V22H134.524V39.636C134.524 40.52 134.771 41.183 135.265 41.625C135.759 42.067 136.526 42.288 137.566 42.288C137.956 42.288 138.32 42.249 138.658 42.171C138.996 42.093 139.334 42.002 139.672 41.898V46.344C139.334 46.526 138.853 46.669 138.229 46.773C137.631 46.877 136.955 46.929 136.201 46.929ZM124.969 31.056V26.61H139.672V31.056H124.969Z" fill="#1A1E22"/>
<path d="M103.882 46.5V26.61H109.615V31.29H109.732V46.5H103.882ZM117.727 46.5V34.176C117.727 33.084 117.441 32.265 116.869 31.719C116.323 31.173 115.517 30.9 114.451 30.9C113.541 30.9 112.722 31.108 111.994 31.524C111.292 31.94 110.733 32.512 110.317 33.24C109.927 33.968 109.732 34.826 109.732 35.814L109.225 31.017C109.875 29.561 110.824 28.404 112.072 27.546C113.346 26.662 114.906 26.22 116.752 26.22C118.962 26.22 120.652 26.844 121.822 28.092C122.992 29.314 123.577 30.965 123.577 33.045V46.5H117.727Z" fill="#1A1E22"/>
<path d="M90.1733 46.89C87.9893 46.89 86.0653 46.461 84.4013 45.603C82.7633 44.719 81.4763 43.497 80.5403 41.937C79.6303 40.351 79.1753 38.531 79.1753 36.477C79.1753 34.423 79.6303 32.629 80.5403 31.095C81.4763 29.561 82.7633 28.365 84.4013 27.507C86.0653 26.649 87.9893 26.22 90.1733 26.22C92.3833 26.22 94.3073 26.649 95.9453 27.507C97.6093 28.365 98.8963 29.561 99.8063 31.095C100.716 32.629 101.171 34.423 101.171 36.477C101.171 38.531 100.703 40.351 99.7673 41.937C98.8573 43.497 97.5703 44.719 95.9063 45.603C94.2683 46.461 92.3573 46.89 90.1733 46.89ZM90.1733 42.288C91.0833 42.288 91.9023 42.054 92.6303 41.586C93.3843 41.118 93.9823 40.455 94.4243 39.597C94.8663 38.713 95.0873 37.66 95.0873 36.438C95.0873 34.644 94.6063 33.266 93.6443 32.304C92.7083 31.316 91.5513 30.822 90.1733 30.822C88.7953 30.822 87.6253 31.316 86.6633 32.304C85.7273 33.292 85.2593 34.67 85.2593 36.438C85.2593 37.66 85.4803 38.713 85.9223 39.597C86.3643 40.455 86.9493 41.118 87.6773 41.586C88.4313 42.054 89.2633 42.288 90.1733 42.288Z" fill="#1A1E22"/>
<path d="M68.3493 46.89C66.2693 46.89 64.4363 46.448 62.8503 45.564C61.2643 44.68 60.0163 43.458 59.1063 41.898C58.2223 40.338 57.7803 38.557 57.7803 36.555C57.7803 34.553 58.2223 32.772 59.1063 31.212C60.0163 29.652 61.2643 28.43 62.8503 27.546C64.4363 26.662 66.2693 26.22 68.3493 26.22C70.0913 26.22 71.6513 26.545 73.0293 27.195C74.4333 27.819 75.5773 28.69 76.4613 29.808C77.3713 30.926 77.74 31.492 78 33L72.5 33.5C72.214 32.538 71.7553 32.057 71.0013 31.563C70.2733 31.069 69.4153 30.822 68.4273 30.822C67.4913 30.822 66.6723 31.056 65.9703 31.524C65.2943 31.992 64.7743 32.655 64.4103 33.513C64.0463 34.371 63.8643 35.385 63.8643 36.555C63.8643 37.725 64.0463 38.739 64.4103 39.597C64.7743 40.455 65.2943 41.118 65.9703 41.586C66.6723 42.054 67.4913 42.288 68.4273 42.288C69.4153 42.288 70.2733 42.041 71.0013 41.547C71.7553 41.053 72.714 40.462 73 39.5L78 40C77.74 41.508 77.3713 42.184 76.4613 43.302C75.5773 44.42 74.4333 45.304 73.0293 45.954C71.6513 46.578 70.0913 46.89 68.3493 46.89Z" fill="#1A1E22"/>
<path d="M40.5 0H24.9487L0 46.8199H15.3503L40.5 0Z" fill="#FE299B"/>
<path d="M61.5 0H48L38 18.5H51.5L61.5 0Z" fill="#FE299B"/>
<path d="M34.2823 47.9999C34.2823 40.1126 42.1438 34.8543 47.3848 34.8543C42.1438 34.8543 34.2823 29.5961 34.2823 21.7087C34.2823 29.5961 26.4207 34.8543 21.1797 34.8543C26.4207 34.8543 34.2823 40.1126 34.2823 47.9999Z" fill="#1A1E22"/>
</svg>
