<svg width="1000" height="500" viewBox="0 0 1000 500" fill="none" xmlns="http://www.w3.org/2000/svg">
<path d="M474.914 124.597L476.4 123.109L434.463 81.1457L432.977 82.6329L474.914 124.597Z" fill="url(#paint0_linear_2201_32)"/>
<path d="M526.966 172.468L525.479 173.956L567.416 215.919L568.903 214.432L526.966 172.468Z" fill="url(#paint1_linear_2201_32)"/>
<path d="M500.945 52.9183C448.17 52.9183 405.397 95.7289 405.397 148.527C405.397 201.325 448.18 244.136 500.945 244.136C553.709 244.136 596.492 201.325 596.492 148.527C596.492 95.7289 553.709 52.9183 500.945 52.9183ZM500.945 242.039C449.336 242.039 407.502 200.179 407.502 148.537C407.502 96.896 449.336 55.0356 500.945 55.0356C552.553 55.0356 594.387 96.896 594.387 148.537C594.387 200.179 552.553 242.039 500.945 242.039Z" fill="url(#paint2_linear_2201_32)"/>
<path d="M567.096 250.446H569.192V46.6285H567.096V250.446Z" fill="url(#paint3_linear_2201_32)"/>
<path d="M432.697 250.446H434.793V46.6285H432.697V250.446Z" fill="url(#paint4_linear_2201_32)"/>
<path d="M399.1 216.828H602.788V214.731H399.1V216.828Z" fill="url(#paint5_linear_2201_32)"/>
<path d="M499.892 284.065H501.988V214.576H499.892V284.065Z" fill="url(#paint6_linear_2201_32)"/>
<path d="M499.892 82.4885H501.988V13H499.892V82.4885Z" fill="url(#paint7_linear_2201_32)"/>
<path d="M399.1 82.344H602.788V80.2473H399.1V82.344Z" fill="url(#paint8_linear_2201_32)"/>
<path d="M365.503 149.591H434.803V147.495H365.503V149.591Z" fill="url(#paint9_linear_2201_32)"/>
<path d="M567.097 149.591H636.386V147.494H567.097V149.591Z" fill="url(#paint10_linear_2201_32)"/>
<path d="M594.5 148.207C589.711 147.938 585.273 147.628 581.908 147.184V147.153C577.573 146.513 573.341 145.583 569.202 144.365C569.202 144.365 568.624 144.189 568.077 144.024C567.581 143.869 567.106 143.724 567.106 143.724C564.443 142.867 561.822 141.896 559.241 140.802C547.619 135.699 537.504 128.852 528.906 120.248C520.308 111.645 513.465 101.523 508.366 89.8936C507.272 87.3115 506.291 84.6882 505.445 82.0235L504.805 79.9268C503.587 75.7852 502.658 71.5403 502.018 67.2128H501.904C501.45 63.8148 501.13 59.3323 500.862 54.509C500.593 59.2084 500.253 63.5875 499.778 67.3573H499.85C499.19 71.6332 498.25 75.8368 497.012 79.9372L496.351 82.0338C495.474 84.6985 494.462 87.3219 493.337 89.9039C488.486 101.337 481.86 111.314 473.468 119.825L471.982 121.302C463.611 129.42 453.857 135.916 442.709 140.812C440.129 141.907 437.507 142.888 434.844 143.735L432.749 144.375C428.61 145.594 424.368 146.523 420.043 147.164C416.647 147.628 412.095 147.949 407.213 148.217C411.879 148.486 416.224 148.827 419.971 149.291C424.884 150.035 429.673 151.161 434.349 152.679C437.177 153.598 439.964 154.662 442.709 155.86C454.332 160.797 464.447 167.572 473.045 176.176C481.643 184.779 488.414 194.901 493.348 206.53C494.483 209.113 495.484 211.736 496.362 214.401L497.022 216.497C498.271 220.608 499.21 224.811 499.871 229.118H499.799C500.263 232.878 500.604 237.257 500.882 241.956C501.151 237.112 501.46 232.609 501.925 229.232H502.038C502.678 224.884 503.607 220.649 504.825 216.508L505.465 214.411C506.322 211.746 507.292 209.123 508.386 206.541C513.279 195.386 519.771 185.616 527.884 177.25L529.36 175.752C537.865 167.355 547.836 160.725 559.262 155.87C561.842 154.734 564.464 153.732 567.127 152.855L569.222 152.183C573.434 150.903 577.748 149.932 582.155 149.271V149.25C585.82 148.806 590.021 148.486 594.531 148.217L594.5 148.207ZM522.95 170.557C513.681 179.832 506.301 190.708 500.821 203.091C495.495 190.708 488.197 179.832 478.928 170.557C469.659 161.282 458.791 153.98 446.415 148.651C458.791 143.167 469.659 135.792 478.928 126.518C488.197 117.243 495.495 106.367 500.821 93.9836C506.301 106.367 513.671 117.243 522.95 126.518C532.219 135.792 543.088 143.177 555.464 148.651C543.088 153.98 532.219 161.282 522.95 170.557Z" fill="url(#paint11_linear_2201_32)"/>
<path d="M594.5 148.207C589.711 147.938 585.273 147.628 581.908 147.184V147.153C577.573 146.513 573.341 145.583 569.202 144.365C569.202 144.365 568.624 144.189 568.077 144.024C567.581 143.869 567.106 143.724 567.106 143.724C564.443 142.867 561.822 141.896 559.241 140.802C547.619 135.699 537.504 128.852 528.906 120.248C520.308 111.645 513.465 101.523 508.366 89.8936C507.272 87.3115 506.291 84.6882 505.445 82.0235L504.805 79.9268C503.587 75.7852 502.658 71.5403 502.018 67.2128H501.904C501.45 63.8148 501.13 59.3323 500.862 54.509C500.593 59.2084 500.253 63.5875 499.778 67.3573H499.85C499.19 71.6332 498.25 75.8368 497.012 79.9372L496.351 82.0338C495.474 84.6985 494.462 87.3219 493.337 89.9039C488.486 101.337 481.86 111.314 473.468 119.825L471.982 121.302C463.611 129.42 453.857 135.916 442.709 140.812C440.129 141.907 437.507 142.888 434.844 143.735L432.749 144.375C428.61 145.594 424.368 146.523 420.043 147.164C416.647 147.628 412.095 147.949 407.213 148.217C411.879 148.486 416.224 148.827 419.971 149.291C424.884 150.035 429.673 151.161 434.349 152.679C437.177 153.598 439.964 154.662 442.709 155.86C454.332 160.797 464.447 167.572 473.045 176.176C481.643 184.779 488.414 194.901 493.348 206.53C494.483 209.113 495.484 211.736 496.362 214.401L497.022 216.497C498.271 220.608 499.21 224.811 499.871 229.118H499.799C500.263 232.878 500.604 237.257 500.882 241.956C501.151 237.112 501.46 232.609 501.925 229.232H502.038C502.678 224.884 503.607 220.649 504.825 216.508L505.465 214.411C506.322 211.746 507.292 209.123 508.386 206.541C513.279 195.386 519.771 185.616 527.884 177.25L529.36 175.752C537.865 167.355 547.836 160.725 559.262 155.87C561.842 154.734 564.464 153.732 567.127 152.855L569.222 152.183C573.434 150.903 577.748 149.932 582.155 149.271V149.25C585.82 148.806 590.021 148.486 594.531 148.217L594.5 148.207ZM522.95 170.557C513.681 179.832 506.301 190.708 500.821 203.091C495.495 190.708 488.197 179.832 478.928 170.557C469.659 161.282 458.791 153.98 446.415 148.651C458.791 143.167 469.659 135.792 478.928 126.518C488.197 117.243 495.495 106.367 500.821 93.9836C506.301 106.367 513.671 117.243 522.95 126.518C532.219 135.792 543.088 143.177 555.464 148.651C543.088 153.98 532.219 161.282 522.95 170.557Z" fill="url(#paint12_linear_2201_32)"/>
<path d="M500.945 52.9183C448.17 52.9183 405.397 95.7289 405.397 148.527C405.397 201.325 448.18 244.136 500.945 244.136C553.709 244.136 596.492 201.325 596.492 148.527C596.492 95.7289 553.709 52.9183 500.945 52.9183ZM500.945 242.039C449.336 242.039 407.502 200.179 407.502 148.537C407.502 96.896 449.336 55.0356 500.945 55.0356C552.553 55.0356 594.387 96.896 594.387 148.537C594.387 200.179 552.553 242.039 500.945 242.039Z" fill="url(#paint13_linear_2201_32)"/>
<path d="M221.722 480.776C211.08 474.641 202.637 466.193 196.382 455.421C190.127 444.659 187 432.76 187 419.736C187 406.713 190.127 394.825 196.382 384.052C202.637 373.28 211.08 364.832 221.722 358.697C232.353 352.562 243.996 349.494 256.64 349.494C266.529 349.494 275.818 351.25 284.519 354.751C293.22 358.263 300.384 363.2 306.009 369.593L294.562 381.047C290.31 375.79 284.86 371.751 278.233 368.932C271.597 366.112 264.464 364.708 256.837 364.708C247.33 364.708 238.474 366.99 230.279 371.566C222.083 376.141 215.508 382.586 210.564 390.91C205.62 399.235 203.153 408.851 203.153 419.736C203.153 430.622 205.62 440.248 210.564 448.573C215.508 456.898 222.104 463.353 230.372 467.918C238.629 472.493 247.454 474.776 256.837 474.776C266.219 474.776 273.382 473.371 279.451 470.551C285.52 467.732 290.743 464.014 295.13 459.376C298.381 455.875 301.013 451.651 303.016 446.704C305.018 441.756 306.267 436.282 306.773 430.271H257.033V415.43H321.605C322.235 418.941 322.544 422.195 322.544 425.2C322.544 433.463 321.233 441.508 318.601 449.337C315.969 457.166 311.779 464.024 306.019 469.901C293.633 483.307 277.17 490 256.651 490C244.007 490 232.374 486.932 221.732 480.797L221.722 480.776Z" fill="#1A1E22"/>
<path d="M350.114 483.399C342.858 479.02 337.191 472.978 333.124 465.273C329.058 457.568 327.024 448.903 327.024 439.256C327.024 429.61 328.934 421.481 332.753 413.715C336.572 405.948 341.98 399.751 348.989 395.124C355.997 390.497 364.131 388.173 373.389 388.173C382.648 388.173 390.905 390.269 397.79 394.463C404.674 398.656 409.959 404.45 413.654 411.835C417.349 419.22 419.197 427.678 419.197 437.191C419.197 439.07 419.011 440.702 418.629 442.076H342.982C343.353 449.337 345.108 455.482 348.235 460.481C351.363 465.49 355.337 469.25 360.157 471.749C364.977 474.259 370.014 475.509 375.268 475.509C387.53 475.509 396.974 469.756 403.611 458.229L417.122 464.808C412.994 472.575 407.389 478.71 400.318 483.213C393.248 487.716 384.702 489.978 374.7 489.978C365.565 489.978 357.37 487.789 350.114 483.399ZM402.3 428.938C402.053 424.931 400.917 420.924 398.925 416.916C396.923 412.909 393.764 409.532 389.45 406.774C385.135 404.016 379.716 402.643 373.214 402.643C365.71 402.643 359.352 405.049 354.16 409.872C348.968 414.696 345.552 421.048 343.931 428.938H402.311H402.3Z" fill="#1A1E22"/>
<path d="M427.825 391.178H443.029V405.266H443.783C446.538 400.381 450.667 396.311 456.169 393.058C461.67 389.805 467.491 388.173 473.623 388.173C480.631 388.173 486.731 389.867 491.923 393.244C497.115 396.621 500.841 401.135 503.091 406.764C506.466 401.124 510.946 396.621 516.509 393.244C522.073 389.867 528.555 388.173 535.935 388.173C546.948 388.173 555.236 391.519 560.81 398.222C566.373 404.925 569.16 414.035 569.16 425.551V486.973H553.388V427.999C553.388 419.106 551.572 412.661 547.949 408.654C544.316 404.646 538.938 402.643 531.806 402.643C527.048 402.643 522.733 404.027 518.852 406.774C514.971 409.532 511.937 413.219 509.748 417.856C507.56 422.494 506.466 427.503 506.466 432.884V486.983H490.509V428.195C490.509 419.178 488.692 412.671 485.069 408.664C481.436 404.657 476.12 402.653 469.112 402.653C464.354 402.653 460.039 404.058 456.158 406.877C452.277 409.697 449.243 413.456 447.055 418.145C444.866 422.845 443.772 427.885 443.772 433.266V486.983H427.815V391.189L427.825 391.178Z" fill="#1A1E22"/>
<path d="M582.124 391.178H597.328V405.266H598.081C600.837 400.381 604.966 396.311 610.467 393.058C615.969 389.805 621.79 388.173 627.921 388.173C634.93 388.173 641.03 389.867 646.221 393.244C651.413 396.621 655.139 401.135 657.39 406.764C660.765 401.124 665.244 396.621 670.808 393.244C676.371 389.867 682.853 388.173 690.233 388.173C701.246 388.173 709.535 391.519 715.108 398.222C720.672 404.925 723.459 414.035 723.459 425.551V486.973H707.687V427.999C707.687 419.106 705.871 412.661 702.248 408.654C698.614 404.646 693.237 402.643 686.104 402.643C681.346 402.643 677.032 404.027 673.151 406.774C669.27 409.532 666.235 413.219 664.047 417.856C661.859 422.494 660.765 427.503 660.765 432.884V486.983H644.807V428.195C644.807 419.178 642.991 412.671 639.368 408.664C635.735 404.657 630.419 402.653 623.411 402.653C618.652 402.653 614.338 404.058 610.457 406.877C606.576 409.697 603.541 413.456 601.353 418.145C599.165 422.845 598.071 427.885 598.071 433.266V486.983H582.114V391.189L582.124 391.178Z" fill="#1A1E22"/>
<path d="M747.313 485.847C741.801 483.09 737.549 479.309 734.545 474.486C731.541 469.663 730.045 464.189 730.045 458.054C730.045 447.912 733.864 439.99 741.491 434.289C749.119 428.587 758.76 425.747 770.402 425.747C776.152 425.747 781.509 426.377 786.453 427.627C791.397 428.877 795.185 430.323 797.806 431.944V426.119C797.806 418.982 795.298 413.25 790.303 408.933C785.297 404.616 778.969 402.457 771.342 402.457C765.954 402.457 761.02 403.614 756.509 405.938C752.009 408.261 748.438 411.474 745.806 415.615L733.791 406.599C737.549 400.846 742.709 396.332 749.274 393.079C755.839 389.826 763.126 388.194 771.146 388.194C784.161 388.194 794.39 391.602 801.832 398.429C809.274 405.256 813 414.551 813 426.326V486.994H797.796V473.278H797.043C794.287 477.915 790.158 481.861 784.657 485.114C779.145 488.367 772.952 489.999 766.078 489.999C759.203 489.999 752.814 488.615 747.302 485.868L747.313 485.847ZM782.603 471.76C787.227 469.002 790.922 465.315 793.678 460.677C796.423 456.05 797.806 450.979 797.806 445.464C794.803 443.46 791.108 441.839 786.731 440.579C782.345 439.329 777.72 438.699 772.838 438.699C764.075 438.699 757.48 440.517 753.031 444.142C748.582 447.777 746.363 452.466 746.363 458.23C746.363 463.487 748.366 467.742 752.37 471.006C756.375 474.259 761.443 475.891 767.574 475.891C772.952 475.891 777.958 474.517 782.592 471.76H782.603Z" fill="#1A1E22"/>
<defs>
<linearGradient id="paint0_linear_2201_32" x1="-775.585" y1="254.731" x2="3127.25" y2="237.937" gradientUnits="userSpaceOnUse">
<stop offset="0.05" stop-color="#1A1E22"/>
<stop offset="0.28" stop-color="#1A1E22"/>
<stop offset="0.5" stop-color="#1A1E22"/>
<stop offset="0.72" stop-color="#1A1E22"/>
<stop offset="0.95" stop-color="#1A1E22"/>
</linearGradient>
<linearGradient id="paint1_linear_2201_32" x1="-2117.01" y1="258.019" x2="1804.87" y2="241.225" gradientUnits="userSpaceOnUse">
<stop offset="0.05" stop-color="#1A1E22"/>
<stop offset="0.28" stop-color="#1A1E22"/>
<stop offset="0.5" stop-color="#1A1E22"/>
<stop offset="0.72" stop-color="#1A1E22"/>
<stop offset="0.95" stop-color="#1A1E22"/>
</linearGradient>
<linearGradient id="paint2_linear_2201_32" x1="55.9099" y1="251.526" x2="944.868" y2="251.526" gradientUnits="userSpaceOnUse">
<stop offset="0.05" stop-color="#1A1E22"/>
<stop offset="0.28" stop-color="#1A1E22"/>
<stop offset="0.5" stop-color="#1A1E22"/>
<stop offset="0.72" stop-color="#1A1E22"/>
<stop offset="0.95" stop-color="#1A1E22"/>
</linearGradient>
<linearGradient id="paint3_linear_2201_32" x1="-59884.3" y1="252.902" x2="12028.2" y2="-25541.5" gradientUnits="userSpaceOnUse">
<stop offset="0.05" stop-color="#1A1E22"/>
<stop offset="0.28" stop-color="#1A1E22"/>
<stop offset="0.5" stop-color="#1A1E22"/>
<stop offset="0.72" stop-color="#1A1E22"/>
<stop offset="0.95" stop-color="#1A1E22"/>
</linearGradient>
<linearGradient id="paint4_linear_2201_32" x1="-20298.3" y1="251.5" x2="61239" y2="251.5" gradientUnits="userSpaceOnUse">
<stop offset="0.05" stop-color="#1A1E22"/>
<stop offset="0.28" stop-color="#1A1E22"/>
<stop offset="0.5" stop-color="#1A1E22"/>
<stop offset="0.72" stop-color="#1A1E22"/>
<stop offset="0.95" stop-color="#1A1E22"/>
</linearGradient>
<linearGradient id="paint5_linear_2201_32" x1="86.6002" y1="351.363" x2="917.374" y2="351.326" gradientUnits="userSpaceOnUse">
<stop offset="0.05" stop-color="#1A1E22"/>
<stop offset="0.28" stop-color="#1A1E22"/>
<stop offset="0.5" stop-color="#1A1E22"/>
<stop offset="0.72" stop-color="#1A1E22"/>
<stop offset="0.95" stop-color="#1A1E22"/>
</linearGradient>
<linearGradient id="paint6_linear_2201_32" x1="-39685.8" y1="254.619" x2="39423.6" y2="-11176.1" gradientUnits="userSpaceOnUse">
<stop offset="0.05" stop-color="#1A1E22"/>
<stop offset="0.28" stop-color="#1A1E22"/>
<stop offset="0.5" stop-color="#1A1E22"/>
<stop offset="0.72" stop-color="#1A1E22"/>
<stop offset="0.95" stop-color="#1A1E22"/>
</linearGradient>
<linearGradient id="paint7_linear_2201_32" x1="-39685.8" y1="254.619" x2="39423.6" y2="-11176.1" gradientUnits="userSpaceOnUse">
<stop offset="0.05" stop-color="#1A1E22"/>
<stop offset="0.28" stop-color="#1A1E22"/>
<stop offset="0.5" stop-color="#1A1E22"/>
<stop offset="0.72" stop-color="#1A1E22"/>
<stop offset="0.95" stop-color="#1A1E22"/>
</linearGradient>
<linearGradient id="paint8_linear_2201_32" x1="86.6002" y1="351.363" x2="917.374" y2="351.326" gradientUnits="userSpaceOnUse">
<stop offset="0.05" stop-color="#1A1E22"/>
<stop offset="0.28" stop-color="#1A1E22"/>
<stop offset="0.5" stop-color="#1A1E22"/>
<stop offset="0.72" stop-color="#1A1E22"/>
<stop offset="0.95" stop-color="#1A1E22"/>
</linearGradient>
<linearGradient id="paint9_linear_2201_32" x1="-714.891" y1="344.316" x2="1730.85" y2="344.042" gradientUnits="userSpaceOnUse">
<stop offset="0.05" stop-color="#1A1E22"/>
<stop offset="0.28" stop-color="#1A1E22"/>
<stop offset="0.5" stop-color="#1A1E22"/>
<stop offset="0.72" stop-color="#1A1E22"/>
<stop offset="0.95" stop-color="#1A1E22"/>
</linearGradient>
<linearGradient id="paint10_linear_2201_32" x1="-1635.89" y1="410.107" x2="820.014" y2="409.829" gradientUnits="userSpaceOnUse">
<stop offset="0.05" stop-color="#1A1E22"/>
<stop offset="0.28" stop-color="#1A1E22"/>
<stop offset="0.5" stop-color="#1A1E22"/>
<stop offset="0.72" stop-color="#1A1E22"/>
<stop offset="0.95" stop-color="#1A1E22"/>
</linearGradient>
<linearGradient id="paint11_linear_2201_32" x1="-57.3221" y1="117.63" x2="770.231" y2="460.022" gradientUnits="userSpaceOnUse">
<stop offset="0.05" stop-color="#1A1E22"/>
<stop offset="0.28" stop-color="#1A1E22"/>
<stop offset="0.5" stop-color="#1A1E22"/>
<stop offset="0.72" stop-color="#1A1E22"/>
<stop offset="0.95" stop-color="#1A1E22"/>
</linearGradient>
<linearGradient id="paint12_linear_2201_32" x1="-104.269" y1="54.316" x2="233.7" y2="244.281" gradientUnits="userSpaceOnUse">
<stop stop-color="#1A1E22"/>
<stop offset="0.25" stop-color="#1A1E22" stop-opacity="0.5"/>
<stop offset="0.5" stop-color="#1A1E22"/>
<stop offset="0.75" stop-color="#1A1E22" stop-opacity="0.5"/>
<stop offset="1" stop-color="#1A1E22" stop-opacity="0"/>
</linearGradient>
<linearGradient id="paint13_linear_2201_32" x1="731.952" y1="253.947" x2="1186.43" y2="262.111" gradientUnits="userSpaceOnUse">
<stop stop-color="#1A1E22"/>
<stop offset="0.25" stop-color="#1A1E22"/>
<stop offset="0.5" stop-color="#1A1E22"/>
<stop offset="0.75" stop-color="#1A1E22"/>
<stop offset="1" stop-color="#1A1E22"/>
</linearGradient>
</defs>
</svg>
