<svg width="1000" height="500" viewBox="0 0 1000 500" fill="none" xmlns="http://www.w3.org/2000/svg">
<path d="M474.914 128.597L476.4 127.109L434.463 85.1457L432.977 86.6329L474.914 128.597Z" fill="url(#paint0_linear_2201_32)"/>
<path d="M526.966 176.468L525.479 177.956L567.416 219.919L568.903 218.432L526.966 176.468Z" fill="url(#paint1_linear_2201_32)"/>
<path d="M500.945 56.9183C448.17 56.9183 405.397 99.7289 405.397 152.527C405.397 205.325 448.18 248.136 500.945 248.136C553.709 248.136 596.492 205.325 596.492 152.527C596.492 99.7289 553.709 56.9183 500.945 56.9183ZM500.945 246.039C449.336 246.039 407.502 204.179 407.502 152.537C407.502 100.896 449.336 59.0356 500.945 59.0356C552.553 59.0356 594.387 100.896 594.387 152.537C594.387 204.179 552.553 246.039 500.945 246.039Z" fill="url(#paint2_linear_2201_32)"/>
<path d="M567.096 254.446H569.192V50.6285H567.096V254.446Z" fill="url(#paint3_linear_2201_32)"/>
<path d="M432.697 254.446H434.793V50.6285H432.697V254.446Z" fill="url(#paint4_linear_2201_32)"/>
<path d="M399.1 220.828H602.788V218.731H399.1V220.828Z" fill="url(#paint5_linear_2201_32)"/>
<path d="M499.892 288.065H501.988V218.576H499.892V288.065Z" fill="url(#paint6_linear_2201_32)"/>
<path d="M499.892 86.4885H501.988V17H499.892V86.4885Z" fill="url(#paint7_linear_2201_32)"/>
<path d="M399.1 86.344H602.788V84.2473H399.1V86.344Z" fill="url(#paint8_linear_2201_32)"/>
<path d="M365.503 153.591H434.803V151.495H365.503V153.591Z" fill="url(#paint9_linear_2201_32)"/>
<path d="M567.097 153.591H636.386V151.494H567.097V153.591Z" fill="url(#paint10_linear_2201_32)"/>
<path d="M594.5 152.207C589.711 151.938 585.273 151.628 581.908 151.184V151.153C577.573 150.513 573.341 149.583 569.202 148.365C569.202 148.365 568.624 148.189 568.077 148.024C567.581 147.869 567.106 147.724 567.106 147.724C564.443 146.867 561.822 145.896 559.241 144.802C547.619 139.699 537.504 132.852 528.906 124.248C520.308 115.645 513.465 105.523 508.366 93.8936C507.272 91.3115 506.291 88.6882 505.445 86.0235L504.805 83.9268C503.587 79.7852 502.658 75.5403 502.018 71.2128H501.904C501.45 67.8148 501.13 63.3323 500.862 58.509C500.593 63.2084 500.253 67.5875 499.778 71.3573H499.85C499.19 75.6332 498.25 79.8368 497.012 83.9372L496.351 86.0338C495.474 88.6985 494.462 91.3219 493.337 93.9039C488.486 105.337 481.86 115.314 473.468 123.825L471.982 125.302C463.611 133.42 453.857 139.916 442.709 144.812C440.129 145.907 437.507 146.888 434.844 147.735L432.749 148.375C428.61 149.594 424.368 150.523 420.043 151.164C416.647 151.628 412.095 151.949 407.213 152.217C411.879 152.486 416.224 152.827 419.971 153.291C424.884 154.035 429.673 155.161 434.349 156.679C437.177 157.598 439.964 158.662 442.709 159.86C454.332 164.797 464.447 171.572 473.045 180.176C481.643 188.779 488.414 198.901 493.348 210.53C494.483 213.113 495.484 215.736 496.362 218.401L497.022 220.497C498.271 224.608 499.21 228.811 499.871 233.118H499.799C500.263 236.878 500.604 241.257 500.882 245.956C501.151 241.112 501.46 236.609 501.925 233.232H502.038C502.678 228.884 503.607 224.649 504.825 220.508L505.465 218.411C506.322 215.746 507.292 213.123 508.386 210.541C513.279 199.386 519.771 189.616 527.884 181.25L529.36 179.752C537.865 171.355 547.836 164.725 559.262 159.87C561.842 158.734 564.464 157.732 567.127 156.855L569.222 156.183C573.434 154.903 577.748 153.932 582.155 153.271V153.25C585.82 152.806 590.021 152.486 594.531 152.217L594.5 152.207ZM522.95 174.557C513.681 183.832 506.301 194.708 500.821 207.091C495.495 194.708 488.197 183.832 478.928 174.557C469.659 165.282 458.791 157.98 446.415 152.651C458.791 147.167 469.659 139.792 478.928 130.518C488.197 121.243 495.495 110.367 500.821 97.9836C506.301 110.367 513.671 121.243 522.95 130.518C532.219 139.792 543.088 147.177 555.464 152.651C543.088 157.98 532.219 165.282 522.95 174.557Z" fill="url(#paint11_linear_2201_32)"/>
<path d="M594.5 152.207C589.711 151.938 585.273 151.628 581.908 151.184V151.153C577.573 150.513 573.341 149.583 569.202 148.365C569.202 148.365 568.624 148.189 568.077 148.024C567.581 147.869 567.106 147.724 567.106 147.724C564.443 146.867 561.822 145.896 559.241 144.802C547.619 139.699 537.504 132.852 528.906 124.248C520.308 115.645 513.465 105.523 508.366 93.8936C507.272 91.3115 506.291 88.6882 505.445 86.0235L504.805 83.9268C503.587 79.7852 502.658 75.5403 502.018 71.2128H501.904C501.45 67.8148 501.13 63.3323 500.862 58.509C500.593 63.2084 500.253 67.5875 499.778 71.3573H499.85C499.19 75.6332 498.25 79.8368 497.012 83.9372L496.351 86.0338C495.474 88.6985 494.462 91.3219 493.337 93.9039C488.486 105.337 481.86 115.314 473.468 123.825L471.982 125.302C463.611 133.42 453.857 139.916 442.709 144.812C440.129 145.907 437.507 146.888 434.844 147.735L432.749 148.375C428.61 149.594 424.368 150.523 420.043 151.164C416.647 151.628 412.095 151.949 407.213 152.217C411.879 152.486 416.224 152.827 419.971 153.291C424.884 154.035 429.673 155.161 434.349 156.679C437.177 157.598 439.964 158.662 442.709 159.86C454.332 164.797 464.447 171.572 473.045 180.176C481.643 188.779 488.414 198.901 493.348 210.53C494.483 213.113 495.484 215.736 496.362 218.401L497.022 220.497C498.271 224.608 499.21 228.811 499.871 233.118H499.799C500.263 236.878 500.604 241.257 500.882 245.956C501.151 241.112 501.46 236.609 501.925 233.232H502.038C502.678 228.884 503.607 224.649 504.825 220.508L505.465 218.411C506.322 215.746 507.292 213.123 508.386 210.541C513.279 199.386 519.771 189.616 527.884 181.25L529.36 179.752C537.865 171.355 547.836 164.725 559.262 159.87C561.842 158.734 564.464 157.732 567.127 156.855L569.222 156.183C573.434 154.903 577.748 153.932 582.155 153.271V153.25C585.82 152.806 590.021 152.486 594.531 152.217L594.5 152.207ZM522.95 174.557C513.681 183.832 506.301 194.708 500.821 207.091C495.495 194.708 488.197 183.832 478.928 174.557C469.659 165.282 458.791 157.98 446.415 152.651C458.791 147.167 469.659 139.792 478.928 130.518C488.197 121.243 495.495 110.367 500.821 97.9836C506.301 110.367 513.671 121.243 522.95 130.518C532.219 139.792 543.088 147.177 555.464 152.651C543.088 157.98 532.219 165.282 522.95 174.557Z" fill="url(#paint12_linear_2201_32)"/>
<path d="M500.945 56.9183C448.17 56.9183 405.397 99.7289 405.397 152.527C405.397 205.325 448.18 248.136 500.945 248.136C553.709 248.136 596.492 205.325 596.492 152.527C596.492 99.7289 553.709 56.9183 500.945 56.9183ZM500.945 246.039C449.336 246.039 407.502 204.179 407.502 152.537C407.502 100.896 449.336 59.0356 500.945 59.0356C552.553 59.0356 594.387 100.896 594.387 152.537C594.387 204.179 552.553 246.039 500.945 246.039Z" fill="url(#paint13_linear_2201_32)"/>
<path d="M221.722 484.776C211.08 478.641 202.637 470.193 196.382 459.421C190.127 448.659 187 436.76 187 423.736C187 410.713 190.127 398.825 196.382 388.052C202.637 377.28 211.08 368.832 221.722 362.697C232.353 356.562 243.996 353.494 256.64 353.494C266.529 353.494 275.818 355.25 284.519 358.751C293.22 362.263 300.384 367.2 306.009 373.593L294.562 385.047C290.31 379.79 284.86 375.751 278.233 372.932C271.597 370.112 264.464 368.708 256.837 368.708C247.33 368.708 238.474 370.99 230.279 375.566C222.083 380.141 215.508 386.586 210.564 394.91C205.62 403.235 203.153 412.851 203.153 423.736C203.153 434.622 205.62 444.248 210.564 452.573C215.508 460.898 222.104 467.353 230.372 471.918C238.629 476.493 247.454 478.776 256.837 478.776C266.219 478.776 273.382 477.371 279.451 474.551C285.52 471.732 290.743 468.014 295.13 463.376C298.381 459.875 301.013 455.651 303.016 450.704C305.018 445.756 306.267 440.282 306.773 434.271H257.033V419.43H321.605C322.235 422.941 322.544 426.195 322.544 429.2C322.544 437.463 321.233 445.508 318.601 453.337C315.969 461.166 311.779 468.024 306.019 473.901C293.633 487.307 277.17 494 256.651 494C244.007 494 232.374 490.932 221.732 484.797L221.722 484.776Z" fill="#1A1E22"/>
<path d="M350.114 487.399C342.858 483.02 337.191 476.978 333.124 469.273C329.058 461.568 327.024 452.903 327.024 443.256C327.024 433.61 328.934 425.481 332.753 417.715C336.572 409.948 341.98 403.751 348.989 399.124C355.997 394.497 364.131 392.173 373.389 392.173C382.648 392.173 390.905 394.269 397.79 398.463C404.674 402.656 409.959 408.45 413.654 415.835C417.349 423.22 419.197 431.678 419.197 441.191C419.197 443.07 419.011 444.702 418.629 446.076H342.982C343.353 453.337 345.108 459.482 348.235 464.481C351.363 469.49 355.337 473.25 360.157 475.749C364.977 478.259 370.014 479.509 375.268 479.509C387.53 479.509 396.974 473.756 403.611 462.229L417.122 468.808C412.994 476.575 407.389 482.71 400.318 487.213C393.248 491.716 384.702 493.978 374.7 493.978C365.565 493.978 357.37 491.789 350.114 487.399ZM402.3 432.938C402.053 428.931 400.917 424.924 398.925 420.916C396.923 416.909 393.764 413.532 389.45 410.774C385.135 408.016 379.716 406.643 373.214 406.643C365.71 406.643 359.352 409.049 354.16 413.872C348.968 418.696 345.552 425.048 343.931 432.938H402.311H402.3Z" fill="#1A1E22"/>
<path d="M427.825 395.178H443.029V409.266H443.783C446.538 404.381 450.667 400.311 456.169 397.058C461.67 393.805 467.491 392.173 473.623 392.173C480.631 392.173 486.731 393.867 491.923 397.244C497.115 400.621 500.841 405.135 503.091 410.764C506.466 405.124 510.946 400.621 516.509 397.244C522.073 393.867 528.555 392.173 535.935 392.173C546.948 392.173 555.236 395.519 560.81 402.222C566.373 408.925 569.16 418.035 569.16 429.551V490.973H553.388V431.999C553.388 423.106 551.572 416.661 547.949 412.654C544.316 408.646 538.938 406.643 531.806 406.643C527.048 406.643 522.733 408.027 518.852 410.774C514.971 413.532 511.937 417.219 509.748 421.856C507.56 426.494 506.466 431.503 506.466 436.884V490.983H490.509V432.195C490.509 423.178 488.692 416.671 485.069 412.664C481.436 408.657 476.12 406.653 469.112 406.653C464.354 406.653 460.039 408.058 456.158 410.877C452.277 413.697 449.243 417.456 447.055 422.145C444.866 426.845 443.772 431.885 443.772 437.266V490.983H427.815V395.189L427.825 395.178Z" fill="#1A1E22"/>
<path d="M582.124 395.178H597.328V409.266H598.081C600.837 404.381 604.966 400.311 610.467 397.058C615.969 393.805 621.79 392.173 627.921 392.173C634.93 392.173 641.03 393.867 646.221 397.244C651.413 400.621 655.139 405.135 657.39 410.764C660.765 405.124 665.244 400.621 670.808 397.244C676.371 393.867 682.853 392.173 690.233 392.173C701.246 392.173 709.535 395.519 715.108 402.222C720.672 408.925 723.459 418.035 723.459 429.551V490.973H707.687V431.999C707.687 423.106 705.871 416.661 702.248 412.654C698.614 408.646 693.237 406.643 686.104 406.643C681.346 406.643 677.032 408.027 673.151 410.774C669.27 413.532 666.235 417.219 664.047 421.856C661.859 426.494 660.765 431.503 660.765 436.884V490.983H644.807V432.195C644.807 423.178 642.991 416.671 639.368 412.664C635.735 408.657 630.419 406.653 623.411 406.653C618.652 406.653 614.338 408.058 610.457 410.877C606.576 413.697 603.541 417.456 601.353 422.145C599.165 426.845 598.071 431.885 598.071 437.266V490.983H582.114V395.189L582.124 395.178Z" fill="#1A1E22"/>
<path d="M747.313 489.847C741.801 487.09 737.549 483.309 734.545 478.486C731.541 473.663 730.045 468.189 730.045 462.054C730.045 451.912 733.864 443.99 741.491 438.289C749.119 432.587 758.76 429.747 770.402 429.747C776.152 429.747 781.509 430.377 786.453 431.627C791.397 432.877 795.185 434.323 797.806 435.944V430.119C797.806 422.982 795.298 417.25 790.303 412.933C785.297 408.616 778.969 406.457 771.342 406.457C765.954 406.457 761.02 407.614 756.509 409.938C752.009 412.261 748.438 415.474 745.806 419.615L733.791 410.599C737.549 404.846 742.709 400.332 749.274 397.079C755.839 393.826 763.126 392.194 771.146 392.194C784.161 392.194 794.39 395.602 801.832 402.429C809.274 409.256 813 418.551 813 430.326V490.994H797.796V477.278H797.043C794.287 481.915 790.158 485.861 784.657 489.114C779.145 492.367 772.952 493.999 766.078 493.999C759.203 493.999 752.814 492.615 747.302 489.868L747.313 489.847ZM782.603 475.76C787.227 473.002 790.922 469.315 793.678 464.677C796.423 460.05 797.806 454.979 797.806 449.464C794.803 447.46 791.108 445.839 786.731 444.579C782.345 443.329 777.72 442.699 772.838 442.699C764.075 442.699 757.48 444.517 753.031 448.142C748.582 451.777 746.363 456.466 746.363 462.23C746.363 467.487 748.366 471.742 752.37 475.006C756.375 478.259 761.443 479.891 767.574 479.891C772.952 479.891 777.958 478.517 782.592 475.76H782.603Z" fill="#1A1E22"/>
<defs>
<linearGradient id="paint0_linear_2201_32" x1="-775.585" y1="258.731" x2="3127.25" y2="241.937" gradientUnits="userSpaceOnUse">
<stop offset="0.05" stop-color="#1A1E22"/>
<stop offset="0.28" stop-color="#1A1E22"/>
<stop offset="0.5" stop-color="#1A1E22"/>
<stop offset="0.72" stop-color="#1A1E22"/>
<stop offset="0.95" stop-color="#1A1E22"/>
</linearGradient>
<linearGradient id="paint1_linear_2201_32" x1="-2117.01" y1="262.019" x2="1804.87" y2="245.225" gradientUnits="userSpaceOnUse">
<stop offset="0.05" stop-color="#1A1E22"/>
<stop offset="0.28" stop-color="#1A1E22"/>
<stop offset="0.5" stop-color="#1A1E22"/>
<stop offset="0.72" stop-color="#1A1E22"/>
<stop offset="0.95" stop-color="#1A1E22"/>
</linearGradient>
<linearGradient id="paint2_linear_2201_32" x1="55.9099" y1="255.526" x2="944.868" y2="255.526" gradientUnits="userSpaceOnUse">
<stop offset="0.05" stop-color="#1A1E22"/>
<stop offset="0.28" stop-color="#1A1E22"/>
<stop offset="0.5" stop-color="#1A1E22"/>
<stop offset="0.72" stop-color="#1A1E22"/>
<stop offset="0.95" stop-color="#1A1E22"/>
</linearGradient>
<linearGradient id="paint3_linear_2201_32" x1="-59884.3" y1="256.902" x2="12028.2" y2="-25537.5" gradientUnits="userSpaceOnUse">
<stop offset="0.05" stop-color="#1A1E22"/>
<stop offset="0.28" stop-color="#1A1E22"/>
<stop offset="0.5" stop-color="#1A1E22"/>
<stop offset="0.72" stop-color="#1A1E22"/>
<stop offset="0.95" stop-color="#1A1E22"/>
</linearGradient>
<linearGradient id="paint4_linear_2201_32" x1="-20298.3" y1="255.5" x2="61239" y2="255.5" gradientUnits="userSpaceOnUse">
<stop offset="0.05" stop-color="#1A1E22"/>
<stop offset="0.28" stop-color="#1A1E22"/>
<stop offset="0.5" stop-color="#1A1E22"/>
<stop offset="0.72" stop-color="#1A1E22"/>
<stop offset="0.95" stop-color="#1A1E22"/>
</linearGradient>
<linearGradient id="paint5_linear_2201_32" x1="86.6002" y1="355.363" x2="917.374" y2="355.326" gradientUnits="userSpaceOnUse">
<stop offset="0.05" stop-color="#1A1E22"/>
<stop offset="0.28" stop-color="#1A1E22"/>
<stop offset="0.5" stop-color="#1A1E22"/>
<stop offset="0.72" stop-color="#1A1E22"/>
<stop offset="0.95" stop-color="#1A1E22"/>
</linearGradient>
<linearGradient id="paint6_linear_2201_32" x1="-39685.8" y1="258.619" x2="39423.6" y2="-11172.1" gradientUnits="userSpaceOnUse">
<stop offset="0.05" stop-color="#1A1E22"/>
<stop offset="0.28" stop-color="#1A1E22"/>
<stop offset="0.5" stop-color="#1A1E22"/>
<stop offset="0.72" stop-color="#1A1E22"/>
<stop offset="0.95" stop-color="#1A1E22"/>
</linearGradient>
<linearGradient id="paint7_linear_2201_32" x1="-39685.8" y1="258.619" x2="39423.6" y2="-11172.1" gradientUnits="userSpaceOnUse">
<stop offset="0.05" stop-color="#1A1E22"/>
<stop offset="0.28" stop-color="#1A1E22"/>
<stop offset="0.5" stop-color="#1A1E22"/>
<stop offset="0.72" stop-color="#1A1E22"/>
<stop offset="0.95" stop-color="#1A1E22"/>
</linearGradient>
<linearGradient id="paint8_linear_2201_32" x1="86.6002" y1="355.363" x2="917.374" y2="355.326" gradientUnits="userSpaceOnUse">
<stop offset="0.05" stop-color="#1A1E22"/>
<stop offset="0.28" stop-color="#1A1E22"/>
<stop offset="0.5" stop-color="#1A1E22"/>
<stop offset="0.72" stop-color="#1A1E22"/>
<stop offset="0.95" stop-color="#1A1E22"/>
</linearGradient>
<linearGradient id="paint9_linear_2201_32" x1="-714.891" y1="348.316" x2="1730.85" y2="348.042" gradientUnits="userSpaceOnUse">
<stop offset="0.05" stop-color="#1A1E22"/>
<stop offset="0.28" stop-color="#1A1E22"/>
<stop offset="0.5" stop-color="#1A1E22"/>
<stop offset="0.72" stop-color="#1A1E22"/>
<stop offset="0.95" stop-color="#1A1E22"/>
</linearGradient>
<linearGradient id="paint10_linear_2201_32" x1="-1635.89" y1="414.107" x2="820.014" y2="413.829" gradientUnits="userSpaceOnUse">
<stop offset="0.05" stop-color="#1A1E22"/>
<stop offset="0.28" stop-color="#1A1E22"/>
<stop offset="0.5" stop-color="#1A1E22"/>
<stop offset="0.72" stop-color="#1A1E22"/>
<stop offset="0.95" stop-color="#1A1E22"/>
</linearGradient>
<linearGradient id="paint11_linear_2201_32" x1="-57.3221" y1="121.63" x2="770.231" y2="464.022" gradientUnits="userSpaceOnUse">
<stop offset="0.05" stop-color="#1A1E22"/>
<stop offset="0.28" stop-color="#1A1E22"/>
<stop offset="0.5" stop-color="#1A1E22"/>
<stop offset="0.72" stop-color="#1A1E22"/>
<stop offset="0.95" stop-color="#1A1E22"/>
</linearGradient>
<linearGradient id="paint12_linear_2201_32" x1="-104.269" y1="58.316" x2="233.7" y2="248.281" gradientUnits="userSpaceOnUse">
<stop stop-color="#1A1E22"/>
<stop offset="0.25" stop-color="#1A1E22" stop-opacity="0.5"/>
<stop offset="0.5" stop-color="#1A1E22"/>
<stop offset="0.75" stop-color="#1A1E22" stop-opacity="0.5"/>
<stop offset="1" stop-color="#1A1E22" stop-opacity="0"/>
</linearGradient>
<linearGradient id="paint13_linear_2201_32" x1="731.952" y1="257.947" x2="1186.43" y2="266.111" gradientUnits="userSpaceOnUse">
<stop stop-color="#1A1E22"/>
<stop offset="0.25" stop-color="#1A1E22"/>
<stop offset="0.5" stop-color="#1A1E22"/>
<stop offset="0.75" stop-color="#1A1E22"/>
<stop offset="1" stop-color="#1A1E22"/>
</linearGradient>
</defs>
</svg>
