<svg width="626" height="483" viewBox="0 0 626 483" fill="none" xmlns="http://www.w3.org/2000/svg">
<path d="M287.914 117.597L289.4 116.109L247.463 74.1457L245.977 75.6329L287.914 117.597Z" fill="url(#paint0_linear_2193_1573)"/>
<path d="M339.966 165.468L338.479 166.956L380.416 208.919L381.903 207.432L339.966 165.468Z" fill="url(#paint1_linear_2193_1573)"/>
<path d="M313.945 45.9183C261.17 45.9183 218.397 88.7289 218.397 141.527C218.397 194.325 261.18 237.136 313.945 237.136C366.709 237.136 409.492 194.325 409.492 141.527C409.492 88.7289 366.709 45.9183 313.945 45.9183ZM313.945 235.039C262.336 235.039 220.502 193.179 220.502 141.537C220.502 89.896 262.336 48.0356 313.945 48.0356C365.553 48.0356 407.387 89.896 407.387 141.537C407.387 193.179 365.553 235.039 313.945 235.039Z" fill="url(#paint2_linear_2193_1573)"/>
<path d="M380.096 243.446H382.192V39.6285H380.096V243.446Z" fill="url(#paint3_linear_2193_1573)"/>
<path d="M245.697 243.446H247.793V39.6285H245.697V243.446Z" fill="url(#paint4_linear_2193_1573)"/>
<path d="M212.1 209.828H415.788V207.731H212.1V209.828Z" fill="url(#paint5_linear_2193_1573)"/>
<path d="M312.892 277.065H314.988V207.576H312.892V277.065Z" fill="url(#paint6_linear_2193_1573)"/>
<path d="M312.892 75.4885H314.988V6H312.892V75.4885Z" fill="url(#paint7_linear_2193_1573)"/>
<path d="M212.1 75.344H415.788V73.2473H212.1V75.344Z" fill="url(#paint8_linear_2193_1573)"/>
<path d="M178.503 142.591H247.803V140.495H178.503V142.591Z" fill="url(#paint9_linear_2193_1573)"/>
<path d="M380.097 142.591H449.386V140.494H380.097V142.591Z" fill="url(#paint10_linear_2193_1573)"/>
<path d="M407.5 141.207C402.711 140.938 398.273 140.628 394.908 140.184V140.153C390.573 139.513 386.341 138.583 382.202 137.365C382.202 137.365 381.624 137.189 381.077 137.024C380.581 136.869 380.106 136.724 380.106 136.724C377.443 135.867 374.822 134.896 372.241 133.802C360.619 128.699 350.504 121.852 341.906 113.248C333.308 104.645 326.465 94.5232 321.366 82.8936C320.272 80.3115 319.291 77.6882 318.445 75.0235L317.805 72.9268C316.587 68.7852 315.658 64.5403 315.018 60.2128H314.904C314.45 56.8148 314.13 52.3323 313.862 47.509C313.593 52.2084 313.253 56.5875 312.778 60.3573H312.85C312.19 64.6332 311.25 68.8368 310.012 72.9372L309.351 75.0338C308.474 77.6985 307.462 80.3219 306.337 82.9039C301.486 94.3373 294.86 104.314 286.468 112.825L284.982 114.302C276.611 122.42 266.857 128.916 255.709 133.812C253.129 134.907 250.507 135.888 247.844 136.735L245.749 137.375C241.61 138.594 237.368 139.523 233.043 140.164C229.647 140.628 225.095 140.949 220.213 141.217C224.879 141.486 229.224 141.827 232.971 142.291C237.884 143.035 242.673 144.161 247.349 145.679C250.177 146.598 252.964 147.662 255.709 148.86C267.332 153.797 277.447 160.572 286.045 169.176C294.643 177.779 301.414 187.901 306.348 199.53C307.483 202.113 308.484 204.736 309.362 207.401L310.022 209.497C311.271 213.608 312.21 217.811 312.871 222.118H312.799C313.263 225.878 313.604 230.257 313.882 234.956C314.151 230.112 314.46 225.609 314.925 222.232H315.038C315.678 217.884 316.607 213.649 317.825 209.508L318.465 207.411C319.322 204.746 320.292 202.123 321.386 199.541C326.279 188.386 332.771 178.616 340.884 170.25L342.36 168.752C350.865 160.355 360.836 153.725 372.262 148.87C374.842 147.734 377.464 146.732 380.127 145.855L382.222 145.183C386.434 143.903 390.748 142.932 395.155 142.271V142.25C398.82 141.806 403.021 141.486 407.531 141.217L407.5 141.207ZM335.95 163.557C326.681 172.832 319.301 183.708 313.821 196.091C308.495 183.708 301.197 172.832 291.928 163.557C282.659 154.282 271.791 146.98 259.415 141.651C271.791 136.167 282.659 128.792 291.928 119.518C301.197 110.243 308.495 99.3671 313.821 86.9836C319.301 99.3671 326.671 110.243 335.95 119.518C345.219 128.792 356.088 136.177 368.464 141.651C356.088 146.98 345.219 154.282 335.95 163.557Z" fill="url(#paint11_linear_2193_1573)"/>
<path d="M407.5 141.207C402.711 140.938 398.273 140.628 394.908 140.184V140.153C390.573 139.513 386.341 138.583 382.202 137.365C382.202 137.365 381.624 137.189 381.077 137.024C380.581 136.869 380.106 136.724 380.106 136.724C377.443 135.867 374.822 134.896 372.241 133.802C360.619 128.699 350.504 121.852 341.906 113.248C333.308 104.645 326.465 94.5232 321.366 82.8936C320.272 80.3115 319.291 77.6882 318.445 75.0235L317.805 72.9268C316.587 68.7852 315.658 64.5403 315.018 60.2128H314.904C314.45 56.8148 314.13 52.3323 313.862 47.509C313.593 52.2084 313.253 56.5875 312.778 60.3573H312.85C312.19 64.6332 311.25 68.8368 310.012 72.9372L309.351 75.0338C308.474 77.6985 307.462 80.3219 306.337 82.9039C301.486 94.3373 294.86 104.314 286.468 112.825L284.982 114.302C276.611 122.42 266.857 128.916 255.709 133.812C253.129 134.907 250.507 135.888 247.844 136.735L245.749 137.375C241.61 138.594 237.368 139.523 233.043 140.164C229.647 140.628 225.095 140.949 220.213 141.217C224.879 141.486 229.224 141.827 232.971 142.291C237.884 143.035 242.673 144.161 247.349 145.679C250.177 146.598 252.964 147.662 255.709 148.86C267.332 153.797 277.447 160.572 286.045 169.176C294.643 177.779 301.414 187.901 306.348 199.53C307.483 202.113 308.484 204.736 309.362 207.401L310.022 209.497C311.271 213.608 312.21 217.811 312.871 222.118H312.799C313.263 225.878 313.604 230.257 313.882 234.956C314.151 230.112 314.46 225.609 314.925 222.232H315.038C315.678 217.884 316.607 213.649 317.825 209.508L318.465 207.411C319.322 204.746 320.292 202.123 321.386 199.541C326.279 188.386 332.771 178.616 340.884 170.25L342.36 168.752C350.865 160.355 360.836 153.725 372.262 148.87C374.842 147.734 377.464 146.732 380.127 145.855L382.222 145.183C386.434 143.903 390.748 142.932 395.155 142.271V142.25C398.82 141.806 403.021 141.486 407.531 141.217L407.5 141.207ZM335.95 163.557C326.681 172.832 319.301 183.708 313.821 196.091C308.495 183.708 301.197 172.832 291.928 163.557C282.659 154.282 271.791 146.98 259.415 141.651C271.791 136.167 282.659 128.792 291.928 119.518C301.197 110.243 308.495 99.3671 313.821 86.9836C319.301 99.3671 326.671 110.243 335.95 119.518C345.219 128.792 356.088 136.177 368.464 141.651C356.088 146.98 345.219 154.282 335.95 163.557Z" fill="url(#paint12_linear_2193_1573)"/>
<path d="M313.945 45.9183C261.17 45.9183 218.397 88.7289 218.397 141.527C218.397 194.325 261.18 237.136 313.945 237.136C366.709 237.136 409.492 194.325 409.492 141.527C409.492 88.7289 366.709 45.9183 313.945 45.9183ZM313.945 235.039C262.336 235.039 220.502 193.179 220.502 141.537C220.502 89.896 262.336 48.0356 313.945 48.0356C365.553 48.0356 407.387 89.896 407.387 141.537C407.387 193.179 365.553 235.039 313.945 235.039Z" fill="url(#paint13_linear_2193_1573)"/>
<path d="M34.7221 473.776C24.0805 467.641 15.6373 459.193 9.38241 448.421C3.12747 437.659 0 425.76 0 412.736C0 399.713 3.12747 387.825 9.38241 377.052C15.6373 366.28 24.0805 357.832 34.7221 351.697C45.3535 345.562 56.9963 342.494 69.6404 342.494C79.5286 342.494 88.8181 344.25 97.5193 347.751C106.22 351.263 113.384 356.2 119.009 362.593L107.562 374.047C103.31 368.79 97.8599 364.751 91.2334 361.932C84.5965 359.112 77.4642 357.708 69.8365 357.708C60.3302 357.708 51.4742 359.99 43.2788 364.566C35.0834 369.141 28.5085 375.586 23.5644 383.91C18.6203 392.235 16.1534 401.851 16.1534 412.736C16.1534 423.622 18.6203 433.248 23.5644 441.573C28.5085 449.898 35.104 456.353 43.3717 460.918C51.6291 465.493 60.4541 467.776 69.8365 467.776C79.2189 467.776 86.3822 466.371 92.4513 463.551C98.5205 460.732 103.743 457.014 108.13 452.376C111.381 448.875 114.013 444.651 116.016 439.704C118.018 434.756 119.267 429.282 119.773 423.271H70.0326V408.43H134.605C135.235 411.941 135.544 415.195 135.544 418.2C135.544 426.463 134.233 434.508 131.601 442.337C128.969 450.166 124.779 457.024 119.019 462.901C106.633 476.307 90.1702 483 69.6507 483C57.0066 483 45.3741 479.932 34.7325 473.797L34.7221 473.776Z" fill="#1A1E22"/>
<path d="M163.114 476.399C155.858 472.02 150.191 465.978 146.124 458.273C142.058 450.568 140.024 441.903 140.024 432.256C140.024 422.61 141.934 414.481 145.753 406.715C149.572 398.948 154.98 392.751 161.989 388.124C168.997 383.497 177.131 381.173 186.389 381.173C195.648 381.173 203.905 383.269 210.79 387.463C217.674 391.656 222.959 397.45 226.654 404.835C230.349 412.22 232.197 420.678 232.197 430.191C232.197 432.07 232.011 433.702 231.629 435.076H155.982C156.353 442.337 158.108 448.482 161.235 453.481C164.363 458.49 168.337 462.25 173.157 464.749C177.977 467.259 183.014 468.509 188.268 468.509C200.53 468.509 209.974 462.756 216.611 451.229L230.122 457.808C225.994 465.575 220.389 471.71 213.318 476.213C206.248 480.716 197.702 482.978 187.7 482.978C178.565 482.978 170.37 480.789 163.114 476.399ZM215.3 421.938C215.053 417.931 213.917 413.924 211.925 409.916C209.923 405.909 206.764 402.532 202.45 399.774C198.135 397.016 192.716 395.643 186.214 395.643C178.71 395.643 172.352 398.049 167.16 402.872C161.968 407.696 158.552 414.048 156.931 421.938H215.311H215.3Z" fill="#1A1E22"/>
<path d="M240.825 384.178H256.029V398.266H256.783C259.538 393.381 263.667 389.311 269.169 386.058C274.67 382.805 280.491 381.173 286.623 381.173C293.631 381.173 299.731 382.867 304.923 386.244C310.115 389.621 313.841 394.135 316.091 399.764C319.466 394.124 323.946 389.621 329.509 386.244C335.073 382.867 341.555 381.173 348.935 381.173C359.948 381.173 368.236 384.519 373.81 391.222C379.373 397.925 382.16 407.035 382.16 418.551V479.973H366.388V420.999C366.388 412.106 364.572 405.661 360.949 401.654C357.316 397.646 351.938 395.643 344.806 395.643C340.048 395.643 335.733 397.027 331.852 399.774C327.971 402.532 324.937 406.219 322.748 410.856C320.56 415.494 319.466 420.503 319.466 425.884V479.983H303.509V421.195C303.509 412.178 301.692 405.671 298.069 401.664C294.436 397.657 289.12 395.653 282.112 395.653C277.354 395.653 273.039 397.058 269.158 399.877C265.277 402.697 262.243 406.456 260.055 411.145C257.866 415.845 256.772 420.885 256.772 426.266V479.983H240.815V384.189L240.825 384.178Z" fill="#1A1E22"/>
<path d="M395.124 384.178H410.328V398.266H411.081C413.837 393.381 417.966 389.311 423.467 386.058C428.969 382.805 434.79 381.173 440.921 381.173C447.93 381.173 454.03 382.867 459.221 386.244C464.413 389.621 468.139 394.135 470.39 399.764C473.765 394.124 478.244 389.621 483.808 386.244C489.371 382.867 495.853 381.173 503.233 381.173C514.246 381.173 522.535 384.519 528.108 391.222C533.672 397.925 536.459 407.035 536.459 418.551V479.973H520.687V420.999C520.687 412.106 518.871 405.661 515.248 401.654C511.614 397.646 506.237 395.643 499.104 395.643C494.346 395.643 490.032 397.027 486.151 399.774C482.27 402.532 479.235 406.219 477.047 410.856C474.859 415.494 473.765 420.503 473.765 425.884V479.983H457.807V421.195C457.807 412.178 455.991 405.671 452.368 401.664C448.735 397.657 443.419 395.653 436.411 395.653C431.652 395.653 427.338 397.058 423.457 399.877C419.576 402.697 416.541 406.456 414.353 411.145C412.165 415.845 411.071 420.885 411.071 426.266V479.983H395.114V384.189L395.124 384.178Z" fill="#1A1E22"/>
<path d="M560.313 478.847C554.801 476.09 550.549 472.309 547.545 467.486C544.541 462.663 543.045 457.189 543.045 451.054C543.045 440.912 546.864 432.99 554.491 427.289C562.119 421.587 571.76 418.747 583.402 418.747C589.152 418.747 594.509 419.377 599.453 420.627C604.397 421.877 608.185 423.323 610.806 424.944V419.119C610.806 411.982 608.298 406.25 603.303 401.933C598.297 397.616 591.969 395.457 584.342 395.457C578.954 395.457 574.02 396.614 569.509 398.938C565.009 401.261 561.438 404.474 558.806 408.615L546.791 399.599C550.549 393.846 555.709 389.332 562.274 386.079C568.839 382.826 576.126 381.194 584.146 381.194C597.161 381.194 607.39 384.602 614.832 391.429C622.274 398.256 626 407.551 626 419.326V479.994H610.796V466.278H610.043C607.287 470.915 603.158 474.861 597.657 478.114C592.145 481.367 585.952 482.999 579.078 482.999C572.203 482.999 565.814 481.615 560.302 478.868L560.313 478.847ZM595.603 464.76C600.227 462.002 603.922 458.315 606.678 453.677C609.423 449.05 610.806 443.979 610.806 438.464C607.803 436.46 604.108 434.839 599.731 433.579C595.345 432.329 590.72 431.699 585.838 431.699C577.075 431.699 570.48 433.517 566.031 437.142C561.582 440.777 559.363 445.466 559.363 451.23C559.363 456.487 561.366 460.742 565.37 464.006C569.375 467.259 574.443 468.891 580.574 468.891C585.952 468.891 590.958 467.517 595.592 464.76H595.603Z" fill="#1A1E22"/>
<defs>
<linearGradient id="paint0_linear_2193_1573" x1="-962.585" y1="247.731" x2="2940.25" y2="230.937" gradientUnits="userSpaceOnUse">
<stop offset="0.05" stop-color="#1A1E22"/>
<stop offset="0.28" stop-color="#1A1E22"/>
<stop offset="0.5" stop-color="#1A1E22"/>
<stop offset="0.72" stop-color="#1A1E22"/>
<stop offset="0.95" stop-color="#1A1E22"/>
</linearGradient>
<linearGradient id="paint1_linear_2193_1573" x1="-2304.01" y1="251.019" x2="1617.87" y2="234.225" gradientUnits="userSpaceOnUse">
<stop offset="0.05" stop-color="#1A1E22"/>
<stop offset="0.28" stop-color="#1A1E22"/>
<stop offset="0.5" stop-color="#1A1E22"/>
<stop offset="0.72" stop-color="#1A1E22"/>
<stop offset="0.95" stop-color="#1A1E22"/>
</linearGradient>
<linearGradient id="paint2_linear_2193_1573" x1="-131.09" y1="244.526" x2="757.868" y2="244.526" gradientUnits="userSpaceOnUse">
<stop offset="0.05" stop-color="#1A1E22"/>
<stop offset="0.28" stop-color="#1A1E22"/>
<stop offset="0.5" stop-color="#1A1E22"/>
<stop offset="0.72" stop-color="#1A1E22"/>
<stop offset="0.95" stop-color="#1A1E22"/>
</linearGradient>
<linearGradient id="paint3_linear_2193_1573" x1="-60071.3" y1="245.902" x2="11841.2" y2="-25548.5" gradientUnits="userSpaceOnUse">
<stop offset="0.05" stop-color="#1A1E22"/>
<stop offset="0.28" stop-color="#1A1E22"/>
<stop offset="0.5" stop-color="#1A1E22"/>
<stop offset="0.72" stop-color="#1A1E22"/>
<stop offset="0.95" stop-color="#1A1E22"/>
</linearGradient>
<linearGradient id="paint4_linear_2193_1573" x1="-20485.3" y1="244.5" x2="61052" y2="244.5" gradientUnits="userSpaceOnUse">
<stop offset="0.05" stop-color="#1A1E22"/>
<stop offset="0.28" stop-color="#1A1E22"/>
<stop offset="0.5" stop-color="#1A1E22"/>
<stop offset="0.72" stop-color="#1A1E22"/>
<stop offset="0.95" stop-color="#1A1E22"/>
</linearGradient>
<linearGradient id="paint5_linear_2193_1573" x1="-100.4" y1="344.363" x2="730.374" y2="344.326" gradientUnits="userSpaceOnUse">
<stop offset="0.05" stop-color="#1A1E22"/>
<stop offset="0.28" stop-color="#1A1E22"/>
<stop offset="0.5" stop-color="#1A1E22"/>
<stop offset="0.72" stop-color="#1A1E22"/>
<stop offset="0.95" stop-color="#1A1E22"/>
</linearGradient>
<linearGradient id="paint6_linear_2193_1573" x1="-39872.8" y1="247.619" x2="39236.6" y2="-11183.1" gradientUnits="userSpaceOnUse">
<stop offset="0.05" stop-color="#1A1E22"/>
<stop offset="0.28" stop-color="#1A1E22"/>
<stop offset="0.5" stop-color="#1A1E22"/>
<stop offset="0.72" stop-color="#1A1E22"/>
<stop offset="0.95" stop-color="#1A1E22"/>
</linearGradient>
<linearGradient id="paint7_linear_2193_1573" x1="-39872.8" y1="247.619" x2="39236.6" y2="-11183.1" gradientUnits="userSpaceOnUse">
<stop offset="0.05" stop-color="#1A1E22"/>
<stop offset="0.28" stop-color="#1A1E22"/>
<stop offset="0.5" stop-color="#1A1E22"/>
<stop offset="0.72" stop-color="#1A1E22"/>
<stop offset="0.95" stop-color="#1A1E22"/>
</linearGradient>
<linearGradient id="paint8_linear_2193_1573" x1="-100.4" y1="344.363" x2="730.374" y2="344.326" gradientUnits="userSpaceOnUse">
<stop offset="0.05" stop-color="#1A1E22"/>
<stop offset="0.28" stop-color="#1A1E22"/>
<stop offset="0.5" stop-color="#1A1E22"/>
<stop offset="0.72" stop-color="#1A1E22"/>
<stop offset="0.95" stop-color="#1A1E22"/>
</linearGradient>
<linearGradient id="paint9_linear_2193_1573" x1="-901.891" y1="337.316" x2="1543.85" y2="337.042" gradientUnits="userSpaceOnUse">
<stop offset="0.05" stop-color="#1A1E22"/>
<stop offset="0.28" stop-color="#1A1E22"/>
<stop offset="0.5" stop-color="#1A1E22"/>
<stop offset="0.72" stop-color="#1A1E22"/>
<stop offset="0.95" stop-color="#1A1E22"/>
</linearGradient>
<linearGradient id="paint10_linear_2193_1573" x1="-1822.89" y1="403.107" x2="633.014" y2="402.829" gradientUnits="userSpaceOnUse">
<stop offset="0.05" stop-color="#1A1E22"/>
<stop offset="0.28" stop-color="#1A1E22"/>
<stop offset="0.5" stop-color="#1A1E22"/>
<stop offset="0.72" stop-color="#1A1E22"/>
<stop offset="0.95" stop-color="#1A1E22"/>
</linearGradient>
<linearGradient id="paint11_linear_2193_1573" x1="-244.322" y1="110.63" x2="583.231" y2="453.022" gradientUnits="userSpaceOnUse">
<stop offset="0.05" stop-color="#1A1E22"/>
<stop offset="0.28" stop-color="#1A1E22"/>
<stop offset="0.5" stop-color="#1A1E22"/>
<stop offset="0.72" stop-color="#1A1E22"/>
<stop offset="0.95" stop-color="#1A1E22"/>
</linearGradient>
<linearGradient id="paint12_linear_2193_1573" x1="-291.269" y1="47.316" x2="46.6996" y2="237.281" gradientUnits="userSpaceOnUse">
<stop stop-color="#1A1E22"/>
<stop offset="0.25" stop-color="#1A1E22" stop-opacity="0.5"/>
<stop offset="0.5" stop-color="#1A1E22"/>
<stop offset="0.75" stop-color="#1A1E22" stop-opacity="0.5"/>
<stop offset="1" stop-color="#1A1E22" stop-opacity="0"/>
</linearGradient>
<linearGradient id="paint13_linear_2193_1573" x1="544.952" y1="246.947" x2="999.429" y2="255.111" gradientUnits="userSpaceOnUse">
<stop stop-color="#1A1E22"/>
<stop offset="0.25" stop-color="#1A1E22"/>
<stop offset="0.5" stop-color="#1A1E22"/>
<stop offset="0.75" stop-color="#1A1E22"/>
<stop offset="1" stop-color="#1A1E22"/>
</linearGradient>
</defs>
</svg>
