<svg width="210" height="75" viewBox="0 0 210 75" fill="none" xmlns="http://www.w3.org/2000/svg">
<path d="M32.7188 24.9568L19.4973 38.2595H32.7188V24.9568ZM32.7188 24.9568V28.5988M19.4666 23.0001V73.3891M32.7188 51.5594L19.4973 38.2567M32.7188 51.5594V70.6303L19.4973 57.3276M32.7188 51.5594L19.4959 38.2567M32.7188 51.5594L32.7174 57.2506H38.3918V38.2567H19.4959M19.4973 38.2567V57.3276M19.4973 38.2567L6.27431 51.5594M19.4973 57.3276L6.27431 70.6303V51.5594M6.27431 51.5594L6.27292 57.2506H0.599976V38.2567H19.4959M6.27431 51.5594L19.4959 38.2567M19.4959 38.2595L6.27292 24.9568V38.2595H19.4959Z" stroke="#1A1E22" stroke-miterlimit="10"/>
<path d="M77.7532 41.1442C78.5818 39.5859 79.7402 38.3859 81.2339 37.5414C82.7248 36.6997 84.4742 36.2781 86.4807 36.2781C88.4872 36.2781 90.1486 36.6927 91.5389 37.5231C92.9306 38.3536 93.9716 39.4538 94.6604 40.8238C95.3493 42.1953 95.6944 43.6974 95.6944 45.3302V47.5925H80.0853C80.2111 49.5541 80.8692 51.1138 82.0597 52.2703C83.2502 53.4281 84.8487 54.0056 86.8566 54.0056C88.4858 54.0056 89.735 53.6726 90.5985 53.0066C91.4648 52.3405 92.0964 51.4173 92.4988 50.2342H96.0731C95.5966 52.0693 94.6255 53.6614 93.1584 55.0061C91.6926 56.3522 89.5911 57.0239 86.858 57.0239C84.8012 57.0239 82.9889 56.6024 81.4211 55.7607C79.8548 54.919 78.6433 53.7176 77.791 52.1578C76.9386 50.5981 76.5124 48.763 76.5124 46.6496C76.5124 44.5363 76.926 42.7025 77.7546 41.1428L77.7532 41.1442ZM91.9343 44.7639C91.9343 43.0538 91.4956 41.7161 90.6181 40.7465C89.7406 39.7784 88.3615 39.295 86.4793 39.295C84.7243 39.295 83.2879 39.7657 82.1729 40.7086C81.0564 41.6515 80.3732 43.0046 80.123 44.7639H91.9343ZM100.384 36.843V39.9737C100.384 40.1508 100.472 40.2379 100.648 40.2379C100.748 40.2379 100.822 40.2126 100.874 40.162C100.926 40.1114 100.975 40.0116 101.024 39.8613C101.675 37.7999 103.293 36.7685 105.876 36.7685H107.531V40.162H105.386C103.705 40.162 102.452 40.5639 101.623 41.369C100.795 42.1742 100.381 43.4936 100.381 45.3302V56.4576H96.9953V36.8416H100.384V36.843ZM127.41 52.3265C126.52 53.8974 125.366 55.0736 123.949 55.852C122.532 56.6305 121.008 57.0211 119.378 57.0211C116.169 57.0211 113.911 55.7396 112.607 53.1738C112.507 52.9742 112.381 52.8731 112.231 52.8731C112.082 52.8731 112.005 52.9489 112.005 53.0993V63.6225H108.619V36.8444H112.005V40.2013C112.005 40.3517 112.08 40.4276 112.231 40.4276C112.382 40.4276 112.507 40.3264 112.607 40.1269C113.911 37.561 116.169 36.2795 119.378 36.2795C121.008 36.2795 122.532 36.6702 123.949 37.4486C125.366 38.2271 126.519 39.4032 127.41 40.9756C128.3 42.5466 128.746 44.4407 128.746 46.651C128.746 48.8613 128.3 50.7541 127.41 52.3265ZM123.498 41.2369C122.255 39.9414 120.619 39.2936 118.589 39.2936C116.559 39.2936 114.921 39.9414 113.68 41.2369C112.438 42.5325 111.983 44.3367 111.983 46.6496C111.983 48.9625 112.438 50.7681 113.68 52.0623C114.923 53.3579 116.559 54.0056 118.589 54.0056C120.619 54.0056 122.257 53.3593 123.498 52.0623C124.74 50.7667 125.36 48.9625 125.36 46.6496C125.36 44.3367 124.74 42.5325 123.498 41.2369ZM133.659 29.2987V56.4562H130.273V29.3015H133.659V29.2987ZM136.446 41.1428C137.274 39.5845 138.433 38.3845 139.927 37.54C141.418 36.6983 143.167 36.2767 145.172 36.2767C147.178 36.2767 148.842 36.6913 150.232 37.5217C151.624 38.3522 152.665 39.4524 153.354 40.8224C154.044 42.1939 154.388 43.696 154.388 45.3288V47.5911H138.778C138.904 49.5527 139.562 51.1124 140.753 52.2689C141.943 53.4267 143.542 54.0042 145.55 54.0042C147.179 54.0042 148.427 53.6712 149.292 53.0052C150.158 52.3391 150.79 51.4159 151.192 50.2328H154.766C154.29 52.0679 153.317 53.66 151.851 55.0047C150.386 56.3508 148.284 57.0225 145.551 57.0225C143.494 57.0225 141.682 56.601 140.114 55.7593C138.548 54.9176 137.336 53.7162 136.484 52.1564C135.632 50.5967 135.206 48.7616 135.206 46.6482C135.206 44.5349 135.619 42.7011 136.448 41.1414H136.446V41.1428ZM150.627 44.7625C150.627 43.0524 150.189 41.7147 149.311 40.7451C148.434 39.777 147.055 39.2936 145.172 39.2936C143.419 39.2936 141.981 39.7643 140.866 40.7072C139.75 41.6501 139.068 43.0032 138.816 44.7625H150.627ZM152.881 55.7017L160.629 46.0819L154.273 37.5962V36.8416H157.997L163.302 44.1583L169.02 36.8416H172.818V37.6341L165.521 46.6496L172.255 55.7017V56.4562H168.606L162.851 48.5733L156.683 56.4562H152.884V55.7017H152.881ZM177.733 30.458V34.703H173.779V30.458H177.733ZM177.528 56.4576H174.141V36.843H177.528V56.4576ZM178.596 36.843H182.279V31.5624H185.666V36.843H189.542L190.493 39.718H185.666V49.1016C185.666 50.3831 185.634 51.333 185.571 51.9499C185.508 52.5667 185.477 52.9377 185.477 53.0628C185.477 53.2398 185.526 53.3775 185.627 53.4773C185.727 53.5785 185.864 53.6276 186.042 53.6276C186.166 53.6276 186.536 53.5967 187.151 53.5335C187.765 53.4703 188.712 53.4394 189.992 53.4394H191.308V56.4562H188.676C186.518 56.4562 184.913 55.9293 183.861 54.8712C182.808 53.8145 182.28 52.207 182.28 50.0431V39.7166H178.598V36.8416H178.596V36.843ZM190.562 36.843H194.013L199.618 53.2988C199.695 53.5012 199.813 53.7668 200.198 53.7668C200.582 53.7668 200.701 53.4998 200.776 53.2988L206.381 36.843H209.6V37.5976L202.588 58.7579C201.986 60.5691 201.141 61.8324 200.051 62.549C198.96 63.2656 197.692 63.6239 195.584 63.6239H191.973V60.6071H194.72C195.598 60.6071 196.312 60.638 196.864 60.7012C197.414 60.7644 197.766 60.7954 197.917 60.7954C198.343 60.7954 198.631 60.6071 198.784 60.2305L199.837 57.364C199.963 57.0633 199.974 56.837 199.875 56.6839C199.825 56.5827 199.763 56.5195 199.688 56.4956C199.612 56.4703 199.499 56.4576 199.35 56.4576H197.055L190.565 36.8444H190.562V36.843ZM74.3606 52.3588C73.4706 53.9298 72.3164 55.1059 70.8995 55.8843C69.4827 56.6628 67.9582 57.0534 66.329 57.0534C63.1194 57.0534 60.8614 55.7719 59.5577 53.2061C59.4571 53.0066 59.3314 52.9054 59.1819 52.9054C59.0324 52.9054 58.9555 52.9813 58.9555 53.1316V63.6549H55.5699V36.8767H58.9555V40.2337C58.9555 40.384 59.031 40.4599 59.1819 40.4599C59.3328 40.4599 59.4571 40.3587 59.5577 40.1592C60.86 37.5934 63.1194 36.3119 66.329 36.3119C67.9582 36.3119 69.4827 36.7025 70.8995 37.481C72.3164 38.2594 73.4692 39.4355 74.3606 41.0065C75.2507 42.5775 75.6964 44.4716 75.6964 46.6833C75.6964 48.8951 75.2507 50.7878 74.3606 52.3588ZM70.4482 41.2693C69.206 39.9737 67.5698 39.3259 65.5395 39.3259C63.5093 39.3259 61.8717 39.9737 60.6309 41.2693C59.3887 42.5648 58.9332 44.369 58.9332 46.6819C58.9332 48.9948 59.3887 50.8005 60.6309 52.0946C61.8731 53.3902 63.5093 54.0379 65.5395 54.0379C67.5698 54.0379 69.2074 53.3916 70.4482 52.0946C71.6904 50.7991 72.3108 48.9948 72.3108 46.6819C72.3108 44.369 71.6904 42.5648 70.4482 41.2693Z" fill="#1A1E22"/>
</svg>
