<svg width="210" height="75" viewBox="0 0 210 75" fill="none" xmlns="http://www.w3.org/2000/svg">
<g clip-path="url(#clip0_2185_1080)">
<path d="M32.7188 30.9569L19.4973 44.2596H32.7188V30.9569ZM32.7188 30.9569V34.5989M19.4666 29.0001V79.3892M32.7188 57.5595L19.4973 44.2568M32.7188 57.5595V76.6304L19.4973 63.3277M32.7188 57.5595L19.4959 44.2568M32.7188 57.5595L32.7174 63.2507H38.3918V44.2568H19.4959M19.4973 44.2568V63.3277M19.4973 44.2568L6.27431 57.5595M19.4973 63.3277L6.27431 76.6304V57.5595M6.27431 57.5595L6.27292 63.2507H0.599976V44.2568H19.4959M6.27431 57.5595L19.4959 44.2568M19.4959 44.2596L6.27292 30.9569V44.2596H19.4959Z" stroke="#1A1E22" stroke-miterlimit="10"/>
<path d="M77.7532 47.1442C78.5818 45.5859 79.7402 44.3859 81.2339 43.5414C82.7248 42.6997 84.4742 42.2781 86.4807 42.2781C88.4872 42.2781 90.1486 42.6927 91.5389 43.5231C92.9306 44.3536 93.9716 45.4538 94.6604 46.8238C95.3493 48.1953 95.6944 49.6974 95.6944 51.3302V53.5925H80.0853C80.2111 55.5541 80.8692 57.1138 82.0597 58.2703C83.2502 59.4281 84.8487 60.0056 86.8566 60.0056C88.4858 60.0056 89.735 59.6726 90.5985 59.0066C91.4648 58.3405 92.0964 57.4173 92.4988 56.2342H96.0731C95.5966 58.0693 94.6255 59.6614 93.1584 61.0061C91.6926 62.3522 89.5911 63.0239 86.858 63.0239C84.8012 63.0239 82.9889 62.6024 81.4211 61.7607C79.8548 60.919 78.6433 59.7176 77.791 58.1578C76.9386 56.5981 76.5124 54.763 76.5124 52.6496C76.5124 50.5363 76.926 48.7025 77.7546 47.1428L77.7532 47.1442ZM91.9343 50.7639C91.9343 49.0538 91.4956 47.7161 90.6181 46.7465C89.7406 45.7784 88.3615 45.295 86.4793 45.295C84.7243 45.295 83.2879 45.7657 82.1729 46.7086C81.0564 47.6515 80.3732 49.0046 80.123 50.7639H91.9343ZM100.384 42.843V45.9737C100.384 46.1508 100.472 46.2379 100.648 46.2379C100.748 46.2379 100.822 46.2126 100.874 46.162C100.926 46.1114 100.975 46.0116 101.024 45.8613C101.675 43.7999 103.293 42.7685 105.876 42.7685H107.531V46.162H105.386C103.705 46.162 102.452 46.5639 101.623 47.369C100.795 48.1742 100.381 49.4936 100.381 51.3302V62.4576H96.9953V42.8416H100.384V42.843ZM127.41 58.3265C126.52 59.8974 125.366 61.0736 123.949 61.852C122.532 62.6305 121.008 63.0211 119.378 63.0211C116.169 63.0211 113.911 61.7396 112.607 59.1738C112.507 58.9742 112.381 58.8731 112.231 58.8731C112.082 58.8731 112.005 58.9489 112.005 59.0993V69.6225H108.619V42.8444H112.005V46.2013C112.005 46.3517 112.08 46.4276 112.231 46.4276C112.382 46.4276 112.507 46.3264 112.607 46.1269C113.911 43.561 116.169 42.2795 119.378 42.2795C121.008 42.2795 122.532 42.6702 123.949 43.4486C125.366 44.2271 126.519 45.4032 127.41 46.9756C128.3 48.5466 128.746 50.4407 128.746 52.651C128.746 54.8613 128.3 56.7541 127.41 58.3265ZM123.498 47.2369C122.255 45.9414 120.619 45.2936 118.589 45.2936C116.559 45.2936 114.921 45.9414 113.68 47.2369C112.438 48.5325 111.983 50.3367 111.983 52.6496C111.983 54.9625 112.438 56.7681 113.68 58.0623C114.923 59.3579 116.559 60.0056 118.589 60.0056C120.619 60.0056 122.257 59.3593 123.498 58.0623C124.74 56.7667 125.36 54.9625 125.36 52.6496C125.36 50.3367 124.74 48.5325 123.498 47.2369ZM133.659 35.2987V62.4562H130.273V35.3015H133.659V35.2987ZM136.446 47.1428C137.274 45.5845 138.433 44.3845 139.927 43.54C141.418 42.6983 143.167 42.2767 145.172 42.2767C147.178 42.2767 148.842 42.6913 150.232 43.5217C151.624 44.3522 152.665 45.4524 153.354 46.8224C154.044 48.1939 154.388 49.696 154.388 51.3288V53.5911H138.778C138.904 55.5527 139.562 57.1124 140.753 58.2689C141.943 59.4267 143.542 60.0042 145.55 60.0042C147.179 60.0042 148.427 59.6712 149.292 59.0052C150.158 58.3391 150.79 57.4159 151.192 56.2328H154.766C154.29 58.0679 153.317 59.66 151.851 61.0047C150.386 62.3508 148.284 63.0225 145.551 63.0225C143.494 63.0225 141.682 62.601 140.114 61.7593C138.548 60.9176 137.336 59.7162 136.484 58.1564C135.632 56.5967 135.206 54.7616 135.206 52.6482C135.206 50.5349 135.619 48.7011 136.448 47.1414H136.446V47.1428ZM150.627 50.7625C150.627 49.0524 150.189 47.7147 149.311 46.7451C148.434 45.777 147.055 45.2936 145.172 45.2936C143.419 45.2936 141.981 45.7643 140.866 46.7072C139.75 47.6501 139.068 49.0032 138.816 50.7625H150.627ZM152.881 61.7017L160.629 52.0819L154.273 43.5962V42.8416H157.997L163.302 50.1583L169.02 42.8416H172.818V43.6341L165.521 52.6496L172.255 61.7017V62.4562H168.606L162.851 54.5733L156.683 62.4562H152.884V61.7017H152.881ZM177.733 36.458V40.703H173.779V36.458H177.733ZM177.528 62.4576H174.141V42.843H177.528V62.4576ZM178.596 42.843H182.279V37.5624H185.666V42.843H189.542L190.493 45.718H185.666V55.1016C185.666 56.3831 185.634 57.333 185.571 57.9499C185.508 58.5667 185.477 58.9377 185.477 59.0628C185.477 59.2398 185.526 59.3775 185.627 59.4773C185.727 59.5785 185.864 59.6276 186.042 59.6276C186.166 59.6276 186.536 59.5967 187.151 59.5335C187.765 59.4703 188.712 59.4394 189.992 59.4394H191.308V62.4562H188.676C186.518 62.4562 184.913 61.9293 183.861 60.8712C182.808 59.8145 182.28 58.207 182.28 56.0431V45.7166H178.598V42.8416H178.596V42.843ZM190.562 42.843H194.013L199.618 59.2988C199.695 59.5012 199.813 59.7668 200.198 59.7668C200.582 59.7668 200.701 59.4998 200.776 59.2988L206.381 42.843H209.6V43.5976L202.588 64.7579C201.986 66.5691 201.141 67.8324 200.051 68.549C198.96 69.2656 197.692 69.6239 195.584 69.6239H191.973V66.6071H194.72C195.598 66.6071 196.312 66.638 196.864 66.7012C197.414 66.7644 197.766 66.7954 197.917 66.7954C198.343 66.7954 198.631 66.6071 198.784 66.2305L199.837 63.364C199.963 63.0633 199.974 62.837 199.875 62.6839C199.825 62.5827 199.763 62.5195 199.688 62.4956C199.612 62.4703 199.499 62.4576 199.35 62.4576H197.055L190.565 42.8444H190.562V42.843ZM74.3606 58.3588C73.4706 59.9298 72.3164 61.1059 70.8995 61.8843C69.4827 62.6628 67.9582 63.0534 66.329 63.0534C63.1194 63.0534 60.8614 61.7719 59.5577 59.2061C59.4571 59.0066 59.3314 58.9054 59.1819 58.9054C59.0324 58.9054 58.9555 58.9813 58.9555 59.1316V69.6549H55.5699V42.8767H58.9555V46.2337C58.9555 46.384 59.031 46.4599 59.1819 46.4599C59.3328 46.4599 59.4571 46.3587 59.5577 46.1592C60.86 43.5934 63.1194 42.3119 66.329 42.3119C67.9582 42.3119 69.4827 42.7025 70.8995 43.481C72.3164 44.2594 73.4692 45.4355 74.3606 47.0065C75.2507 48.5775 75.6964 50.4716 75.6964 52.6833C75.6964 54.8951 75.2507 56.7878 74.3606 58.3588ZM70.4482 47.2693C69.206 45.9737 67.5698 45.3259 65.5395 45.3259C63.5093 45.3259 61.8717 45.9737 60.6309 47.2693C59.3887 48.5648 58.9332 50.369 58.9332 52.6819C58.9332 54.9948 59.3887 56.8005 60.6309 58.0946C61.8731 59.3902 63.5093 60.0379 65.5395 60.0379C67.5698 60.0379 69.2074 59.3916 70.4482 58.0946C71.6904 56.7991 72.3108 54.9948 72.3108 52.6819C72.3108 50.369 71.6904 48.5648 70.4482 47.2693Z" fill="#1A1E22"/>
</g>
<defs>
<clipPath id="clip0_2185_1080">
<rect width="210" height="75" fill="white"/>
</clipPath>
</defs>
</svg>
