<svg width="281" height="90" viewBox="0 0 281 90" fill="none" xmlns="http://www.w3.org/2000/svg">
<path d="M69.1188 21.9568L55.8973 35.2595H69.1188V21.9568ZM69.1188 21.9568V25.5988M55.8666 20V70.389M69.1188 48.5594L55.8973 35.2567M69.1188 48.5594V67.6302L55.8973 54.3275M69.1188 48.5594L55.8959 35.2567M69.1188 48.5594L69.1174 54.2505H74.7918V35.2567H55.8959M55.8973 35.2567V54.3275M55.8973 35.2567L42.6743 48.5594M55.8973 54.3275L42.6743 67.6302V48.5594M42.6743 48.5594L42.6729 54.2505H37V35.2567H55.8959M42.6743 48.5594L55.8959 35.2567M55.8959 35.2595L42.6729 21.9568V35.2595H55.8959Z" stroke="#1A1E22" stroke-miterlimit="10"/>
<path d="M114.153 38.1443C114.982 36.586 116.14 35.386 117.634 34.5415C119.125 33.6998 120.874 33.2783 122.881 33.2783C124.887 33.2783 126.548 33.6928 127.939 34.5232C129.33 35.3537 130.371 36.4539 131.06 37.8239C131.749 39.1954 132.094 40.6975 132.094 42.3303V44.5926H116.485C116.611 46.5542 117.269 48.1139 118.46 49.2704C119.65 50.4282 121.249 51.0058 123.256 51.0058C124.886 51.0058 126.135 50.6727 126.998 50.0067C127.865 49.3406 128.496 48.4174 128.899 47.2343H132.473C131.996 49.0694 131.025 50.6615 129.558 52.0062C128.092 53.3524 125.991 54.024 123.258 54.024C121.201 54.024 119.389 53.6025 117.821 52.7608C116.255 51.9191 115.043 50.7177 114.191 49.158C113.338 47.5982 112.912 45.7631 112.912 43.6497C112.912 41.5364 113.326 39.7026 114.154 38.1429L114.153 38.1443ZM128.334 41.764C128.334 40.0539 127.895 38.7162 127.018 37.7467C126.14 36.7785 124.761 36.2951 122.879 36.2951C121.124 36.2951 119.688 36.7659 118.573 37.7087C117.456 38.6516 116.773 40.0048 116.523 41.764H128.334ZM136.784 33.8431V36.9738C136.784 37.1509 136.872 37.238 137.048 37.238C137.148 37.238 137.222 37.2127 137.274 37.1621C137.326 37.1115 137.375 37.0118 137.424 36.8614C138.075 34.8 139.693 33.7687 142.276 33.7687H143.931V37.1621H141.786C140.105 37.1621 138.852 37.564 138.023 38.3692C137.194 39.1743 136.781 40.4938 136.781 42.3303V53.4578H133.395V33.8417H136.784V33.8431ZM163.81 49.3266C162.92 50.8976 161.766 52.0737 160.349 52.8521C158.932 53.6306 157.408 54.0212 155.778 54.0212C152.569 54.0212 150.311 52.7397 149.007 50.1739C148.906 49.9744 148.781 49.8732 148.631 49.8732C148.482 49.8732 148.405 49.9491 148.405 50.0994V60.6227H145.019V33.8445H148.405V37.2015C148.405 37.3518 148.48 37.4277 148.631 37.4277C148.782 37.4277 148.906 37.3265 149.007 37.127C150.311 34.5612 152.569 33.2797 155.778 33.2797C157.408 33.2797 158.932 33.6703 160.349 34.4488C161.766 35.2272 162.918 36.4033 163.81 37.9757C164.7 39.5467 165.146 41.4408 165.146 43.6511C165.146 45.8615 164.7 47.7542 163.81 49.3266ZM159.898 38.2371C158.655 36.9415 157.019 36.2937 154.989 36.2937C152.959 36.2937 151.321 36.9415 150.08 38.2371C148.838 39.5326 148.382 41.3368 148.382 43.6497C148.382 45.9626 148.838 47.7683 150.08 49.0624C151.322 50.358 152.959 51.0058 154.989 51.0058C157.019 51.0058 158.657 50.3594 159.898 49.0624C161.14 47.7669 161.76 45.9626 161.76 43.6497C161.76 41.3368 161.14 39.5326 159.898 38.2371ZM170.059 26.2988V53.4564H166.673V26.3016H170.059V26.2988ZM172.846 38.1429C173.673 36.5846 174.833 35.3846 176.327 34.5401C177.818 33.6984 179.567 33.2769 181.572 33.2769C183.577 33.2769 185.242 33.6914 186.632 34.5218C188.024 35.3523 189.065 36.4525 189.753 37.8225C190.444 39.194 190.787 40.6961 190.787 42.3289V44.5912H175.178C175.304 46.5528 175.962 48.1125 177.153 49.269C178.343 50.4268 179.942 51.0043 181.95 51.0043C183.579 51.0043 184.827 50.6713 185.691 50.0053C186.558 49.3392 187.189 48.416 187.592 47.2329H191.166C190.69 49.068 189.717 50.6601 188.251 52.0048C186.786 53.351 184.684 54.0226 181.951 54.0226C179.894 54.0226 178.082 53.6011 176.514 52.7594C174.948 51.9177 173.736 50.7163 172.884 49.1566C172.032 47.5968 171.605 45.7617 171.605 43.6483C171.605 41.535 172.019 39.7012 172.848 38.1415H172.846V38.1429ZM187.027 41.7626C187.027 40.0525 186.589 38.7148 185.711 37.7453C184.834 36.7771 183.454 36.2937 181.572 36.2937C179.819 36.2937 178.381 36.7645 177.266 37.7073C176.149 38.6502 175.468 40.0034 175.216 41.7626H187.027ZM189.281 52.7018L197.029 43.0821L190.673 34.5963V33.8417H194.397L199.702 41.1584L205.42 33.8417H209.218V34.6342L201.921 43.6497L208.655 52.7018V53.4564H205.006L199.251 45.5734L193.083 53.4564H189.284V52.7018H189.281ZM214.133 27.4581V31.7031H210.179V27.4581H214.133ZM213.928 53.4578H210.541V33.8431H213.928V53.4578ZM214.995 33.8431H218.679V28.5625H222.066V33.8431H225.942L226.893 36.7181H222.066V46.1017C222.066 47.3833 222.034 48.3331 221.971 48.95C221.908 49.5669 221.877 49.9378 221.877 50.0629C221.877 50.2399 221.926 50.3776 222.027 50.4774C222.127 50.5786 222.264 50.6278 222.442 50.6278C222.566 50.6278 222.936 50.5969 223.551 50.5336C224.164 50.4704 225.112 50.4395 226.392 50.4395H227.708V53.4564H225.075C222.918 53.4564 221.313 52.9294 220.26 51.8713C219.208 50.8147 218.68 49.2071 218.68 47.0432V36.7167H214.998V33.8417H214.995V33.8431ZM226.962 33.8431H230.413L236.018 50.299C236.094 50.5013 236.213 50.7669 236.597 50.7669C236.982 50.7669 237.101 50.4999 237.176 50.299L242.78 33.8431H246V34.5977L238.988 55.758C238.386 57.5693 237.541 58.8325 236.451 59.5491C235.359 60.2658 234.092 60.6241 231.984 60.6241H228.373V57.6072H231.12C231.998 57.6072 232.712 57.6381 233.264 57.7013C233.814 57.7646 234.166 57.7955 234.317 57.7955C234.743 57.7955 235.031 57.6072 235.183 57.2306L236.237 54.3641C236.363 54.0634 236.374 53.8371 236.275 53.684C236.224 53.5828 236.163 53.5196 236.087 53.4957C236.012 53.4704 235.899 53.4578 235.749 53.4578H233.455L226.965 33.8445H226.962V33.8431ZM110.76 49.3589C109.87 50.9299 108.716 52.106 107.299 52.8845C105.883 53.6629 104.358 54.0535 102.729 54.0535C99.5193 54.0535 97.2613 52.772 95.9576 50.2062C95.857 50.0067 95.7312 49.9055 95.5817 49.9055C95.4322 49.9055 95.3554 49.9814 95.3554 50.1317V60.655H91.9697V33.8769H95.3554V37.2338C95.3554 37.3841 95.4308 37.46 95.5817 37.46C95.7326 37.46 95.857 37.3588 95.9576 37.1593C97.2599 34.5935 99.5193 33.312 102.729 33.312C104.358 33.312 105.883 33.7026 107.299 34.4811C108.716 35.2595 109.869 36.4357 110.76 38.0066C111.651 39.5776 112.096 41.4717 112.096 43.6835C112.096 45.8952 111.651 47.7879 110.76 49.3589ZM106.848 38.2694C105.606 36.9738 103.97 36.326 101.939 36.326C99.9091 36.326 98.2715 36.9738 97.0307 38.2694C95.7885 39.5649 95.333 41.3692 95.333 43.6821C95.333 45.995 95.7885 47.8006 97.0307 49.0947C98.2729 50.3903 99.9091 51.0381 101.939 51.0381C103.97 51.0381 105.607 50.3917 106.848 49.0947C108.09 47.7992 108.711 45.995 108.711 43.6821C108.711 41.3692 108.09 39.5649 106.848 38.2694Z" fill="#1A1E22"/>
</svg>
