<svg width="300" height="75" viewBox="0 0 300 75" fill="none" xmlns="http://www.w3.org/2000/svg">
<path d="M78.1188 24.9568L64.8973 38.2595H78.1188V24.9568ZM78.1188 24.9568V28.5988M64.8666 23.0001V73.3891M78.1188 51.5594L64.8973 38.2567M78.1188 51.5594V70.6303L64.8973 57.3276M78.1188 51.5594L64.8959 38.2567M78.1188 51.5594L78.1174 57.2506H83.7918V38.2567H64.8959M64.8973 38.2567V57.3276M64.8973 38.2567L51.6743 51.5594M64.8973 57.3276L51.6743 70.6303V51.5594M51.6743 51.5594L51.6729 57.2506H46V38.2567H64.8959M51.6743 51.5594L64.8959 38.2567M64.8959 38.2595L51.6729 24.9568V38.2595H64.8959Z" stroke="#1A1E22" stroke-miterlimit="10"/>
<path d="M123.153 41.1442C123.982 39.5859 125.14 38.3859 126.634 37.5414C128.125 36.6997 129.874 36.2781 131.881 36.2781C133.887 36.2781 135.549 36.6927 136.939 37.5231C138.331 38.3536 139.372 39.4538 140.06 40.8238C140.749 42.1953 141.094 43.6974 141.094 45.3302V47.5925H125.485C125.611 49.5541 126.269 51.1138 127.46 52.2703C128.65 53.4281 130.249 54.0056 132.257 54.0056C133.886 54.0056 135.135 53.6726 135.999 53.0066C136.865 52.3405 137.496 51.4173 137.899 50.2342H141.473C140.997 52.0693 140.026 53.6614 138.558 55.0061C137.093 56.3522 134.991 57.0239 132.258 57.0239C130.201 57.0239 128.389 56.6024 126.821 55.7607C125.255 54.919 124.043 53.7176 123.191 52.1578C122.339 50.5981 121.912 48.763 121.912 46.6496C121.912 44.5363 122.326 42.7025 123.155 41.1428L123.153 41.1442ZM137.334 44.7639C137.334 43.0538 136.896 41.7161 136.018 40.7465C135.141 39.7784 133.761 39.295 131.879 39.295C130.124 39.295 128.688 39.7657 127.573 40.7086C126.456 41.6515 125.773 43.0046 125.523 44.7639H137.334ZM145.784 36.843V39.9737C145.784 40.1508 145.872 40.2379 146.048 40.2379C146.148 40.2379 146.223 40.2126 146.274 40.162C146.326 40.1114 146.375 40.0116 146.424 39.8613C147.075 37.7999 148.693 36.7685 151.276 36.7685H152.931V40.162H150.786C149.105 40.162 147.852 40.5639 147.023 41.369C146.195 42.1742 145.781 43.4936 145.781 45.3302V56.4576H142.395V36.8416H145.784V36.843ZM172.81 52.3265C171.92 53.8974 170.766 55.0736 169.349 55.852C167.932 56.6305 166.408 57.0211 164.778 57.0211C161.569 57.0211 159.311 55.7396 158.007 53.1738C157.907 52.9742 157.781 52.8731 157.631 52.8731C157.482 52.8731 157.405 52.9489 157.405 53.0993V63.6225H154.019V36.8444H157.405V40.2013C157.405 40.3517 157.48 40.4276 157.631 40.4276C157.782 40.4276 157.907 40.3264 158.007 40.1269C159.311 37.561 161.569 36.2795 164.778 36.2795C166.408 36.2795 167.932 36.6702 169.349 37.4486C170.766 38.2271 171.919 39.4032 172.81 40.9756C173.7 42.5466 174.146 44.4407 174.146 46.651C174.146 48.8613 173.7 50.7541 172.81 52.3265ZM168.898 41.2369C167.656 39.9414 166.019 39.2936 163.989 39.2936C161.959 39.2936 160.321 39.9414 159.08 41.2369C157.838 42.5325 157.383 44.3367 157.383 46.6496C157.383 48.9625 157.838 50.7681 159.08 52.0623C160.323 53.3579 161.959 54.0056 163.989 54.0056C166.019 54.0056 167.657 53.3593 168.898 52.0623C170.14 50.7667 170.76 48.9625 170.76 46.6496C170.76 44.3367 170.14 42.5325 168.898 41.2369ZM179.059 29.2987V56.4562H175.673V29.3015H179.059V29.2987ZM181.846 41.1428C182.674 39.5845 183.833 38.3845 185.327 37.54C186.818 36.6983 188.567 36.2767 190.572 36.2767C192.578 36.2767 194.242 36.6913 195.632 37.5217C197.024 38.3522 198.065 39.4524 198.754 40.8224C199.444 42.1939 199.788 43.696 199.788 45.3288V47.5911H184.178C184.304 49.5527 184.962 51.1124 186.153 52.2689C187.343 53.4267 188.942 54.0042 190.95 54.0042C192.579 54.0042 193.827 53.6712 194.692 53.0052C195.558 52.3391 196.19 51.4159 196.592 50.2328H200.166C199.69 52.0679 198.717 53.66 197.251 55.0047C195.786 56.3508 193.684 57.0225 190.951 57.0225C188.894 57.0225 187.082 56.601 185.514 55.7593C183.948 54.9176 182.736 53.7162 181.884 52.1564C181.032 50.5967 180.606 48.7616 180.606 46.6482C180.606 44.5349 181.019 42.7011 181.848 41.1414H181.846V41.1428ZM196.027 44.7625C196.027 43.0524 195.589 41.7147 194.711 40.7451C193.834 39.777 192.455 39.2936 190.572 39.2936C188.819 39.2936 187.381 39.7643 186.266 40.7072C185.15 41.6501 184.468 43.0032 184.216 44.7625H196.027ZM198.281 55.7017L206.029 46.0819L199.673 37.5962V36.8416H203.397L208.702 44.1583L214.42 36.8416H218.218V37.6341L210.921 46.6496L217.655 55.7017V56.4562H214.006L208.251 48.5733L202.083 56.4562H198.284V55.7017H198.281ZM223.133 30.458V34.703H219.179V30.458H223.133ZM222.928 56.4576H219.541V36.843H222.928V56.4576ZM223.996 36.843H227.679V31.5624H231.066V36.843H234.942L235.894 39.718H231.066V49.1016C231.066 50.3831 231.034 51.333 230.971 51.9499C230.908 52.5667 230.877 52.9377 230.877 53.0628C230.877 53.2398 230.926 53.3775 231.027 53.4773C231.127 53.5785 231.264 53.6276 231.442 53.6276C231.566 53.6276 231.936 53.5967 232.551 53.5335C233.165 53.4703 234.112 53.4394 235.392 53.4394H236.708V56.4562H234.076C231.918 56.4562 230.313 55.9293 229.261 54.8712C228.208 53.8145 227.68 52.207 227.68 50.0431V39.7166H223.998V36.8416H223.996V36.843ZM235.962 36.843H239.413L245.018 53.2988C245.095 53.5012 245.213 53.7668 245.598 53.7668C245.982 53.7668 246.101 53.4998 246.176 53.2988L251.781 36.843H255V37.5976L247.988 58.7579C247.386 60.5691 246.541 61.8324 245.451 62.549C244.36 63.2656 243.092 63.6239 240.984 63.6239H237.373V60.6071H240.12C240.998 60.6071 241.712 60.638 242.264 60.7012C242.814 60.7644 243.166 60.7954 243.317 60.7954C243.743 60.7954 244.031 60.6071 244.184 60.2305L245.237 57.364C245.363 57.0633 245.374 56.837 245.275 56.6839C245.225 56.5827 245.163 56.5195 245.088 56.4956C245.012 56.4703 244.899 56.4576 244.75 56.4576H242.455L235.965 36.8444H235.962V36.843ZM119.761 52.3588C118.871 53.9298 117.716 55.1059 116.3 55.8843C114.883 56.6628 113.358 57.0534 111.729 57.0534C108.519 57.0534 106.261 55.7719 104.958 53.2061C104.857 53.0066 104.731 52.9054 104.582 52.9054C104.432 52.9054 104.356 52.9813 104.356 53.1316V63.6549H100.97V36.8767H104.356V40.2337C104.356 40.384 104.431 40.4599 104.582 40.4599C104.733 40.4599 104.857 40.3587 104.958 40.1592C106.26 37.5934 108.519 36.3119 111.729 36.3119C113.358 36.3119 114.883 36.7025 116.3 37.481C117.716 38.2594 118.869 39.4355 119.761 41.0065C120.651 42.5775 121.096 44.4716 121.096 46.6833C121.096 48.8951 120.651 50.7878 119.761 52.3588ZM115.848 41.2693C114.606 39.9737 112.97 39.3259 110.94 39.3259C108.909 39.3259 107.272 39.9737 106.031 41.2693C104.789 42.5648 104.333 44.369 104.333 46.6819C104.333 48.9948 104.789 50.8005 106.031 52.0946C107.273 53.3902 108.909 54.0379 110.94 54.0379C112.97 54.0379 114.607 53.3916 115.848 52.0946C117.09 50.7991 117.711 48.9948 117.711 46.6819C117.711 44.369 117.09 42.5648 115.848 41.2693Z" fill="#1A1E22"/>
</svg>
