<svg width="221" height="75" viewBox="0 0 221 75" fill="none" xmlns="http://www.w3.org/2000/svg">
<g clip-path="url(#clip0_2185_1080)">
<path d="M34.6556 28.0583L20.8015 42.0503H34.6556V28.0583ZM34.6556 28.0583V31.889M20.7694 26.0001V79.0001M34.6556 56.0393L20.8015 42.0473M34.6556 56.0393V76.0984L20.8015 62.1064M34.6556 56.0393L20.8 42.0473M34.6556 56.0393L34.6542 62.0254H40.6V42.0473H20.8M20.8015 42.0473V62.1064M20.8015 42.0473L6.94584 56.0393M20.8015 62.1064L6.94584 76.0984V56.0393M6.94584 56.0393L6.94438 62.0254H1V42.0473H20.8M6.94584 56.0393L20.8 42.0473M20.8 42.0503L6.94438 28.0583V42.0503H20.8Z" stroke="#1A1E22" stroke-miterlimit="10"/>
<path d="M81.8448 45.0844C82.7131 43.4453 83.9268 42.1832 85.492 41.2949C87.0542 40.4096 88.8874 39.9662 90.9899 39.9662C93.0924 39.9662 94.8332 40.4022 96.2901 41.2757C97.7484 42.1492 98.8392 43.3064 99.561 44.7474C100.283 46.1899 100.644 47.7699 100.644 49.4873V51.8668H84.2885C84.4202 53.9301 85.1099 55.5706 86.3573 56.787C87.6048 58.0048 89.2797 58.6123 91.3837 58.6123C93.0909 58.6123 94.3999 58.262 95.3047 57.5614C96.2125 56.8609 96.8743 55.8898 97.2959 54.6454H101.041C100.542 56.5756 99.5244 58.2502 97.987 59.6646C96.4511 61.0805 94.2491 61.7869 91.3852 61.7869C89.23 61.7869 87.331 61.3436 85.6882 60.4582C84.0469 59.5729 82.7775 58.3093 81.8843 56.6687C80.9912 55.0282 80.5447 53.098 80.5447 50.8751C80.5447 48.6522 80.978 46.7235 81.8463 45.0829L81.8448 45.0844ZM96.7044 48.8917C96.7044 47.093 96.2447 45.6859 95.3252 44.6661C94.4057 43.6478 92.9606 43.1394 90.9884 43.1394C89.1494 43.1394 87.6443 43.6345 86.4759 44.6262C85.3061 45.618 84.5901 47.0412 84.328 48.8917H96.7044ZM105.558 40.5603V43.8533C105.558 44.0395 105.65 44.1311 105.835 44.1311C105.94 44.1311 106.018 44.1045 106.072 44.0513C106.126 43.9981 106.177 43.8932 106.229 43.735C106.911 41.5668 108.606 40.482 111.314 40.482H113.047V44.0513H110.8C109.038 44.0513 107.725 44.474 106.857 45.3209C105.989 46.1678 105.555 47.5556 105.555 49.4873V61.1913H102.008V40.5589H105.558V40.5603ZM133.878 56.8461C132.945 58.4985 131.736 59.7355 130.251 60.5543C128.766 61.3731 127.169 61.784 125.462 61.784C122.099 61.784 119.733 60.4361 118.366 57.7373C118.261 57.5274 118.129 57.421 117.973 57.421C117.816 57.421 117.735 57.5008 117.735 57.659V68.7275H114.188V40.5618H117.735V44.0927C117.735 44.2508 117.814 44.3306 117.973 44.3306C118.131 44.3306 118.261 44.2242 118.366 44.0144C119.733 41.3156 122.099 39.9677 125.462 39.9677C127.169 39.9677 128.766 40.3786 130.251 41.1973C131.736 42.0161 132.944 43.2532 133.878 44.907C134.81 46.5594 135.277 48.5517 135.277 50.8766C135.277 53.2014 134.81 55.1922 133.878 56.8461ZM129.778 45.182C128.476 43.8193 126.762 43.1379 124.634 43.1379C122.507 43.1379 120.791 43.8193 119.491 45.182C118.189 46.5446 117.712 48.4424 117.712 50.8751C117.712 53.3078 118.189 55.207 119.491 56.5682C120.793 57.9309 122.507 58.6123 124.634 58.6123C126.762 58.6123 128.478 57.9324 129.778 56.5682C131.08 55.2055 131.73 53.3078 131.73 50.8751C131.73 48.4424 131.08 46.5446 129.778 45.182ZM140.425 32.6251V61.1898H136.878V32.6281H140.425V32.6251ZM143.346 45.0829C144.213 43.4439 145.428 42.1817 146.993 41.2934C148.556 40.4081 150.389 39.9647 152.49 39.9647C154.591 39.9647 156.335 40.4007 157.792 41.2742C159.25 42.1477 160.341 43.3049 161.062 44.746C161.786 46.1885 162.146 47.7684 162.146 49.4858V51.8653H145.79C145.922 53.9286 146.611 55.5691 147.859 56.7855C149.106 58.0033 150.781 58.6108 152.885 58.6108C154.592 58.6108 155.9 58.2605 156.806 57.5599C157.714 56.8594 158.376 55.8884 158.797 54.6439H162.543C162.043 56.5741 161.024 58.2487 159.488 59.6631C157.953 61.079 155.751 61.7855 152.887 61.7855C150.731 61.7855 148.832 61.3421 147.19 60.4568C145.548 59.5715 144.279 58.3078 143.386 56.6673C142.493 55.0267 142.046 53.0965 142.046 50.8736C142.046 48.6507 142.479 46.722 143.348 45.0815H143.346V45.0829ZM158.206 48.8902C158.206 47.0915 157.746 45.6845 156.827 44.6647C155.907 43.6463 154.462 43.1379 152.49 43.1379C150.652 43.1379 149.146 43.633 147.977 44.6248C146.807 45.6165 146.093 47.0398 145.829 48.8902H158.206ZM160.568 60.3962L168.686 50.278L162.026 41.3525V40.5589H165.928L171.487 48.2547L177.478 40.5589H181.458V41.3924L173.812 50.8751L180.868 60.3962V61.1898H177.045L171.014 52.8984L164.551 61.1898H160.57V60.3962H160.568ZM186.609 33.8444V38.3094H182.465V33.8444H186.609ZM186.394 61.1913H182.845V40.5603H186.394V61.1913ZM187.512 40.5603H191.372V35.0061H194.921V40.5603H198.982L199.979 43.5843H194.921V53.4542C194.921 54.8021 194.887 55.8012 194.821 56.45C194.755 57.0988 194.723 57.489 194.723 57.6205C194.723 57.8068 194.774 57.9516 194.88 58.0565C194.985 58.163 195.129 58.2147 195.315 58.2147C195.445 58.2147 195.833 58.1822 196.477 58.1157C197.12 58.0492 198.113 58.0166 199.454 58.0166H200.833V61.1898H198.075C195.814 61.1898 194.132 60.6356 193.029 59.5227C191.927 58.4113 191.373 56.7205 191.373 54.4444V43.5828H187.515V40.5589H187.512V40.5603ZM200.051 40.5603H203.668L209.54 57.8688C209.621 58.0817 209.745 58.361 210.148 58.361C210.551 58.361 210.675 58.0802 210.754 57.8688L216.627 40.5603H220V41.354L212.653 63.6108C212.022 65.5159 211.136 66.8446 209.994 67.5983C208.851 68.3521 207.523 68.729 205.313 68.729H201.53V65.5558H204.408C205.328 65.5558 206.076 65.5883 206.654 65.6548C207.231 65.7213 207.6 65.7538 207.758 65.7538C208.205 65.7538 208.507 65.5558 208.666 65.1597L209.77 62.1446C209.902 61.8283 209.914 61.5904 209.81 61.4293C209.757 61.3229 209.693 61.2564 209.614 61.2312C209.534 61.2046 209.416 61.1913 209.259 61.1913H206.855L200.054 40.5618H200.051V40.5603ZM78.2899 56.8801C77.3572 58.5325 76.1478 59.7695 74.6632 60.5883C73.1785 61.4071 71.5812 61.818 69.874 61.818C66.5108 61.818 64.1448 60.4701 62.7787 57.7713C62.6733 57.5614 62.5415 57.455 62.3849 57.455C62.2282 57.455 62.1477 57.5348 62.1477 57.693V68.7615H58.6V40.5958H62.1477V44.1267C62.1477 44.2848 62.2267 44.3646 62.3849 44.3646C62.543 44.3646 62.6733 44.2582 62.7787 44.0483C64.1433 41.3496 66.5108 40.0017 69.874 40.0017C71.5812 40.0017 73.1785 40.4125 74.6632 41.2313C76.1478 42.0501 77.3557 43.2872 78.2899 44.9396C79.2225 46.5919 79.6896 48.5842 79.6896 50.9106C79.6896 53.2369 79.2225 55.2277 78.2899 56.8801ZM74.1903 45.2159C72.8886 43.8533 71.1741 43.1719 69.0467 43.1719C66.9193 43.1719 65.2033 43.8533 63.9032 45.2159C62.6015 46.5786 62.1242 48.4763 62.1242 50.9091C62.1242 53.3418 62.6015 55.241 63.9032 56.6022C65.2048 57.9649 66.9193 58.6463 69.0467 58.6463C71.1741 58.6463 72.8901 57.9664 74.1903 56.6022C75.4919 55.2395 76.142 53.3418 76.142 50.9091C76.142 48.4763 75.4919 46.5786 74.1903 45.2159Z" fill="#1A1E22"/>
</g>
<defs>
<clipPath id="clip0_2185_1080">
<rect width="220.2" height="75" fill="white"/>
</clipPath>
</defs>
</svg>
