<svg width="993" height="247" viewBox="0 0 993 247" fill="none" xmlns="http://www.w3.org/2000/svg">
<path d="M146.166 66.8077L133.406 79.6079C154.286 100.554 154.286 134.3 133.406 154.858C112.527 175.804 78.8884 175.804 58.3958 154.858C37.5165 133.912 37.5165 100.166 58.3958 79.6079L96.0944 41.7891V16.7705L46.2162 66.8077C18.3772 94.7355 18.3772 139.73 46.2162 167.658C74.0552 195.586 118.907 195.586 146.166 167.658C174.005 139.536 174.005 94.7355 146.166 66.8077Z" fill="#1A1E22"/>
<path d="M130.507 54.3956C130.507 59.537 126.352 63.7049 121.227 63.7049C116.102 63.7049 111.948 59.537 111.948 54.3956C111.948 49.2542 116.102 45.0864 121.227 45.0864C126.352 45.0864 130.507 49.2542 130.507 54.3956Z" fill="#1A1E22"/>
<path d="M275.115 130.809H253.655V186.083H237.416V28.7954H276.855C318.033 28.7954 337.753 49.1594 337.753 77.669C338.333 112.773 313.973 130.809 275.115 130.809ZM276.855 44.5047C275.115 44.5047 254.235 44.5047 254.235 44.5047V116.845L276.275 116.264C305.854 115.682 322.093 104.045 322.093 79.6084C322.093 56.7231 305.854 44.5047 276.855 44.5047Z" fill="#1A1E22"/>
<path d="M410.443 185.501L401.164 210.52C390.724 238.448 379.704 246.593 364.045 246.593C355.345 246.593 348.965 244.266 342.006 241.357L346.646 226.811C351.865 229.72 357.665 232.048 364.045 232.048C372.745 232.048 379.124 227.393 387.824 205.284L395.364 184.92L350.705 71.269H367.525L403.484 166.301L438.862 71.269H455.102L410.443 185.501Z" fill="#1A1E22"/>
<path d="M508.073 44.5051V186.665H491.833V44.5051H436.735V29.3775H562.784V44.5051C562.591 44.5051 508.073 44.5051 508.073 44.5051Z" fill="#1A1E22"/>
<path d="M608.603 189.574C576.704 189.574 553.505 165.719 553.505 129.064C553.505 92.4089 577.864 67.9721 610.343 67.9721C642.822 67.9721 665.441 91.8271 665.441 128.482C664.861 165.137 640.502 189.574 608.603 189.574ZM609.183 82.5178C584.824 82.5178 569.164 101.718 569.164 129.064C569.164 156.992 585.404 176.192 609.763 176.192C634.122 176.192 649.781 156.992 649.781 129.646C649.781 101.136 633.542 82.5178 609.183 82.5178Z" fill="#1A1E22"/>
<path d="M704.3 186.665H688.641V71.2689L704.3 67.7779V92.2147C711.84 77.669 722.859 67.7779 737.939 67.7779C745.479 67.7779 752.438 70.1052 758.238 73.0144L754.178 87.5601C748.958 84.651 743.159 82.3236 736.779 82.3236C724.599 82.3236 713.58 91.6329 704.3 111.997V186.665Z" fill="#1A1E22"/>
<path d="M819.33 189.574C784.531 189.574 763.072 164.556 763.072 129.064C763.072 92.9908 786.851 67.9721 819.33 67.9721C833.249 67.9721 845.429 71.4631 855.288 77.8632L851.228 91.8271C842.529 86.0088 831.509 82.5178 819.33 82.5178C794.39 82.5178 779.311 101.136 779.311 128.482C779.311 156.41 795.55 175.029 819.91 175.029C831.509 175.029 843.109 171.538 851.808 165.719L855.288 180.265C844.849 186.083 832.669 189.574 819.33 189.574Z" fill="#1A1E22"/>
<path d="M951.177 111.997C951.177 91.633 943.058 82.9055 926.818 82.9055C913.479 82.9055 900.719 89.8875 891.439 99.1967V186.665H875.78V17.1589L891.439 13.668V86.5905C903.619 74.3721 918.699 68.5538 931.458 68.5538C953.497 68.5538 967.417 83.0995 967.417 108.118V186.859H951.177V111.997Z" fill="#1A1E22"/>
</svg>
