<svg width="1000" height="500" viewBox="0 0 1000 500" fill="none" xmlns="http://www.w3.org/2000/svg">
<path d="M149.166 192.808L136.406 205.608C157.286 226.554 157.286 260.3 136.406 280.858C115.527 301.804 81.8884 301.804 61.3958 280.858C40.5165 259.912 40.5165 226.166 61.3958 205.608L99.0944 167.789V142.77L49.2162 192.808C21.3772 220.735 21.3772 265.73 49.2162 293.658C77.0552 321.586 121.907 321.586 149.166 293.658C177.005 265.536 177.005 220.735 149.166 192.808Z" fill="#1A1E22"/>
<path d="M133.507 180.396C133.507 185.537 129.352 189.705 124.227 189.705C119.102 189.705 114.948 185.537 114.948 180.396C114.948 175.254 119.102 171.086 124.227 171.086C129.352 171.086 133.507 175.254 133.507 180.396Z" fill="#1A1E22"/>
<path d="M278.115 256.809H256.655V312.083H240.416V154.795H279.855C321.033 154.795 340.753 175.159 340.753 203.669C341.333 238.773 316.973 256.809 278.115 256.809ZM279.855 170.505C278.115 170.505 257.235 170.505 257.235 170.505V242.845L279.275 242.264C308.854 241.682 325.093 230.045 325.093 205.608C325.093 182.723 308.854 170.505 279.855 170.505Z" fill="#1A1E22"/>
<path d="M413.443 311.501L404.164 336.52C393.724 364.448 382.704 372.593 367.045 372.593C358.345 372.593 351.965 370.266 345.006 367.357L349.646 352.811C354.865 355.72 360.665 358.048 367.045 358.048C375.745 358.048 382.124 353.393 390.824 331.284L398.364 310.92L353.705 197.269H370.525L406.484 292.301L441.862 197.269H458.102L413.443 311.501Z" fill="#1A1E22"/>
<path d="M511.073 170.505V312.665H494.833V170.505H439.735V155.378H565.784V170.505C565.591 170.505 511.073 170.505 511.073 170.505Z" fill="#1A1E22"/>
<path d="M611.603 315.574C579.704 315.574 556.505 291.719 556.505 255.064C556.505 218.409 580.864 193.972 613.343 193.972C645.822 193.972 668.441 217.827 668.441 254.482C667.861 291.137 643.502 315.574 611.603 315.574ZM612.183 208.518C587.824 208.518 572.164 227.718 572.164 255.064C572.164 282.992 588.404 302.192 612.763 302.192C637.122 302.192 652.781 282.992 652.781 255.646C652.781 227.136 636.542 208.518 612.183 208.518Z" fill="#1A1E22"/>
<path d="M707.3 312.665H691.641V197.269L707.3 193.778V218.215C714.84 203.669 725.859 193.778 740.939 193.778C748.479 193.778 755.438 196.105 761.238 199.014L757.178 213.56C751.958 210.651 746.159 208.324 739.779 208.324C727.599 208.324 716.58 217.633 707.3 237.997V312.665Z" fill="#1A1E22"/>
<path d="M822.33 315.574C787.531 315.574 766.072 290.556 766.072 255.064C766.072 218.991 789.851 193.972 822.33 193.972C836.249 193.972 848.429 197.463 858.288 203.863L854.228 217.827C845.529 212.009 834.509 208.518 822.33 208.518C797.39 208.518 782.311 227.136 782.311 254.482C782.311 282.41 798.55 301.029 822.91 301.029C834.509 301.029 846.109 297.538 854.808 291.719L858.288 306.265C847.849 312.083 835.669 315.574 822.33 315.574Z" fill="#1A1E22"/>
<path d="M954.177 237.997C954.177 217.633 946.058 208.906 929.818 208.906C916.479 208.906 903.719 215.887 894.439 225.197V312.665H878.78V143.159L894.439 139.668V212.59C906.619 200.372 921.699 194.554 934.458 194.554C956.497 194.554 970.417 209.099 970.417 234.118V312.859H954.177V237.997Z" fill="#1A1E22"/>
</svg>
