<svg width="1000" height="550" viewBox="0 0 1000 550" fill="none" xmlns="http://www.w3.org/2000/svg">
<path d="M149.166 369.808L136.406 382.608C157.286 403.554 157.286 437.3 136.406 457.858C115.527 478.804 81.8884 478.804 61.3958 457.858C40.5165 436.912 40.5165 403.166 61.3958 382.608L99.0944 344.789V319.77L49.2162 369.808C21.3772 397.735 21.3772 442.73 49.2162 470.658C77.0552 498.586 121.907 498.586 149.166 470.658C177.005 442.536 177.005 397.735 149.166 369.808Z" fill="#1A1E22"/>
<path d="M133.507 357.396C133.507 362.537 129.352 366.705 124.227 366.705C119.102 366.705 114.948 362.537 114.948 357.396C114.948 352.254 119.102 348.086 124.227 348.086C129.352 348.086 133.507 352.254 133.507 357.396Z" fill="#1A1E22"/>
<path d="M278.115 433.809H256.655V489.083H240.416V331.795H279.855C321.033 331.795 340.753 352.159 340.753 380.669C341.333 415.773 316.973 433.809 278.115 433.809ZM279.855 347.505C278.115 347.505 257.235 347.505 257.235 347.505V419.845L279.275 419.264C308.854 418.682 325.093 407.045 325.093 382.608C325.093 359.723 308.854 347.505 279.855 347.505Z" fill="#1A1E22"/>
<path d="M413.443 488.501L404.164 513.52C393.724 541.448 382.704 549.593 367.045 549.593C358.345 549.593 351.965 547.266 345.006 544.357L349.646 529.811C354.865 532.72 360.665 535.048 367.045 535.048C375.745 535.048 382.124 530.393 390.824 508.284L398.364 487.92L353.705 374.269H370.525L406.484 469.301L441.862 374.269H458.102L413.443 488.501Z" fill="#1A1E22"/>
<path d="M511.073 347.505V489.665H494.833V347.505H439.735V332.378H565.784V347.505C565.591 347.505 511.073 347.505 511.073 347.505Z" fill="#1A1E22"/>
<path d="M611.603 492.574C579.704 492.574 556.505 468.719 556.505 432.064C556.505 395.409 580.864 370.972 613.343 370.972C645.822 370.972 668.441 394.827 668.441 431.482C667.861 468.137 643.502 492.574 611.603 492.574ZM612.183 385.518C587.824 385.518 572.164 404.718 572.164 432.064C572.164 459.992 588.404 479.192 612.763 479.192C637.122 479.192 652.781 459.992 652.781 432.646C652.781 404.136 636.542 385.518 612.183 385.518Z" fill="#1A1E22"/>
<path d="M707.3 489.665H691.641V374.269L707.3 370.778V395.215C714.84 380.669 725.859 370.778 740.939 370.778C748.479 370.778 755.438 373.105 761.238 376.014L757.178 390.56C751.958 387.651 746.159 385.324 739.779 385.324C727.599 385.324 716.58 394.633 707.3 414.997V489.665Z" fill="#1A1E22"/>
<path d="M822.33 492.574C787.531 492.574 766.072 467.556 766.072 432.064C766.072 395.991 789.851 370.972 822.33 370.972C836.249 370.972 848.429 374.463 858.288 380.863L854.228 394.827C845.529 389.009 834.509 385.518 822.33 385.518C797.39 385.518 782.311 404.136 782.311 431.482C782.311 459.41 798.55 478.029 822.91 478.029C834.509 478.029 846.109 474.538 854.808 468.719L858.288 483.265C847.849 489.083 835.669 492.574 822.33 492.574Z" fill="#1A1E22"/>
<path d="M954.177 414.997C954.177 394.633 946.058 385.906 929.818 385.906C916.479 385.906 903.719 392.887 894.439 402.197V489.665H878.78V320.159L894.439 316.668V389.59C906.619 377.372 921.699 371.554 934.458 371.554C956.497 371.554 970.417 386.099 970.417 411.118V489.859H954.177V414.997Z" fill="#1A1E22"/>
<path d="M149.166 369.808L136.406 382.608C157.286 403.554 157.286 437.3 136.406 457.858C115.527 478.804 81.8884 478.804 61.3958 457.858C40.5165 436.912 40.5165 403.166 61.3958 382.608L99.0944 344.789V319.77L49.2162 369.808C21.3772 397.735 21.3772 442.73 49.2162 470.658C77.0552 498.586 121.907 498.586 149.166 470.658C177.005 442.536 177.005 397.735 149.166 369.808Z" fill="#1A1E22"/>
<path d="M133.507 357.396C133.507 362.537 129.352 366.705 124.227 366.705C119.102 366.705 114.948 362.537 114.948 357.396C114.948 352.254 119.102 348.086 124.227 348.086C129.352 348.086 133.507 352.254 133.507 357.396Z" fill="#1A1E22"/>
<path d="M278.115 433.809H256.655V489.083H240.416V331.795H279.855C321.033 331.795 340.753 352.159 340.753 380.669C341.333 415.773 316.973 433.809 278.115 433.809ZM279.855 347.505C278.115 347.505 257.235 347.505 257.235 347.505V419.845L279.275 419.264C308.854 418.682 325.093 407.045 325.093 382.608C325.093 359.723 308.854 347.505 279.855 347.505Z" fill="#1A1E22"/>
<path d="M413.443 488.501L404.164 513.52C393.724 541.448 382.704 549.593 367.045 549.593C358.345 549.593 351.965 547.266 345.006 544.357L349.646 529.811C354.865 532.72 360.665 535.048 367.045 535.048C375.745 535.048 382.124 530.393 390.824 508.284L398.364 487.92L353.705 374.269H370.525L406.484 469.301L441.862 374.269H458.102L413.443 488.501Z" fill="#1A1E22"/>
<path d="M511.073 347.505V489.665H494.833V347.505H439.735V332.378H565.784V347.505C565.591 347.505 511.073 347.505 511.073 347.505Z" fill="#1A1E22"/>
<path d="M611.603 492.574C579.704 492.574 556.505 468.719 556.505 432.064C556.505 395.409 580.864 370.972 613.343 370.972C645.822 370.972 668.441 394.827 668.441 431.482C667.861 468.137 643.502 492.574 611.603 492.574ZM612.183 385.518C587.824 385.518 572.164 404.718 572.164 432.064C572.164 459.992 588.404 479.192 612.763 479.192C637.122 479.192 652.781 459.992 652.781 432.646C652.781 404.136 636.542 385.518 612.183 385.518Z" fill="#1A1E22"/>
<path d="M707.3 489.665H691.641V374.269L707.3 370.778V395.215C714.84 380.669 725.859 370.778 740.939 370.778C748.479 370.778 755.438 373.105 761.238 376.014L757.178 390.56C751.958 387.651 746.159 385.324 739.779 385.324C727.599 385.324 716.58 394.633 707.3 414.997V489.665Z" fill="#1A1E22"/>
<path d="M822.33 492.574C787.531 492.574 766.072 467.556 766.072 432.064C766.072 395.991 789.851 370.972 822.33 370.972C836.249 370.972 848.429 374.463 858.288 380.863L854.228 394.827C845.529 389.009 834.509 385.518 822.33 385.518C797.39 385.518 782.311 404.136 782.311 431.482C782.311 459.41 798.55 478.029 822.91 478.029C834.509 478.029 846.109 474.538 854.808 468.719L858.288 483.265C847.849 489.083 835.669 492.574 822.33 492.574Z" fill="#1A1E22"/>
<path d="M954.177 414.997C954.177 394.633 946.058 385.906 929.818 385.906C916.479 385.906 903.719 392.887 894.439 402.197V489.665H878.78V320.159L894.439 316.668V389.59C906.619 377.372 921.699 371.554 934.458 371.554C956.497 371.554 970.417 386.099 970.417 411.118V489.859H954.177V414.997Z" fill="#1A1E22"/>
</svg>
