<svg width="722" height="229" viewBox="0 0 722 229" fill="none" xmlns="http://www.w3.org/2000/svg">
<path d="M90.2807 90.5488C73.721 88.5832 72.4944 66.3483 51.2735 68.3138C40.9698 68.3138 31.402 72.6134 31.402 82.0724C31.402 96.3225 53.3588 97.6737 66.6065 101.236C89.1767 108.116 111.011 112.784 111.011 137.353C111.011 168.555 86.6007 179.366 54.3401 179.366C27.3541 179.366 0 169.784 0 144.969C0 138.09 6.62385 132.685 13.0024 132.685C21.0982 132.685 23.9195 136.124 26.7407 141.775C32.9966 152.831 39.9884 158.728 57.4067 158.728C68.4465 158.728 79.7316 154.551 79.7316 144.969C79.7316 131.333 65.8705 128.385 51.5189 125.068C26.1274 117.943 4.29324 114.258 1.7173 86.0035C-0.981312 37.8483 99.2351 36.0057 105 78.2643C104.878 85.8807 97.7632 90.5488 90.2807 90.5488ZM209.51 48.2901C244.715 48.2901 264.709 77.7729 264.709 114.135C264.709 150.62 245.328 179.98 209.51 179.98C189.638 179.98 177.249 171.504 168.295 158.482V206.637C168.295 221.133 163.634 228.135 153.085 228.135C140.205 228.135 137.874 219.904 137.874 206.637V66.594C137.874 55.1695 142.658 48.1673 153.085 48.1673C162.898 48.1673 168.295 55.9065 168.295 66.594V70.525C178.231 57.9949 189.638 48.2901 209.51 48.2901ZM201.169 154.919C221.776 154.919 230.976 135.879 230.976 113.644C230.976 91.9 221.654 72.3677 201.169 72.3677C179.703 72.3677 169.767 90.0574 169.767 113.644C169.767 136.616 179.825 154.919 201.169 154.919ZM288.628 82.6867C288.628 57.3806 317.7 48.2901 345.912 48.2901C385.533 48.2901 401.847 59.8375 401.847 98.1651V135.019C401.847 143.741 407.244 161.185 407.244 166.467C407.244 174.452 399.884 179.488 392.034 179.488C383.325 179.488 376.824 169.169 372.162 161.799C359.283 172.118 345.667 179.488 324.814 179.488C301.753 179.488 283.599 165.853 283.599 143.372C283.599 123.471 297.828 112.047 315.001 108.116C315.001 108.238 370.2 95.094 370.2 94.9712C370.2 78.0186 364.189 70.525 346.403 70.525C330.702 70.525 322.729 74.8246 316.596 84.2837C311.689 91.4087 312.302 95.7082 302.857 95.7082C295.252 95.5854 288.628 90.4259 288.628 82.6867ZM335.731 158.728C359.896 158.728 370.077 145.952 370.077 120.523V115.118C363.576 117.329 337.326 123.84 330.211 124.945C322.606 126.419 315.001 132.07 315.001 141.038C315.246 150.866 325.305 158.728 335.731 158.728ZM513.226 0.257812C547.326 0.257812 584.248 20.6501 584.248 53.0811C584.248 61.4345 577.992 68.3138 569.774 68.3138C558.612 68.3138 557.017 62.2944 552.11 53.8181C543.892 38.7082 534.201 28.6349 513.103 28.6349C480.475 28.3893 465.878 56.3979 465.878 91.2858C465.878 126.419 478.021 151.725 511.754 151.725C534.201 151.725 546.59 138.704 552.969 121.874C555.545 114.135 560.206 106.641 569.897 106.641C577.502 106.641 585.107 114.381 585.107 122.734C585.107 157.131 550.025 180.963 513.962 180.963C474.464 180.963 452.139 164.256 439.873 136.493C433.862 123.225 430.06 109.467 430.06 90.5488C429.814 37.2341 460.848 0.257812 513.226 0.257812ZM708.262 48.2901C716.971 48.2901 722 53.941 722 62.7858C722 66.3483 719.179 73.4733 718.075 77.2815L676.124 187.719C666.801 211.674 659.809 228.258 628.039 228.258C612.952 228.258 599.827 226.907 599.827 213.762C599.827 206.146 605.592 202.338 613.565 202.338C615.037 202.338 617.49 203.075 618.962 203.075C621.293 203.075 622.887 203.812 624.359 203.812C640.306 203.812 642.514 187.473 648.156 176.172L607.677 75.8074C605.347 70.4022 603.752 66.7169 603.752 63.5229C603.752 54.6781 610.621 48.2901 619.821 48.2901C630.125 48.2901 634.173 56.3979 636.749 65.2427L663.489 144.846L690.23 71.2621C694.278 59.8375 694.646 48.2901 708.262 48.2901Z" fill="#1A1E22"/>
</svg>
