<svg width="1000" height="537" viewBox="0 0 1000 537" fill="none" xmlns="http://www.w3.org/2000/svg">
<path d="M229.281 399.291C212.721 397.325 211.494 375.091 190.274 377.056C179.97 377.056 170.402 381.356 170.402 390.815C170.402 405.065 192.359 406.416 205.607 409.978C228.177 416.858 250.011 421.526 250.011 446.095C250.011 477.297 225.601 488.108 193.34 488.108C166.354 488.108 139 478.526 139 453.711C139 446.832 145.624 441.427 152.002 441.427C160.098 441.427 162.919 444.866 165.741 450.517C171.997 461.573 178.988 467.47 196.407 467.47C207.446 467.47 218.732 463.293 218.732 453.711C218.732 440.075 204.871 437.127 190.519 433.81C165.127 426.685 143.293 423 140.717 394.746C138.019 346.591 238.235 344.748 244 387.006C243.878 394.623 236.763 399.291 229.281 399.291ZM348.51 357.032C383.715 357.032 403.709 386.515 403.709 422.877C403.709 459.362 384.328 488.722 348.51 488.722C328.638 488.722 316.249 480.246 307.295 467.224V515.379C307.295 529.875 302.634 536.877 292.085 536.877C279.205 536.877 276.874 528.647 276.874 515.379V375.336C276.874 363.912 281.658 356.909 292.085 356.909C301.898 356.909 307.295 364.649 307.295 375.336V379.267C317.231 366.737 328.638 357.032 348.51 357.032ZM340.169 463.662C360.776 463.662 369.976 444.621 369.976 422.386C369.976 400.642 360.654 381.11 340.169 381.11C318.703 381.11 308.767 398.8 308.767 422.386C308.767 445.358 318.825 463.662 340.169 463.662ZM427.628 391.429C427.628 366.123 456.7 357.032 484.912 357.032C524.533 357.032 540.847 368.58 540.847 406.907V443.761C540.847 452.483 546.244 469.927 546.244 475.209C546.244 483.194 538.884 488.231 531.034 488.231C522.325 488.231 515.824 477.912 511.162 470.541C498.283 480.86 484.667 488.231 463.814 488.231C440.753 488.231 422.599 474.595 422.599 452.114C422.599 432.213 436.828 420.789 454.001 416.858C454.001 416.981 509.2 403.836 509.2 403.713C509.2 386.761 503.189 379.267 485.403 379.267C469.702 379.267 461.729 383.567 455.596 393.026C450.689 400.151 451.302 404.45 441.857 404.45C434.252 404.328 427.628 399.168 427.628 391.429ZM474.731 467.47C498.896 467.47 509.077 454.694 509.077 429.265V423.86C502.576 426.071 476.326 432.582 469.211 433.688C461.606 435.162 454.001 440.812 454.001 449.78C454.246 459.608 464.305 467.47 474.731 467.47ZM652.226 309C686.326 309 723.248 329.392 723.248 361.823C723.248 370.177 716.992 377.056 708.774 377.056C697.612 377.056 696.017 371.037 691.11 362.56C682.892 347.45 673.201 337.377 652.103 337.377C619.475 337.131 604.878 365.14 604.878 400.028C604.878 435.162 617.021 460.468 650.754 460.468C673.201 460.468 685.59 447.446 691.969 430.616C694.545 422.877 699.206 415.384 708.897 415.384C716.502 415.384 724.107 423.123 724.107 431.476C724.107 465.873 689.025 489.705 652.962 489.705C613.464 489.705 591.139 472.998 578.873 445.235C572.862 431.968 569.06 418.209 569.06 399.291C568.814 345.976 599.848 309 652.226 309ZM847.262 357.032C855.971 357.032 861 362.683 861 371.528C861 375.091 858.179 382.215 857.075 386.024L815.124 496.461C805.801 520.416 798.809 537 767.039 537C751.952 537 738.827 535.649 738.827 522.504C738.827 514.888 744.592 511.08 752.565 511.08C754.037 511.08 756.49 511.817 757.962 511.817C760.293 511.817 761.887 512.554 763.359 512.554C779.306 512.554 781.514 496.216 787.156 484.914L746.677 384.55C744.347 379.144 742.752 375.459 742.752 372.265C742.752 363.42 749.621 357.032 758.821 357.032C769.125 357.032 773.173 365.14 775.749 373.985L802.489 453.588L829.23 380.004C833.278 368.58 833.646 357.032 847.262 357.032Z" fill="#1A1E22"/>
</svg>
