<svg width="1000" height="550" viewBox="0 0 1000 550" fill="none" xmlns="http://www.w3.org/2000/svg">
<path d="M229.281 400.291C212.721 398.325 211.494 376.091 190.274 378.056C179.97 378.056 170.402 382.356 170.402 391.815C170.402 406.065 192.359 407.416 205.607 410.978C228.177 417.858 250.011 422.526 250.011 447.095C250.011 478.297 225.601 489.108 193.34 489.108C166.354 489.108 139 479.526 139 454.711C139 447.832 145.624 442.427 152.002 442.427C160.098 442.427 162.919 445.866 165.741 451.517C171.997 462.573 178.988 468.47 196.407 468.47C207.446 468.47 218.732 464.293 218.732 454.711C218.732 441.075 204.871 438.127 190.519 434.81C165.127 427.685 143.293 424 140.717 395.746C138.019 347.591 238.235 345.748 244 388.006C243.878 395.623 236.763 400.291 229.281 400.291ZM348.51 358.032C383.715 358.032 403.709 387.515 403.709 423.877C403.709 460.362 384.328 489.722 348.51 489.722C328.638 489.722 316.249 481.246 307.295 468.224V516.379C307.295 530.875 302.634 537.877 292.085 537.877C279.205 537.877 276.874 529.647 276.874 516.379V376.336C276.874 364.912 281.658 357.909 292.085 357.909C301.898 357.909 307.295 365.649 307.295 376.336V380.267C317.231 367.737 328.638 358.032 348.51 358.032ZM340.169 464.662C360.776 464.662 369.976 445.621 369.976 423.386C369.976 401.642 360.654 382.11 340.169 382.11C318.703 382.11 308.767 399.8 308.767 423.386C308.767 446.358 318.825 464.662 340.169 464.662ZM427.628 392.429C427.628 367.123 456.7 358.032 484.912 358.032C524.533 358.032 540.847 369.58 540.847 407.907V444.761C540.847 453.483 546.244 470.927 546.244 476.209C546.244 484.194 538.884 489.231 531.034 489.231C522.325 489.231 515.824 478.912 511.162 471.541C498.283 481.86 484.667 489.231 463.814 489.231C440.753 489.231 422.599 475.595 422.599 453.114C422.599 433.213 436.828 421.789 454.001 417.858C454.001 417.981 509.2 404.836 509.2 404.713C509.2 387.761 503.189 380.267 485.403 380.267C469.702 380.267 461.729 384.567 455.596 394.026C450.689 401.151 451.302 405.45 441.857 405.45C434.252 405.328 427.628 400.168 427.628 392.429ZM474.731 468.47C498.896 468.47 509.077 455.694 509.077 430.265V424.86C502.576 427.071 476.326 433.582 469.211 434.688C461.606 436.162 454.001 441.812 454.001 450.78C454.246 460.608 464.305 468.47 474.731 468.47ZM652.226 310C686.326 310 723.248 330.392 723.248 362.823C723.248 371.177 716.992 378.056 708.774 378.056C697.612 378.056 696.017 372.037 691.11 363.56C682.892 348.45 673.201 338.377 652.103 338.377C619.475 338.131 604.878 366.14 604.878 401.028C604.878 436.162 617.021 461.468 650.754 461.468C673.201 461.468 685.59 448.446 691.969 431.616C694.545 423.877 699.206 416.384 708.897 416.384C716.502 416.384 724.107 424.123 724.107 432.476C724.107 466.873 689.025 490.705 652.962 490.705C613.464 490.705 591.139 473.998 578.873 446.235C572.862 432.968 569.06 419.209 569.06 400.291C568.814 346.976 599.848 310 652.226 310ZM847.262 358.032C855.971 358.032 861 363.683 861 372.528C861 376.091 858.179 383.215 857.075 387.024L815.124 497.461C805.801 521.416 798.809 538 767.039 538C751.952 538 738.827 536.649 738.827 523.504C738.827 515.888 744.592 512.08 752.565 512.08C754.037 512.08 756.49 512.817 757.962 512.817C760.293 512.817 761.887 513.554 763.359 513.554C779.306 513.554 781.514 497.216 787.156 485.914L746.677 385.55C744.347 380.144 742.752 376.459 742.752 373.265C742.752 364.42 749.621 358.032 758.821 358.032C769.125 358.032 773.173 366.14 775.749 374.985L802.489 454.588L829.23 381.004C833.278 369.58 833.646 358.032 847.262 358.032Z" fill="#1A1E22"/>
<path d="M229.281 400.291C212.721 398.325 211.494 376.091 190.274 378.056C179.97 378.056 170.402 382.356 170.402 391.815C170.402 406.065 192.359 407.416 205.607 410.978C228.177 417.858 250.011 422.526 250.011 447.095C250.011 478.297 225.601 489.108 193.34 489.108C166.354 489.108 139 479.526 139 454.711C139 447.832 145.624 442.427 152.002 442.427C160.098 442.427 162.919 445.866 165.741 451.517C171.997 462.573 178.988 468.47 196.407 468.47C207.446 468.47 218.732 464.293 218.732 454.711C218.732 441.075 204.871 438.127 190.519 434.81C165.127 427.685 143.293 424 140.717 395.746C138.019 347.591 238.235 345.748 244 388.006C243.878 395.623 236.763 400.291 229.281 400.291ZM348.51 358.032C383.715 358.032 403.709 387.515 403.709 423.877C403.709 460.362 384.328 489.722 348.51 489.722C328.638 489.722 316.249 481.246 307.295 468.224V516.379C307.295 530.875 302.634 537.877 292.085 537.877C279.205 537.877 276.874 529.647 276.874 516.379V376.336C276.874 364.912 281.658 357.909 292.085 357.909C301.898 357.909 307.295 365.649 307.295 376.336V380.267C317.231 367.737 328.638 358.032 348.51 358.032ZM340.169 464.662C360.776 464.662 369.976 445.621 369.976 423.386C369.976 401.642 360.654 382.11 340.169 382.11C318.703 382.11 308.767 399.8 308.767 423.386C308.767 446.358 318.825 464.662 340.169 464.662ZM427.628 392.429C427.628 367.123 456.7 358.032 484.912 358.032C524.533 358.032 540.847 369.58 540.847 407.907V444.761C540.847 453.483 546.244 470.927 546.244 476.209C546.244 484.194 538.884 489.231 531.034 489.231C522.325 489.231 515.824 478.912 511.162 471.541C498.283 481.86 484.667 489.231 463.814 489.231C440.753 489.231 422.599 475.595 422.599 453.114C422.599 433.213 436.828 421.789 454.001 417.858C454.001 417.981 509.2 404.836 509.2 404.713C509.2 387.761 503.189 380.267 485.403 380.267C469.702 380.267 461.729 384.567 455.596 394.026C450.689 401.151 451.302 405.45 441.857 405.45C434.252 405.328 427.628 400.168 427.628 392.429ZM474.731 468.47C498.896 468.47 509.077 455.694 509.077 430.265V424.86C502.576 427.071 476.326 433.582 469.211 434.688C461.606 436.162 454.001 441.812 454.001 450.78C454.246 460.608 464.305 468.47 474.731 468.47ZM652.226 310C686.326 310 723.248 330.392 723.248 362.823C723.248 371.177 716.992 378.056 708.774 378.056C697.612 378.056 696.017 372.037 691.11 363.56C682.892 348.45 673.201 338.377 652.103 338.377C619.475 338.131 604.878 366.14 604.878 401.028C604.878 436.162 617.021 461.468 650.754 461.468C673.201 461.468 685.59 448.446 691.969 431.616C694.545 423.877 699.206 416.384 708.897 416.384C716.502 416.384 724.107 424.123 724.107 432.476C724.107 466.873 689.025 490.705 652.962 490.705C613.464 490.705 591.139 473.998 578.873 446.235C572.862 432.968 569.06 419.209 569.06 400.291C568.814 346.976 599.848 310 652.226 310ZM847.262 358.032C855.971 358.032 861 363.683 861 372.528C861 376.091 858.179 383.215 857.075 387.024L815.124 497.461C805.801 521.416 798.809 538 767.039 538C751.952 538 738.827 536.649 738.827 523.504C738.827 515.888 744.592 512.08 752.565 512.08C754.037 512.08 756.49 512.817 757.962 512.817C760.293 512.817 761.887 513.554 763.359 513.554C779.306 513.554 781.514 497.216 787.156 485.914L746.677 385.55C744.347 380.144 742.752 376.459 742.752 373.265C742.752 364.42 749.621 358.032 758.821 358.032C769.125 358.032 773.173 366.14 775.749 374.985L802.489 454.588L829.23 381.004C833.278 369.58 833.646 358.032 847.262 358.032Z" fill="#1A1E22"/>
</svg>
