<svg width="1000" height="500" viewBox="0 0 1000 500" fill="none" xmlns="http://www.w3.org/2000/svg">
<path d="M229.281 226.291C212.721 224.325 211.494 202.091 190.274 204.056C179.97 204.056 170.402 208.356 170.402 217.815C170.402 232.065 192.359 233.416 205.607 236.978C228.177 243.858 250.011 248.526 250.011 273.095C250.011 304.297 225.601 315.108 193.34 315.108C166.354 315.108 139 305.526 139 280.711C139 273.832 145.624 268.427 152.002 268.427C160.098 268.427 162.919 271.866 165.741 277.517C171.997 288.573 178.988 294.47 196.407 294.47C207.446 294.47 218.732 290.293 218.732 280.711C218.732 267.075 204.871 264.127 190.519 260.81C165.127 253.685 143.293 250 140.717 221.746C138.019 173.591 238.235 171.748 244 214.006C243.878 221.623 236.763 226.291 229.281 226.291ZM348.51 184.032C383.715 184.032 403.709 213.515 403.709 249.877C403.709 286.362 384.328 315.722 348.51 315.722C328.638 315.722 316.249 307.246 307.295 294.224V342.379C307.295 356.875 302.634 363.877 292.085 363.877C279.205 363.877 276.874 355.647 276.874 342.379V202.336C276.874 190.912 281.658 183.909 292.085 183.909C301.898 183.909 307.295 191.649 307.295 202.336V206.267C317.231 193.737 328.638 184.032 348.51 184.032ZM340.169 290.662C360.776 290.662 369.976 271.621 369.976 249.386C369.976 227.642 360.654 208.11 340.169 208.11C318.703 208.11 308.767 225.8 308.767 249.386C308.767 272.358 318.825 290.662 340.169 290.662ZM427.628 218.429C427.628 193.123 456.7 184.032 484.912 184.032C524.533 184.032 540.847 195.58 540.847 233.907V270.761C540.847 279.483 546.244 296.927 546.244 302.209C546.244 310.194 538.884 315.231 531.034 315.231C522.325 315.231 515.824 304.912 511.162 297.541C498.283 307.86 484.667 315.231 463.814 315.231C440.753 315.231 422.599 301.595 422.599 279.114C422.599 259.213 436.828 247.789 454.001 243.858C454.001 243.981 509.2 230.836 509.2 230.713C509.2 213.761 503.189 206.267 485.403 206.267C469.702 206.267 461.729 210.567 455.596 220.026C450.689 227.151 451.302 231.45 441.857 231.45C434.252 231.328 427.628 226.168 427.628 218.429ZM474.731 294.47C498.896 294.47 509.077 281.694 509.077 256.265V250.86C502.576 253.071 476.326 259.582 469.211 260.688C461.606 262.162 454.001 267.812 454.001 276.78C454.246 286.608 464.305 294.47 474.731 294.47ZM652.226 136C686.326 136 723.248 156.392 723.248 188.823C723.248 197.177 716.992 204.056 708.774 204.056C697.612 204.056 696.017 198.037 691.11 189.56C682.892 174.45 673.201 164.377 652.103 164.377C619.475 164.131 604.878 192.14 604.878 227.028C604.878 262.162 617.021 287.468 650.754 287.468C673.201 287.468 685.59 274.446 691.969 257.616C694.545 249.877 699.206 242.384 708.897 242.384C716.502 242.384 724.107 250.123 724.107 258.476C724.107 292.873 689.025 316.705 652.962 316.705C613.464 316.705 591.139 299.998 578.873 272.235C572.862 258.968 569.06 245.209 569.06 226.291C568.814 172.976 599.848 136 652.226 136ZM847.262 184.032C855.971 184.032 861 189.683 861 198.528C861 202.091 858.179 209.215 857.075 213.024L815.124 323.461C805.801 347.416 798.809 364 767.039 364C751.952 364 738.827 362.649 738.827 349.504C738.827 341.888 744.592 338.08 752.565 338.08C754.037 338.08 756.49 338.817 757.962 338.817C760.293 338.817 761.887 339.554 763.359 339.554C779.306 339.554 781.514 323.216 787.156 311.914L746.677 211.55C744.347 206.144 742.752 202.459 742.752 199.265C742.752 190.42 749.621 184.032 758.821 184.032C769.125 184.032 773.173 192.14 775.749 200.985L802.489 280.588L829.23 207.004C833.278 195.58 833.646 184.032 847.262 184.032Z" fill="#1A1E22"/>
</svg>
