<svg width="1000" height="550" viewBox="0 0 1000 550" fill="none" xmlns="http://www.w3.org/2000/svg">
<rect x="0.5" y="0.5" width="999" height="549" stroke="black"/>
<path d="M128.472 381.99V489.027H109.622V381.99H73V363.523H165.094V381.99H128.472Z" fill="#1A1E22"/>
<path d="M227.47 420.9C229.085 426.638 229.119 434.19 228.999 435.147L168.159 453.161C168.638 457.703 168.498 455.862 169.934 459.089C171.37 462.316 173.166 464.975 175.32 467.067C177.474 469.159 179.867 470.714 182.5 471.728C185.134 472.745 187.935 473.262 190.759 473.253C194.708 473.253 198.328 472.595 201.619 471.281C204.911 469.966 208.112 468.113 211.223 465.723L222.174 477.556C217.986 481.501 213.317 484.549 208.171 486.7C203.026 488.851 196.862 489.927 189.681 489.927C184.176 489.927 178.94 488.851 173.973 486.7C169.006 484.548 164.668 481.381 160.958 477.197C157.249 473.013 154.316 467.875 152.162 461.778C150.008 455.682 148.93 448.75 148.93 440.98C148.93 432.972 149.948 425.92 151.982 419.825C154.017 413.728 156.83 408.618 160.42 404.495C164.01 400.371 168.348 397.234 173.435 395.082C178.521 392.93 184.116 391.854 190.22 391.854C196.921 391.854 202.756 393.109 207.722 395.619C212.689 398.129 216.819 401.537 220.109 405.839C223.401 410.142 225.855 415.163 227.47 420.9ZM209.791 425.155C209.551 421.928 207.321 417.978 205.479 415.521C203.79 413.267 201.369 411.445 198.747 410.411C195.995 409.325 192.255 408.862 188.963 409.006C182.789 409.277 175.921 411.409 172.454 416.169C168.987 420.928 168.032 428.932 168.159 437.564L209.791 425.155ZM295.777 487.955V434.706C295.777 425.144 294.071 418.449 290.66 414.625C287.249 410.8 282.492 408.887 276.388 408.887C270.165 408.887 265.378 410.979 262.027 415.162C258.676 419.345 257.001 425.263 257.001 432.913V487.955H238.51V393.827H257.001V402.792C259.394 399.325 262.715 396.635 266.964 394.724C271.212 392.811 275.79 391.854 280.697 391.854C291.707 391.854 300.055 395.381 305.74 402.432C311.424 409.485 314.267 420.004 314.267 433.988V487.955H295.777ZM390.209 463.21C390.209 468.469 389.221 472.861 387.247 476.388C385.272 479.913 382.67 482.753 379.439 484.904C376.206 487.055 372.467 488.609 368.218 489.566C363.969 490.521 359.511 491 354.844 491C348.382 491 341.949 489.864 335.545 487.593C329.143 485.323 323.549 482.453 318.761 478.987L327.198 465.002C331.626 468.111 336.205 470.44 340.932 471.996C345.659 473.549 350.237 474.325 354.665 474.325C366.154 474.325 371.898 470.86 371.898 463.926C371.898 460.341 369.955 457.473 366.065 455.321C362.175 453.169 356.819 450.779 349.997 448.149C344.971 446.236 340.693 444.295 337.161 442.322C333.631 440.35 330.759 438.228 328.545 435.957C326.331 433.686 324.745 431.146 323.788 428.338C322.831 425.528 322.352 422.271 322.352 418.566C322.352 414.383 323.129 410.677 324.685 407.45C326.21 404.261 328.49 401.492 331.328 399.382C334.199 397.23 337.61 395.617 341.56 394.541C345.509 393.466 349.818 392.927 354.485 392.927C360.469 392.927 366.244 393.884 371.808 395.796C377.373 397.709 382.25 400.219 386.44 403.326L378.362 417.491C374.532 414.742 370.642 412.709 366.693 411.394C362.743 410.08 358.494 409.423 353.946 409.423C349.399 409.423 346.107 410.229 344.073 411.842C342.038 413.457 341.021 415.518 341.021 418.028C341.021 419.224 341.261 420.329 341.74 421.345C342.219 422.361 343.115 423.407 344.432 424.483C345.749 425.559 347.514 426.664 349.728 427.799C351.942 428.935 354.844 430.22 358.434 431.654C363.701 433.686 368.308 435.628 372.257 437.482C376.207 439.334 379.528 441.426 382.221 443.756C384.914 446.087 386.919 448.806 388.235 451.914C389.551 455.022 390.209 458.788 390.209 463.21ZM476.202 441.516C476.202 449.284 475.125 456.247 472.97 462.402C470.816 468.559 467.824 473.758 463.994 478.001C460.165 482.244 455.676 485.472 450.531 487.682C445.385 489.894 439.759 491 433.656 491C427.672 491 422.167 489.834 417.141 487.503C412.115 485.172 407.746 481.856 404.035 477.553C400.326 473.249 397.423 468.111 395.329 462.134C393.235 456.158 392.188 449.464 392.188 442.053C392.188 434.403 393.265 427.53 395.419 421.435C397.572 415.339 400.535 410.169 404.305 405.926C408.075 401.683 412.502 398.455 417.59 396.245C422.676 394.033 428.211 392.927 434.194 392.927C440.178 392.927 445.743 394.093 450.89 396.424C455.981 398.714 460.536 402.043 464.264 406.195C468.033 410.378 470.965 415.488 473.059 421.525C475.155 427.56 476.202 434.224 476.202 441.516ZM457.532 442.053C457.532 432.372 455.408 424.692 451.159 419.014C446.911 413.336 441.016 410.497 433.477 410.497C426.416 410.497 420.88 413.336 416.871 419.014C412.862 424.692 410.857 432.193 410.857 441.516C410.857 451.914 413.012 459.832 417.32 465.271C421.628 470.71 427.313 473.43 434.375 473.43C437.845 473.43 441.016 472.593 443.889 470.92C446.761 469.246 449.214 467.005 451.249 464.196C453.284 461.387 454.839 458.07 455.916 454.245C456.993 450.42 457.532 446.356 457.532 442.053ZM535.802 414.442C533.805 413.381 531.698 412.54 529.519 411.932C527.365 411.335 524.732 411.036 521.62 411.036C515.757 411.036 511.208 413.067 507.977 417.131C504.745 421.196 503.13 427.232 503.13 435.24V489.027H484.639V394.9H503.13V403.864C505.283 400.756 508.246 398.157 512.016 396.064C515.786 393.973 520.004 392.927 524.672 392.927C528.501 392.927 531.644 393.256 534.097 393.914C536.551 394.57 538.734 395.557 540.649 396.872L535.802 414.442Z" fill="#1A1E22"/>
<path d="M566.859 381.991V414.802H602.942V433.267H566.858V489.027H548.01V363.523H628.972V381.991H566.859ZM632.036 489.027V368.007L650.527 358.324V489.027H632.036ZM744.951 441.516C744.951 449.285 743.873 456.247 741.719 462.402C739.565 468.559 736.573 473.758 732.744 478.001C728.914 482.244 724.426 485.472 719.28 487.682C714.133 489.894 708.508 491 702.404 491C696.42 491 690.915 489.834 685.889 487.503C680.863 485.172 676.494 481.856 672.784 477.553C669.074 473.25 666.171 468.111 664.077 462.134C661.983 456.158 660.936 449.464 660.936 442.053C660.936 434.403 662.013 427.53 664.167 421.435C666.322 415.339 669.284 410.169 673.053 405.926C676.823 401.683 681.252 398.455 686.338 396.245C691.424 394.033 696.96 392.927 702.944 392.927C708.928 392.927 714.492 394.093 719.638 396.424C724.729 398.714 729.285 402.043 733.012 406.195C736.782 410.378 739.715 415.488 741.809 421.525C743.903 427.56 744.951 434.224 744.951 441.516ZM726.281 442.053C726.281 432.372 724.156 424.692 719.908 419.014C715.659 413.337 709.765 410.497 702.225 410.497C695.164 410.497 689.629 413.337 685.62 419.014C681.611 424.692 679.606 432.193 679.606 441.516C679.606 451.915 681.76 459.832 686.069 465.272C690.377 470.71 696.062 473.43 703.123 473.43C706.594 473.43 709.765 472.593 712.638 470.92C715.51 469.247 717.963 467.005 719.998 464.196C722.032 461.387 723.588 458.07 724.665 454.245C725.743 450.42 726.281 446.356 726.281 442.053ZM836.146 489.027H820.348L807.603 441.516C806.626 437.853 805.699 434.177 804.821 430.489C803.922 426.725 803.235 423.705 802.756 421.435C802.101 424.49 801.413 427.538 800.692 430.578C799.821 434.298 798.893 438.004 797.909 441.695L785.343 489.028H769.545L743.695 394.9H762.006L773.135 440.619C774.13 444.36 775.027 448.126 775.827 451.913C776.665 455.858 777.323 458.967 777.802 461.238L780.136 451.915C781.094 448.09 782.051 444.324 783.009 440.619L795.574 394.9H810.475L823.221 440.798C824.183 444.525 825.111 448.26 826.003 452.004C826.9 455.768 827.649 458.847 828.247 461.238C828.845 458.847 829.534 455.709 830.311 451.824C831.061 448.063 831.929 444.326 832.915 440.619L844.045 394.9H862.356L836.146 489.027Z" fill="#1A1E22"/>
<mask id="mask0_2201_36" style="mask-type:luminance" maskUnits="userSpaceOnUse" x="488" y="100" width="91" height="211">
<path d="M578.19 151.838L488.065 100.688V310.882L524.115 290.103V230.96L551.353 246.545L550.953 206.185L524.115 190.6V167.023L578.19 198.592V151.838Z" fill="white"/>
</mask>
<g mask="url(#mask0_2201_36)">
<path d="M381.517 99.8887H602.623V311.283H381.517V99.8887Z" fill="#1A1E22"/>
</g>
<mask id="mask1_2201_36" style="mask-type:luminance" maskUnits="userSpaceOnUse" x="389" y="100" width="92" height="211">
<path d="M389.93 151.838L480.055 100.688V310.882L444.005 290.103V167.023L389.93 198.592V151.838Z" fill="white"/>
</mask>
<g mask="url(#mask1_2201_36)">
<path d="M380.316 99.8887H601.423V311.283H380.316V99.8887Z" fill="#1A1E22"/>
</g>
</svg>
