<svg width="1035" height="522" viewBox="0 0 1035 522" fill="none" xmlns="http://www.w3.org/2000/svg">
<path d="M132.031 359.919V473.899H111.971V359.919H73V340.254H171.002V359.919H132.031Z" fill="#1A1E22"/>
<path d="M237.381 401.352C239.1 407.462 239.135 415.504 239.009 416.523L174.265 435.706C174.774 440.543 174.626 438.582 176.154 442.018C177.682 445.455 179.593 448.287 181.885 450.514C184.178 452.741 186.724 454.397 189.526 455.478C192.329 456.56 195.31 457.111 198.315 457.101C202.517 457.101 206.37 456.401 209.871 455.002C213.374 453.601 216.781 451.628 220.092 449.083L231.746 461.683C227.289 465.884 222.321 469.13 216.844 471.42C211.369 473.712 204.81 474.857 197.167 474.857C191.309 474.857 185.738 473.712 180.452 471.42C175.166 469.129 170.55 465.756 166.602 461.301C162.654 456.846 159.533 451.374 157.242 444.882C154.949 438.391 153.802 431.009 153.802 422.735C153.802 414.207 154.885 406.698 157.05 400.207C159.215 393.714 162.209 388.273 166.029 383.882C169.85 379.491 174.466 376.15 179.879 373.859C185.292 371.567 191.245 370.422 197.741 370.422C204.873 370.422 211.082 371.758 216.366 374.431C221.652 377.104 226.046 380.732 229.548 385.314C233.051 389.896 235.662 395.243 237.381 401.352ZM218.567 405.883C218.313 402.446 215.939 398.24 213.979 395.624C212.182 393.223 209.605 391.284 206.815 390.183C203.886 389.026 199.907 388.532 196.404 388.687C189.834 388.974 182.525 391.245 178.835 396.314C175.146 401.382 174.13 409.905 174.265 419.097L218.567 405.883ZM310.07 472.757V416.053C310.07 405.871 308.256 398.742 304.626 394.669C300.996 390.596 295.933 388.56 289.437 388.56C282.815 388.56 277.722 390.787 274.155 395.241C270.589 399.696 268.806 405.997 268.806 414.145V472.757H249.13V372.522H268.806V382.069C271.354 378.377 274.887 375.513 279.409 373.477C283.93 371.441 288.802 370.422 294.023 370.422C305.74 370.422 314.623 374.177 320.673 381.686C326.722 389.196 329.747 400.397 329.747 415.289V472.757H310.07ZM410.562 446.407C410.562 452.007 409.51 456.684 407.41 460.439C405.308 464.194 402.539 467.217 399.1 469.508C395.66 471.798 391.681 473.453 387.159 474.472C382.638 475.49 377.894 475.999 372.927 475.999C366.051 475.999 359.205 474.79 352.39 472.372C345.578 469.954 339.625 466.899 334.53 463.207L343.508 448.315C348.22 451.625 353.092 454.106 358.123 455.762C363.153 457.416 368.025 458.243 372.737 458.243C384.963 458.243 391.076 454.553 391.076 447.17C391.076 443.351 389.007 440.297 384.868 438.006C380.729 435.715 375.029 433.169 367.77 430.368C362.421 428.332 357.868 426.264 354.11 424.164C350.354 422.063 347.297 419.804 344.941 417.386C342.585 414.967 340.898 412.262 339.878 409.272C338.86 406.28 338.35 402.812 338.35 398.867C338.35 394.412 339.178 390.466 340.834 387.029C342.456 383.634 344.882 380.684 347.902 378.438C350.958 376.146 354.588 374.429 358.791 373.283C362.994 372.137 367.579 371.564 372.546 371.564C378.914 371.564 385.059 372.583 390.98 374.619C396.902 376.656 402.092 379.329 406.55 382.638L397.954 397.721C393.878 394.794 389.739 392.629 385.537 391.229C381.333 389.83 376.812 389.13 371.972 389.13C367.133 389.13 363.63 389.989 361.466 391.706C359.3 393.425 358.218 395.621 358.218 398.293C358.218 399.567 358.473 400.743 358.982 401.826C359.492 402.908 360.446 404.021 361.847 405.167C363.249 406.313 365.127 407.49 367.483 408.699C369.839 409.908 372.928 411.277 376.748 412.804C382.353 414.967 387.256 417.035 391.458 419.009C395.661 420.982 399.195 423.209 402.061 425.691C404.926 428.173 407.06 431.068 408.461 434.378C409.861 437.687 410.562 441.697 410.562 446.407ZM502.072 423.305C502.072 431.578 500.925 438.992 498.633 445.547C496.34 452.103 493.156 457.639 489.081 462.157C485.005 466.676 480.229 470.113 474.754 472.467C469.277 474.822 463.291 475.999 456.796 475.999C450.428 475.999 444.57 474.758 439.221 472.276C433.873 469.794 429.224 466.262 425.275 461.68C421.328 457.097 418.238 451.625 416.01 445.261C413.781 438.897 412.667 431.768 412.667 423.877C412.667 415.731 413.813 408.412 416.106 401.921C418.397 395.43 421.55 389.925 425.562 385.406C429.573 380.888 434.285 377.451 439.699 375.097C445.112 372.742 451.002 371.564 457.369 371.564C463.737 371.564 469.659 372.806 475.136 375.288C480.553 377.727 485.401 381.271 489.368 385.693C493.379 390.147 496.499 395.589 498.728 402.017C500.957 408.444 502.072 415.54 502.072 423.305ZM482.204 423.877C482.204 413.568 479.944 405.39 475.422 399.343C470.901 393.297 464.628 390.274 456.605 390.274C449.091 390.274 443.201 393.297 438.934 399.343C434.668 405.39 432.534 413.377 432.534 423.305C432.534 434.378 434.827 442.81 439.412 448.602C443.996 454.393 450.046 457.289 457.561 457.289C461.253 457.289 464.628 456.398 467.685 454.617C470.741 452.835 473.353 450.448 475.517 447.456C477.683 444.465 479.338 440.933 480.484 436.86C481.63 432.787 482.204 428.46 482.204 423.877ZM565.496 394.475C563.37 393.345 561.128 392.449 558.81 391.802C556.517 391.166 553.715 390.848 550.404 390.848C544.164 390.848 539.324 393.011 535.885 397.339C532.446 401.667 530.728 408.094 530.728 416.622V473.899H511.05V373.665H530.728V383.211C533.019 379.901 536.172 377.133 540.184 374.905C544.195 372.678 548.684 371.564 553.651 371.564C557.726 371.564 561.07 371.915 563.681 372.615C566.292 373.314 568.616 374.365 570.653 375.765L565.496 394.475Z" fill="#1A1E22"/>
<path d="M598.544 359.919V394.858H636.942V414.522H598.542V473.9H578.485V340.253H664.642V359.919H598.544ZM667.903 473.9V345.027L687.58 334.717V473.9H667.903ZM788.062 423.306C788.062 431.578 786.915 438.992 784.622 445.547C782.331 452.103 779.147 457.639 775.072 462.158C770.996 466.676 766.22 470.113 760.744 472.467C755.267 474.822 749.281 476 742.786 476C736.418 476 730.56 474.758 725.211 472.277C719.862 469.795 715.213 466.263 711.265 461.681C707.317 457.098 704.228 451.626 702 445.262C699.771 438.897 698.657 431.769 698.657 423.878C698.657 415.732 699.803 408.413 702.096 401.922C704.388 395.431 707.54 389.925 711.552 385.407C715.563 380.888 720.276 377.451 725.689 375.097C731.101 372.742 736.992 371.565 743.36 371.565C749.728 371.565 755.649 372.806 761.125 375.288C766.543 377.727 771.391 381.272 775.357 385.693C779.369 390.148 782.49 395.589 784.719 402.018C786.947 408.445 788.062 415.541 788.062 423.306ZM768.194 423.878C768.194 413.568 765.933 405.39 761.412 399.344C756.891 393.298 750.619 390.275 742.595 390.275C735.081 390.275 729.191 393.298 724.924 399.344C720.658 405.39 718.524 413.378 718.524 423.306C718.524 434.379 720.817 442.811 725.402 448.603C729.987 454.393 736.036 457.29 743.55 457.29C747.244 457.29 750.619 456.399 753.676 454.617C756.732 452.835 759.343 450.448 761.508 447.457C763.673 444.466 765.329 440.934 766.475 436.861C767.621 432.788 768.194 428.46 768.194 423.878ZM885.108 473.9H868.297L854.733 423.306C853.694 419.405 852.707 415.491 851.773 411.564C850.817 407.555 850.085 404.34 849.576 401.922C848.879 405.175 848.146 408.421 847.379 411.659C846.452 415.619 845.465 419.566 844.418 423.496L831.045 473.901H814.234L786.725 373.665H806.211L818.055 422.351C819.113 426.334 820.068 430.345 820.92 434.378C821.811 438.579 822.512 441.889 823.021 444.307L825.505 434.379C826.524 430.306 827.543 426.296 828.562 422.351L841.933 373.665H857.791L871.354 422.541C872.378 426.509 873.365 430.487 874.314 434.474C875.269 438.483 876.066 441.761 876.703 444.307C877.339 441.761 878.072 438.42 878.899 434.283C879.697 430.277 880.62 426.298 881.669 422.351L893.514 373.665H913L885.108 473.9Z" fill="#1A1E22"/>
<mask id="mask0_2201_36" style="mask-type:luminance" maskUnits="userSpaceOnUse" x="514" y="60" width="97" height="225">
<path d="M610.604 114.834L514.696 60.3652V284.197L553.059 262.069V199.09L582.045 215.686L581.618 172.707L553.059 156.111V131.004L610.604 164.621V114.834Z" fill="white"/>
</mask>
<g mask="url(#mask0_2201_36)">
<path d="M401.312 59.5146H636.604V284.623H401.312V59.5146Z" fill="#1A1E22"/>
</g>
<mask id="mask1_2201_36" style="mask-type:luminance" maskUnits="userSpaceOnUse" x="410" y="60" width="97" height="225">
<path d="M410.264 114.834L506.171 60.3652V284.197L467.808 262.069V131.004L410.264 164.621V114.834Z" fill="white"/>
</mask>
<g mask="url(#mask1_2201_36)">
<path d="M400.033 59.5146H635.326V284.623H400.033V59.5146Z" fill="#1A1E22"/>
</g>
</svg>
