<svg width="1035" height="500" viewBox="0 0 1035 500" fill="none" xmlns="http://www.w3.org/2000/svg">
<path d="M132.031 374.919V488.899H111.971V374.919H73V355.254H171.002V374.919H132.031Z" fill="#1A1E22"/>
<path d="M237.381 416.352C239.1 422.462 239.135 430.504 239.009 431.523L174.265 450.706C174.774 455.543 174.626 453.582 176.154 457.018C177.682 460.455 179.593 463.287 181.885 465.514C184.178 467.741 186.724 469.397 189.526 470.478C192.329 471.56 195.31 472.111 198.315 472.101C202.517 472.101 206.37 471.401 209.871 470.002C213.374 468.601 216.781 466.628 220.092 464.083L231.746 476.683C227.289 480.884 222.321 484.13 216.844 486.42C211.369 488.712 204.81 489.857 197.167 489.857C191.309 489.857 185.738 488.712 180.452 486.42C175.166 484.129 170.55 480.756 166.602 476.301C162.654 471.846 159.533 466.374 157.242 459.882C154.949 453.391 153.802 446.009 153.802 437.735C153.802 429.207 154.885 421.698 157.05 415.207C159.215 408.714 162.209 403.273 166.029 398.882C169.85 394.491 174.466 391.15 179.879 388.859C185.292 386.567 191.245 385.422 197.741 385.422C204.873 385.422 211.082 386.758 216.366 389.431C221.652 392.104 226.046 395.732 229.548 400.314C233.051 404.896 235.662 410.243 237.381 416.352ZM218.567 420.883C218.313 417.446 215.939 413.24 213.979 410.624C212.182 408.223 209.605 406.284 206.815 405.183C203.886 404.026 199.907 403.532 196.404 403.687C189.834 403.974 182.525 406.245 178.835 411.314C175.146 416.382 174.13 424.905 174.265 434.097L218.567 420.883ZM310.07 487.757V431.053C310.07 420.871 308.256 413.742 304.626 409.669C300.996 405.596 295.933 403.56 289.437 403.56C282.815 403.56 277.722 405.787 274.155 410.241C270.589 414.696 268.806 420.997 268.806 429.145V487.757H249.13V387.522H268.806V397.069C271.354 393.377 274.887 390.513 279.409 388.477C283.93 386.441 288.802 385.422 294.023 385.422C305.74 385.422 314.623 389.177 320.673 396.686C326.722 404.196 329.747 415.397 329.747 430.289V487.757H310.07ZM410.562 461.407C410.562 467.007 409.51 471.684 407.41 475.439C405.308 479.194 402.539 482.217 399.1 484.508C395.66 486.798 391.681 488.453 387.159 489.472C382.638 490.49 377.894 490.999 372.927 490.999C366.051 490.999 359.205 489.79 352.39 487.372C345.578 484.954 339.625 481.899 334.53 478.207L343.508 463.315C348.22 466.625 353.092 469.106 358.123 470.762C363.153 472.416 368.025 473.243 372.737 473.243C384.963 473.243 391.076 469.553 391.076 462.17C391.076 458.351 389.007 455.297 384.868 453.006C380.729 450.715 375.029 448.169 367.77 445.368C362.421 443.332 357.868 441.264 354.11 439.164C350.354 437.063 347.297 434.804 344.941 432.386C342.585 429.967 340.898 427.262 339.878 424.272C338.86 421.28 338.35 417.812 338.35 413.867C338.35 409.412 339.178 405.466 340.834 402.029C342.456 398.634 344.882 395.684 347.902 393.438C350.958 391.146 354.588 389.429 358.791 388.283C362.994 387.137 367.579 386.564 372.546 386.564C378.914 386.564 385.059 387.583 390.98 389.619C396.902 391.656 402.092 394.329 406.55 397.638L397.954 412.721C393.878 409.794 389.739 407.629 385.537 406.229C381.333 404.83 376.812 404.13 371.972 404.13C367.133 404.13 363.63 404.989 361.466 406.706C359.3 408.425 358.218 410.621 358.218 413.293C358.218 414.567 358.473 415.743 358.982 416.826C359.492 417.908 360.446 419.021 361.847 420.167C363.249 421.313 365.127 422.49 367.483 423.699C369.839 424.908 372.928 426.277 376.748 427.804C382.353 429.967 387.256 432.035 391.458 434.009C395.661 435.982 399.195 438.209 402.061 440.691C404.926 443.173 407.06 446.068 408.461 449.378C409.861 452.687 410.562 456.697 410.562 461.407ZM502.072 438.305C502.072 446.578 500.925 453.992 498.633 460.547C496.34 467.103 493.156 472.639 489.081 477.157C485.005 481.676 480.229 485.113 474.754 487.467C469.277 489.822 463.291 490.999 456.796 490.999C450.428 490.999 444.57 489.758 439.221 487.276C433.873 484.794 429.224 481.262 425.275 476.68C421.328 472.097 418.238 466.625 416.01 460.261C413.781 453.897 412.667 446.768 412.667 438.877C412.667 430.731 413.813 423.412 416.106 416.921C418.397 410.43 421.55 404.925 425.562 400.406C429.573 395.888 434.285 392.451 439.699 390.097C445.112 387.742 451.002 386.564 457.369 386.564C463.737 386.564 469.659 387.806 475.136 390.288C480.553 392.727 485.401 396.271 489.368 400.693C493.379 405.147 496.499 410.589 498.728 417.017C500.957 423.444 502.072 430.54 502.072 438.305ZM482.204 438.877C482.204 428.568 479.944 420.39 475.422 414.343C470.901 408.297 464.628 405.274 456.605 405.274C449.091 405.274 443.201 408.297 438.934 414.343C434.668 420.39 432.534 428.377 432.534 438.305C432.534 449.378 434.827 457.81 439.412 463.602C443.996 469.393 450.046 472.289 457.561 472.289C461.253 472.289 464.628 471.398 467.685 469.617C470.741 467.835 473.353 465.448 475.517 462.456C477.683 459.465 479.338 455.933 480.484 451.86C481.63 447.787 482.204 443.46 482.204 438.877ZM565.496 409.475C563.37 408.345 561.128 407.449 558.81 406.802C556.517 406.166 553.715 405.848 550.404 405.848C544.164 405.848 539.324 408.011 535.885 412.339C532.446 416.667 530.728 423.094 530.728 431.622V488.899H511.05V388.665H530.728V398.211C533.019 394.901 536.172 392.133 540.184 389.905C544.195 387.678 548.684 386.564 553.651 386.564C557.726 386.564 561.07 386.915 563.681 387.615C566.292 388.314 568.616 389.365 570.653 390.765L565.496 409.475Z" fill="#1A1E22"/>
<path d="M598.544 374.919V409.858H636.942V429.522H598.542V488.9H578.485V355.253H664.642V374.919H598.544ZM667.903 488.9V360.027L687.58 349.717V488.9H667.903ZM788.062 438.306C788.062 446.578 786.915 453.992 784.622 460.547C782.331 467.103 779.147 472.639 775.072 477.158C770.996 481.676 766.22 485.113 760.744 487.467C755.267 489.822 749.281 491 742.786 491C736.418 491 730.56 489.758 725.211 487.277C719.862 484.795 715.213 481.263 711.265 476.681C707.317 472.098 704.228 466.626 702 460.262C699.771 453.897 698.657 446.769 698.657 438.878C698.657 430.732 699.803 423.413 702.096 416.922C704.388 410.431 707.54 404.925 711.552 400.407C715.563 395.888 720.276 392.451 725.689 390.097C731.101 387.742 736.992 386.565 743.36 386.565C749.728 386.565 755.649 387.806 761.125 390.288C766.543 392.727 771.391 396.272 775.357 400.693C779.369 405.148 782.49 410.589 784.719 417.018C786.947 423.445 788.062 430.541 788.062 438.306ZM768.194 438.878C768.194 428.568 765.933 420.39 761.412 414.344C756.891 408.298 750.619 405.275 742.595 405.275C735.081 405.275 729.191 408.298 724.924 414.344C720.658 420.39 718.524 428.378 718.524 438.306C718.524 449.379 720.817 457.811 725.402 463.603C729.987 469.393 736.036 472.29 743.55 472.29C747.244 472.29 750.619 471.399 753.676 469.617C756.732 467.835 759.343 465.448 761.508 462.457C763.673 459.466 765.329 455.934 766.475 451.861C767.621 447.788 768.194 443.46 768.194 438.878ZM885.108 488.9H868.297L854.733 438.306C853.694 434.405 852.707 430.491 851.773 426.564C850.817 422.555 850.085 419.34 849.576 416.922C848.879 420.175 848.146 423.421 847.379 426.659C846.452 430.619 845.465 434.566 844.418 438.496L831.045 488.901H814.234L786.725 388.665H806.211L818.055 437.351C819.113 441.334 820.068 445.345 820.92 449.378C821.811 453.579 822.512 456.889 823.021 459.307L825.505 449.379C826.524 445.306 827.543 441.296 828.562 437.351L841.933 388.665H857.791L871.354 437.541C872.378 441.509 873.365 445.487 874.314 449.474C875.269 453.483 876.066 456.761 876.703 459.307C877.339 456.761 878.072 453.42 878.899 449.283C879.697 445.277 880.62 441.298 881.669 437.351L893.514 388.665H913L885.108 488.9Z" fill="#1A1E22"/>
<mask id="mask0_2201_36" style="mask-type:luminance" maskUnits="userSpaceOnUse" x="514" y="75" width="97" height="225">
<path d="M610.604 129.834L514.696 75.3652V299.197L553.059 277.069V214.09L582.045 230.686L581.618 187.707L553.059 171.111V146.004L610.604 179.621V129.834Z" fill="white"/>
</mask>
<g mask="url(#mask0_2201_36)">
<path d="M401.312 74.5146H636.604V299.623H401.312V74.5146Z" fill="#1A1E22"/>
</g>
<mask id="mask1_2201_36" style="mask-type:luminance" maskUnits="userSpaceOnUse" x="410" y="75" width="97" height="225">
<path d="M410.264 129.834L506.171 75.3652V299.197L467.808 277.069V146.004L410.264 179.621V129.834Z" fill="white"/>
</mask>
<g mask="url(#mask1_2201_36)">
<path d="M400.033 74.5146H635.326V299.623H400.033V74.5146Z" fill="#1A1E22"/>
</g>
</svg>
