<svg width="962" height="477" viewBox="0 0 962 477" fill="none" xmlns="http://www.w3.org/2000/svg">
<path d="M59.0309 360.177V474.157H38.9714V360.177H0V340.512H98.0023V360.177H59.0309Z" fill="#1A1E22"/>
<path d="M164.381 401.61C166.1 407.719 166.135 415.762 166.009 416.78L101.265 435.963C101.774 440.8 101.626 438.839 103.154 442.276C104.682 445.713 106.593 448.544 108.885 450.772C111.178 452.999 113.724 454.655 116.526 455.736C119.329 456.818 122.31 457.368 125.315 457.359C129.517 457.359 133.37 456.659 136.871 455.259C140.374 453.859 143.781 451.885 147.092 449.341L158.746 461.941C154.289 466.142 149.321 469.388 143.844 471.678C138.369 473.969 131.81 475.115 124.167 475.115C118.309 475.115 112.738 473.969 107.452 471.678C102.166 469.387 97.5503 466.014 93.6018 461.558C89.6543 457.104 86.5332 451.632 84.2418 445.14C81.9492 438.649 80.8018 431.267 80.8018 422.993C80.8018 414.465 81.8852 406.955 84.0498 400.464C86.2155 393.972 89.2086 388.531 93.0292 384.14C96.8498 379.749 101.466 376.408 106.879 374.117C112.292 371.825 118.245 370.68 124.741 370.68C131.873 370.68 138.082 372.016 143.366 374.689C148.652 377.361 153.046 380.99 156.548 385.571C160.051 390.154 162.662 395.5 164.381 401.61ZM145.567 406.141C145.313 402.704 142.939 398.498 140.979 395.882C139.182 393.481 136.605 391.542 133.815 390.441C130.886 389.284 126.907 388.79 123.404 388.944C116.834 389.232 109.525 391.503 105.835 396.572C102.146 401.64 101.13 410.163 101.265 419.355L145.567 406.141ZM237.07 473.015V416.311C237.07 406.128 235.256 399 231.626 394.927C227.996 390.854 222.933 388.818 216.437 388.818C209.815 388.818 204.722 391.045 201.155 395.499C197.589 399.954 195.806 406.255 195.806 414.402V473.015H176.13V372.78H195.806V382.327C198.354 378.635 201.887 375.77 206.409 373.735C210.93 371.699 215.802 370.68 221.023 370.68C232.74 370.68 241.623 374.435 247.673 381.944C253.722 389.454 256.747 400.655 256.747 415.547V473.015H237.07ZM337.562 446.664C337.562 452.265 336.51 456.942 334.41 460.697C332.308 464.452 329.539 467.475 326.1 469.766C322.66 472.056 318.681 473.711 314.159 474.73C309.638 475.748 304.894 476.257 299.927 476.257C293.051 476.257 286.205 475.048 279.39 472.63C272.578 470.212 266.625 467.156 261.53 463.465L270.508 448.573C275.22 451.883 280.092 454.364 285.123 456.02C290.153 457.674 295.025 458.501 299.737 458.501C311.963 458.501 318.076 454.81 318.076 447.427C318.076 443.609 316.007 440.555 311.868 438.264C307.729 435.972 302.029 433.427 294.77 430.626C289.421 428.589 284.868 426.522 281.11 424.422C277.354 422.321 274.297 420.062 271.941 417.644C269.585 415.225 267.898 412.52 266.878 409.53C265.86 406.537 265.35 403.07 265.35 399.125C265.35 394.67 266.178 390.724 267.834 387.287C269.456 383.891 271.882 380.942 274.902 378.696C277.958 376.404 281.588 374.686 285.791 373.541C289.994 372.395 294.579 371.822 299.546 371.822C305.914 371.822 312.059 372.841 317.98 374.877C323.902 376.914 329.092 379.586 333.55 382.895L324.954 397.979C320.878 395.052 316.739 392.887 312.537 391.487C308.333 390.088 303.812 389.387 298.972 389.387C294.133 389.387 290.63 390.246 288.466 391.964C286.3 393.683 285.218 395.879 285.218 398.551C285.218 399.825 285.473 401.001 285.982 402.084C286.492 403.166 287.446 404.279 288.847 405.425C290.249 406.57 292.127 407.748 294.483 408.956C296.839 410.166 299.928 411.534 303.748 413.061C309.353 415.225 314.256 417.293 318.458 419.267C322.661 421.239 326.195 423.467 329.061 425.949C331.926 428.431 334.06 431.326 335.461 434.636C336.861 437.945 337.562 441.955 337.562 446.664ZM429.072 423.563C429.072 431.836 427.925 439.249 425.633 445.804C423.34 452.361 420.156 457.897 416.081 462.415C412.005 466.934 407.229 470.37 401.754 472.724C396.277 475.08 390.291 476.257 383.796 476.257C377.428 476.257 371.57 475.016 366.221 472.534C360.873 470.052 356.224 466.52 352.275 461.938C348.328 457.355 345.238 451.883 343.01 445.519C340.781 439.155 339.667 432.026 339.667 424.135C339.667 415.989 340.813 408.67 343.106 402.179C345.397 395.688 348.55 390.182 352.562 385.664C356.573 381.145 361.285 377.709 366.699 375.355C372.112 372.999 378.002 371.822 384.369 371.822C390.737 371.822 396.659 373.063 402.136 375.545C407.553 377.985 412.401 381.529 416.368 385.951C420.379 390.405 423.499 395.847 425.728 402.275C427.957 408.702 429.072 415.798 429.072 423.563ZM409.204 424.135C409.204 413.826 406.944 405.648 402.422 399.601C397.901 393.555 391.628 390.532 383.605 390.532C376.091 390.532 370.201 393.555 365.934 399.601C361.668 405.648 359.534 413.635 359.534 423.563C359.534 434.636 361.827 443.068 366.412 448.86C370.996 454.651 377.046 457.547 384.561 457.547C388.253 457.547 391.628 456.656 394.685 454.874C397.741 453.093 400.353 450.705 402.517 447.714C404.683 444.723 406.338 441.191 407.484 437.118C408.63 433.045 409.204 428.717 409.204 424.135ZM492.496 394.733C490.37 393.603 488.128 392.707 485.81 392.06C483.517 391.424 480.715 391.105 477.404 391.105C471.164 391.105 466.324 393.269 462.885 397.596C459.446 401.925 457.728 408.352 457.728 416.88V474.157H438.05V373.922H457.728V383.469C460.019 380.159 463.172 377.391 467.184 375.163C471.195 372.935 475.684 371.822 480.651 371.822C484.726 371.822 488.07 372.173 490.681 372.873C493.292 373.572 495.616 374.623 497.653 376.023L492.496 394.733Z" fill="#1A1E22"/>
<path d="M525.544 360.177V395.116H563.942V414.78H525.542V474.157H505.485V340.511H591.642V360.177H525.544ZM594.903 474.157V345.285L614.58 334.975V474.157H594.903ZM715.062 423.563C715.062 431.836 713.915 439.25 711.622 445.805C709.331 452.361 706.147 457.897 702.072 462.416C697.996 466.934 693.22 470.371 687.744 472.725C682.267 475.08 676.281 476.258 669.786 476.258C663.418 476.258 657.56 475.016 652.211 472.534C646.862 470.052 642.213 466.521 638.265 461.938C634.317 457.356 631.228 451.884 629 445.519C626.771 439.155 625.657 432.027 625.657 424.136C625.657 415.99 626.803 408.67 629.096 402.179C631.388 395.688 634.54 390.183 638.552 385.665C642.563 381.146 647.276 377.709 652.689 375.355C658.101 373 663.992 371.823 670.36 371.823C676.728 371.823 682.649 373.064 688.125 375.546C693.543 377.985 698.391 381.529 702.357 385.951C706.369 390.406 709.49 395.847 711.719 402.275C713.947 408.702 715.062 415.799 715.062 423.563ZM695.194 424.136C695.194 413.826 692.933 405.648 688.412 399.602C683.891 393.556 677.619 390.533 669.595 390.533C662.081 390.533 656.191 393.556 651.924 399.602C647.658 405.648 645.524 413.635 645.524 423.563C645.524 434.637 647.817 443.068 652.402 448.86C656.987 454.651 663.036 457.548 670.55 457.548C674.244 457.548 677.619 456.657 680.676 454.875C683.732 453.093 686.343 450.706 688.508 447.715C690.673 444.723 692.329 441.192 693.475 437.119C694.621 433.046 695.194 428.718 695.194 424.136ZM812.108 474.157H795.297L781.733 423.563C780.694 419.663 779.707 415.749 778.773 411.822C777.817 407.813 777.085 404.597 776.576 402.179C775.879 405.433 775.146 408.679 774.379 411.917C773.452 415.877 772.465 419.823 771.418 423.754L758.045 474.159H741.234L713.725 373.923H733.211L745.055 422.608C746.113 426.592 747.068 430.603 747.92 434.636C748.811 438.837 749.512 442.147 750.021 444.565L752.505 434.637C753.524 430.564 754.543 426.554 755.562 422.608L768.933 373.923H784.791L798.354 422.799C799.378 426.767 800.365 430.745 801.314 434.732C802.269 438.741 803.066 442.019 803.703 444.565C804.339 442.019 805.072 438.678 805.899 434.541C806.697 430.535 807.62 426.556 808.669 422.608L820.514 373.923H840L812.108 474.157Z" fill="#1A1E22"/>
<mask id="mask0_2193_1599" style="mask-type:luminance" maskUnits="userSpaceOnUse" x="441" y="60" width="97" height="225">
<path d="M537.604 115.092L441.696 60.623V284.455L480.059 262.327V199.348L509.045 215.944L508.618 172.964L480.059 156.369V131.262L537.604 164.879V115.092Z" fill="white"/>
</mask>
<g mask="url(#mask0_2193_1599)">
<path d="M328.312 59.7725H563.604V284.881H328.312V59.7725Z" fill="#1A1E22"/>
</g>
<mask id="mask1_2193_1599" style="mask-type:luminance" maskUnits="userSpaceOnUse" x="337" y="60" width="97" height="225">
<path d="M337.264 115.092L433.171 60.623V284.455L394.808 262.327V131.262L337.264 164.879V115.092Z" fill="white"/>
</mask>
<g mask="url(#mask1_2193_1599)">
<path d="M327.033 59.7725H562.326V284.881H327.033V59.7725Z" fill="#1A1E22"/>
</g>
</svg>
